{
.appVersion = "1352";
copyright = "Copyright 2019 The Nokora Project Authors (https://github.com/danhhong/Nokora)";
customParameters = (
{
name = "Use Typo Metrics";
value = 1;
},
{
name = license;
value = "This Font Software is licensed under the SIL Open Font License, Version 1.1. This license is available with a FAQ at: https://scripts.sil.org/OFL";
},
{
name = licenseURL;
value = "https://scripts.sil.org/OFL";
},
{
name = fsType;
value = (
);
}
);
date = "2020-10-12 02:47:31 +0000";
designer = "Danh Hong";
designerURL = "http://www.nextspell.com";
disablesAutomaticAlignment = 1;
disablesNiceNames = 1;
familyName = Nokora;
featurePrefixes = (
{
code = "lookup lookup_0 {\012sub uni17B7 by uni17B7.r;\012sub uni17B8 by uni17B8.r;\012sub uni17B9 by uni17B9.r;\012sub uni17BA by uni17BA.r;\012sub uni17BE by uni17B8.r;\012sub uni17C6 by uni17C6.r;\012sub uni17C9 by uni17C9.r;\012sub uni17CD by uni17CD.r;\012sub uni17B7_17CD by iMark_17CDkhmer.r;\012} lookup_0;\012";
name = lookup_0;
},
{
code = "lookup lookup_1 {\012sub uni17BB by uni17BB.b;\012sub uni17BC by uni17BC.b;\012sub uni17BD by uni17BD.b;\012} lookup_1;\012";
name = lookup_1;
},
{
code = "lookup lookup_10 {\012sub uni17D2_1798 by coeng_1798khmer.b;\012sub uni17D2_17A0 by coeng_17A0khmer.b;\012} lookup_10;\012";
name = lookup_10;
},
{
code = "lookup lookup_11 {\012sub uni1794 by uni1794.a;\012} lookup_11;\012";
name = lookup_11;
},
{
code = "lookup lookup_12 {\012sub uni17D2179A by uni17D2179A.b;\012} lookup_12;\012";
name = lookup_12;
},
{
code = "lookup lookup_13 {\012sub uni17B7 by uni17B7.a;\012sub uni17B8 by uni17B8.a;\012sub uni17B9 by uni17B9.a;\012sub uni17BA by uni17BA.a;\012sub uni17BE by uni17B8.a;\012sub uni17C6 by uni17C6.a;\012sub uni17CE by uni17CE.a;\012sub uni17D0 by uni17D0.a;\012} lookup_13;\012";
name = lookup_13;
},
{
code = "lookup lookup_14 {\012sub uni1789 by uni1789.a;\012} lookup_14;\012";
name = lookup_14;
},
{

glyphs = (
{
glyphname = A;
lastChange = "2021-05-21 12:45:20 +0000";
layers = (
{
layerId = "89D8C5C7-992A-4B79-A2F2-D8D3CE0BA992";
paths = (
{
closed = 1;
nodes = (
"578 1466 LINE",
"0 0 LINE",
"57 0 LINE",
"276 555 LINE",
"911 555 LINE",
"1124 0 LINE",
"1182 0 LINE",
"629 1466 LINE"
);
},
{
closed = 1;
nodes = (
"555 1269 OFFCURVE",
"581 1337 OFFCURVE",
"600 1397 CURVE",
"628 1320 OFFCURVE",
"649 1262 OFFCURVE",
"666 1217 CURVE SMOOTH",
"891 606 LINE",
"295 606 LINE",
"532 1214 LINE SMOOTH"
);
}
);
width = 1181;
},
{
layerId = "963BFE9B-9129-4C18-A3F3-46AD815B745B";
paths = (
{
closed = 1;
nodes = (
"573 1466 LINE",
"0 0 LINE",
"121 0 LINE",
"319 504 LINE",
"926 504 LINE",
"1120 0 LINE",
"1245 0 LINE",
"684 1466 LINE"
);
},
{
closed = 1;
nodes = (
"569 1163 OFFCURVE",
"579 1194 OFFCURVE",
"592 1230 CURVE SMOOTH",
"604 1266 OFFCURVE",
"616 1302 OFFCURVE",
"627 1337 CURVE",
"648 1274 OFFCURVE",
"681 1176 OFFCURVE",
"692 1139 CURVE",
"889 610 LINE",
"358 610 LINE",
"561 1137 LINE"
);
}
);
width = 1245;
},
{
layerId = "A10A3B8F-5047-4E3E-80F3-6554B53DC79D";
paths = (
{
closed = 1;
nodes = (
"186 0 LINE",
"360 453 LINE",
"940 453 LINE",
"1116 0 LINE",
"1307 0 LINE",
"737 1468 LINE",
"571 1468 LINE",
"0 0 LINE"
);
},
{
closed = 1;
nodes = (
"604 1106 OFFCURVE",
"630 1193 OFFCURVE",
"651 1278 CURVE",
"662 1243 OFFCURVE",
"683 1171 OFFCURVE",
"701 1118 CURVE SMOOTH",
"710 1089 OFFCURVE",
"717 1070 OFFCURVE",
"721 1059 CURVE SMOOTH",
"885 616 LINE",
"422 616 LINE",
"588 1059 LINE SMOOTH"
);
}
);
userData = {
assembly = "NPUSHB[ ]	/* 40 values pushed */\0126 1 0 4 1 76 0 0 0 2 1 0 2 104 5 1 4 4 31 77 3 1 1 1 32 1 78 10 10 10 17 10 17 17 17 26 16 6 8 26 \012CALL[ ]	/* CallFunction */";
};
width = 1308;
},
{
layerId = "742C6D49-27A7-4CE6-BB95-CE3E85DCFAA1";
paths = (
{
closed = 1;
nodes = (
"516 1468 LINE",
"0 0 LINE",
"334 0 LINE",
"440 348 LINE",
"973 348 LINE",
"1079 0 LINE",
"1413 0 LINE",
"895 1468 LINE"
);
},
{
closed = 1;
nodes = (
"634 979 OFFCURVE",
"656 1059 OFFCURVE",
"679 1140 CURVE SMOOTH",
"690 1180 OFFCURVE",
"700 1214 OFFCURVE",
"707 1241 CURVE",
"719 1190 OFFCURVE",
"747 1099 OFFCURVE",
"766 1037 CURVE SMOOTH",
"793 948 LINE",
"899 608 LINE",
"518 608 LINE",
"623 948 LINE SMOOTH"
);
}
);
width = 1413;
},
{
layerId = "1AE80326-82F5-491E-9ED8-F639C1D819D6";
paths = (
{
closed = 1;
nodes = (
"477 1468 LINE",
"0 0 LINE",
"434 0 LINE",
"508 274 LINE",
"983 274 LINE",
"1055 0 LINE",
"1487 0 LINE",
"1004 1468 LINE"
);
},
{
closed = 1;
nodes = (
"670 901 OFFCURVE",
"695 1006 OFFCURVE",
"717 1103 CURVE SMOOTH",
"728 1152 OFFCURVE",
"736 1193 OFFCURVE",
"743 1227 CURVE",
"758 1159 OFFCURVE",
"785 1046 OFFCURVE",
"809 950 CURVE SMOOTH",
"821 901 OFFCURVE",
"831 864 OFFCURVE",
"838 838 CURVE SMOOTH",
"901 598 LINE",
"590 598 LINE",
"653 838 LINE SMOOTH"
);
}
);
width = 1486;
}
);
note = A;
unicode = 0041;
},
{
glyphname = B;
lastChange = "2021-05-21 12:45:20 +0000";
layers = (
{
layerId = "89D8C5C7-992A-4B79-A2F2-D8D3CE0BA992";
paths = (
{
closed = 1;
nodes = (
"819 0 OFFCURVE",
"983 51 OFFCURVE",
"1073 174 CURVE SMOOTH",
"1118 235 OFFCURVE",
"1140 316 OFFCURVE",
"1140 416 CURVE SMOOTH",
"1140 599 OFFCURVE",
"1054 732 OFFCURVE",
"814 768 CURVE",
"814 772 LINE",
"1002 805 OFFCURVE",
"1103 943 OFFCURVE",
"1103 1110 CURVE SMOOTH",
"1103 1345 OFFCURVE",
"958 1462 OFFCURVE",
"601 1462 CURVE SMOOTH",
"210 1462 LINE",
"210 0 LINE",
"620 0 LINE SMOOTH"
);
},
{
closed = 1;
nodes = (
"912 1411 OFFCURVE",
"1048 1324 OFFCURVE",
"1048 1108 CURVE SMOOTH",
"1048 899 OFFCURVE",
"905 795 OFFCURVE",
"620 795 CURVE SMOOTH",
"263 795 LINE",
"263 1411 LINE",
"595 1411 LINE SMOOTH"
);
},
{
closed = 1;
nodes = (
"810 743 OFFCURVE",
"953 708 OFFCURVE",
"1028 613 CURVE SMOOTH",
"1065 565 OFFCURVE",
"1084 499 OFFCURVE",
"1084 414 CURVE SMOOTH",
"1084 162 OFFCURVE",
"915 51 OFFCURVE",
"636 51 CURVE SMOOTH",
"263 51 LINE",
"263 743 LINE",
"613 743 LINE SMOOTH"
);
}
);
width = 1255;
},
{
layerId = "963BFE9B-9129-4C18-A3F3-46AD815B745B";
paths = (
{
closed = 1;
nodes = (
"868 0 OFFCURVE",
"1029 59 OFFCURVE",
"1115 182 CURVE SMOOTH",
"1158 243 OFFCURVE",
"1179 321 OFFCURVE",
"1179 416 CURVE SMOOTH",
"1179 623 OFFCURVE",
"1066 733 OFFCURVE",
"853 766 CURVE",
"853 774 LINE",
"1036 807 OFFCURVE",
"1138 937 OFFCURVE",
"1138 1106 CURVE SMOOTH",
"1138 1357 OFFCURVE",
"970 1462 OFFCURVE",
"610 1462 CURVE SMOOTH",
"204 1462 LINE",
"204 0 LINE",
"667 0 LINE SMOOTH"
);
},
{
closed = 1;
nodes = (
"893 1358 OFFCURVE",
"1015 1282 OFFCURVE",
"1015 1094 CURVE SMOOTH",
"1015 910 OFFCURVE",
"904 817 OFFCURVE",
"636 817 CURVE SMOOTH",
"323 817 LINE",
"323 1358 LINE",
"610 1358 LINE SMOOTH"
);
},
{
closed = 1;
nodes = (
"922 715 OFFCURVE",
"1054 623 OFFCURVE",
"1054 422 CURVE SMOOTH",
"1054 209 OFFCURVE",
"922 102 OFFCURVE",
"657 102 CURVE SMOOTH",
"323 102 LINE",
"323 715 LINE",
"638 715 LINE SMOOTH"
);
}
);
width = 1294;
},
{
layerId = "A10A3B8F-5047-4E3E-80F3-6554B53DC79D";
paths = (
{
closed = 1;
nodes = (
"1027 0 OFFCURVE",
"1220 151 OFFCURVE",
"1220 416 CURVE SMOOTH",
"1220 565 OFFCURVE",
"1159 659 OFFCURVE",
"1059 711 CURVE SMOOTH",
"1009 737 OFFCURVE",
"953 755 OFFCURVE",
"892 766 CURVE",
"892 776 LINE",
"1072 809 OFFCURVE",
"1171 928 OFFCURVE",
"1171 1100 CURVE SMOOTH",
"1171 1364 OFFCURVE",
"979 1462 OFFCURVE",
"616 1462 CURVE SMOOTH",
"198 1462 LINE",
"198 0 LINE",
"712 0 LINE SMOOTH"
);
},
{
closed = 1;
nodes = (
"872 1305 OFFCURVE",
"980 1240 OFFCURVE",
"980 1079 CURVE SMOOTH",
"980 922 OFFCURVE",
"901 840 OFFCURVE",
"653 840 CURVE SMOOTH",
"382 840 LINE",
"382 1305 LINE",
"624 1305 LINE SMOOTH"
);
},
{
closed = 1;
nodes = (
"934 686 OFFCURVE",
"1023 583 OFFCURVE",
"1023 430 CURVE SMOOTH",
"1023 266 OFFCURVE",
"937 156 OFFCURVE",
"677 156 CURVE SMOOTH",
"382 156 LINE",
"382 686 LINE",
"663 686 LINE SMOOTH"
);
}
);
userData = {
assembly = "NPUSHB[ ]	/* 64 values pushed */\0128 1 4 2 1 76 0 2 8 1 4 5 2 4 103 7 1 3 3 0 95 0 0 0 31 77 0 5 5 1 95 6 1 1 1 32 1 78 27 26 17 17 0 0 30 28 26 34 27 34 17 25 17 24 20 18 0 16 0 15 33 9 8 23 \012CALL[ ]	/* CallFunction */";
};
width = 1331;
},
{
layerId = "742C6D49-27A7-4CE6-BB95-CE3E85DCFAA1";
paths = (
{
closed = 1;
nodes = (
"1062 0 OFFCURVE",
"1267 159 OFFCURVE",
"1267 424 CURVE SMOOTH",
"1267 577 OFFCURVE",
"1218 666 OFFCURVE",
"1138 714 CURVE SMOOTH",
"1097 738 OFFCURVE",
"1053 755 OFFCURVE",
"1005 766 CURVE",
"1005 776 LINE",
"1150 801 OFFCURVE",
"1231 925 OFFCURVE",
"1231 1092 CURVE SMOOTH",
"1231 1367 OFFCURVE",
"1026 1462 OFFCURVE",
"639 1462 CURVE SMOOTH",
"184 1462 LINE",
"184 0 LINE",
"731 0 LINE SMOOTH"
);
},
{
closed = 1;
nodes = (
"834 1208 OFFCURVE",
"913 1163 OFFCURVE",
"913 1051 CURVE SMOOTH",
"913 939 OFFCURVE",
"854 883 OFFCURVE",
"673 883 CURVE SMOOTH",
"493 883 LINE",
"493 1208 LINE",
"657 1208 LINE SMOOTH"
);
},
{
closed = 1;
nodes = (
"882 637 OFFCURVE",
"946 564 OFFCURVE",
"946 455 CURVE SMOOTH",
"946 335 OFFCURVE",
"881 256 OFFCURVE",
"696 256 CURVE SMOOTH",
"493 256 LINE",
"493 637 LINE",
"686 637 LINE SMOOTH"
);
}
);
width = 1376;
},
{
layerId = "1AE80326-82F5-491E-9ED8-F639C1D819D6";
paths = (
{
closed = 1;
nodes = (
"1070 0 OFFCURVE",
"1283 163 OFFCURVE",
"1283 428 CURVE SMOOTH",
"1283 584 OFFCURVE",
"1224 671 OFFCURVE",
"1145 716 CURVE SMOOTH",
"1105 739 OFFCURVE",
"1065 755 OFFCURVE",
"1025 766 CURVE",
"1025 776 LINE",
"1100 796 OFFCURVE",
"1173 846 OFFCURVE",
"1220 935 CURVE SMOOTH",
"1243 979 OFFCURVE",
"1255 1033 OFFCURVE",
"1255 1098 CURVE SMOOTH",
"1255 1333 OFFCURVE",
"1087 1462 OFFCURVE",
"667 1462 CURVE SMOOTH",
"157 1462 LINE",
"157 0 LINE",
"726 0 LINE SMOOTH"
);
},
{
closed = 1;
nodes = (
"787 1163 OFFCURVE",
"849 1122 OFFCURVE",
"849 1040 CURVE SMOOTH",
"849 964 OFFCURVE",
"802 901 OFFCURVE",
"671 901 CURVE SMOOTH",
"552 901 LINE",
"552 1163 LINE",
"663 1163 LINE SMOOTH"
);
},
{
closed = 1;
nodes = (
"831 612 OFFCURVE",
"876 540 OFFCURVE",
"876 461 CURVE SMOOTH",
"876 370 OFFCURVE",
"828 305 OFFCURVE",
"692 305 CURVE SMOOTH",
"552 305 LINE",
"552 612 LINE",
"683 612 LINE SMOOTH"
);
}
);
width = 1380;
}
);
note = B;
unicode = 0042;
},
{
glyphname = C;
lastChange = "2021-05-21 12:45:20 +0000";
layers = (
{
layerId = "89D8C5C7-992A-4B79-A2F2-D8D3CE0BA992";
paths = (
{
closed = 1;
nodes = (
"941 1432 OFFCURVE",
"1056 1416 OFFCURVE",
"1173 1356 CURVE",
"1194 1407 LINE",
"1083 1458 OFFCURVE",
"962 1483 OFFCURVE",
"829 1483 CURVE SMOOTH",
"537 1483 OFFCURVE",
"325 1344 OFFCURVE",
"213 1119 CURVE SMOOTH",
"157 1006 OFFCURVE",
"129 879 OFFCURVE",
"129 737 CURVE SMOOTH",
"129 434 OFFCURVE",
"230 202 OFFCURVE",
"426 75 CURVE SMOOTH",
"524 12 OFFCURVE",
"646 -20 OFFCURVE",
"791 -20 CURVE SMOOTH",
"951 -20 OFFCURVE",
"1078 7 OFFCURVE",
"1167 43 CURVE",
"1167 90 LINE",
"1070 54 OFFCURVE",
"948 31 OFFCURVE",
"791 31 CURVE SMOOTH",
"523 31 OFFCURVE",
"342 154 OFFCURVE",
"252 366 CURVE SMOOTH",
"207 471 OFFCURVE",
"184 595 OFFCURVE",
"184 737 CURVE SMOOTH",
"184 1005 OFFCURVE",
"288 1221 OFFCURVE",
"480 1342 CURVE SMOOTH",
"575 1402 OFFCURVE",
"692 1432 OFFCURVE",
"829 1432 CURVE SMOOTH"
);
}
);
width = 1257;
},
{
layerId = "963BFE9B-9129-4C18-A3F3-46AD815B745B";
paths = (
{
closed = 1;
nodes = (
"945 1376 OFFCURVE",
"1058 1350 OFFCURVE",
"1164 1298 CURVE",
"1211 1401 LINE",
"1098 1456 OFFCURVE",
"969 1483 OFFCURVE",
"826 1483 CURVE SMOOTH",
"531 1483 OFFCURVE",
"320 1346 OFFCURVE",
"209 1121 CURVE SMOOTH",
"154 1008 OFFCURVE",
"126 880 OFFCURVE",
"126 735 CURVE SMOOTH",
"126 432 OFFCURVE",
"227 199 OFFCURVE",
"424 74 CURVE SMOOTH",
"523 11 OFFCURVE",
"646 -20 OFFCURVE",
"794 -20 CURVE SMOOTH",
"951 -20 OFFCURVE",
"1070 2 OFFCURVE",
"1170 41 CURVE",
"1170 143 LINE",
"1065 111 OFFCURVE",
"947 86 OFFCURVE",
"806 86 CURVE SMOOTH",
"561 86 OFFCURVE",
"397 198 OFFCURVE",
"314 392 CURVE SMOOTH",
"272 489 OFFCURVE",
"251 602 OFFCURVE",
"251 733 CURVE SMOOTH",
"251 990 OFFCURVE",
"345 1187 OFFCURVE",
"517 1295 CURVE SMOOTH",
"603 1349 OFFCURVE",
"706 1376 OFFCURVE",
"826 1376 CURVE SMOOTH"
);
}
);
width = 1275;
},
{
layerId = "A10A3B8F-5047-4E3E-80F3-6554B53DC79D";
paths = (
{
closed = 1;
nodes = (
"956 1321 OFFCURVE",
"1067 1282 OFFCURVE",
"1156 1241 CURVE",
"1230 1397 LINE",
"1115 1454 OFFCURVE",
"981 1483 OFFCURVE",
"826 1483 CURVE SMOOTH",
"526 1483 OFFCURVE",
"313 1348 OFFCURVE",
"205 1123 CURVE SMOOTH",
"151 1010 OFFCURVE",
"124 880 OFFCURVE",
"124 733 CURVE SMOOTH",
"124 428 OFFCURVE",
"224 195 OFFCURVE",
"424 72 CURVE SMOOTH",
"523 11 OFFCURVE",
"647 -20 OFFCURVE",
"796 -20 CURVE SMOOTH",
"957 -20 OFFCURVE",
"1064 -2 OFFCURVE",
"1173 39 CURVE",
"1173 199 LINE",
"1061 166 OFFCURVE",
"949 141 OFFCURVE",
"822 141 CURVE SMOOTH",
"486 141 OFFCURVE",
"319 368 OFFCURVE",
"319 731 CURVE SMOOTH",
"319 1098 OFFCURVE",
"511 1321 OFFCURVE",
"824 1321 CURVE SMOOTH"
);
}
);
userData = {
assembly = "NPUSHB[ ]	/* 52 values pushed */\01223 1 0 3 24 9 2 1 0 10 1 2 1 3 76 4 1 0 0 3 97 0 3 3 37 77 0 1 1 2 97 0 2 2 38 2 78 1 0 22 20 14 12 7 5 0 26 1 26 5 8 22 \012CALL[ ]	/* CallFunction */";
};
width = 1294;
},
{
layerId = "742C6D49-27A7-4CE6-BB95-CE3E85DCFAA1";
paths = (
{
closed = 1;
nodes = (
"911 1225 OFFCURVE",
"1023 1180 OFFCURVE",
"1132 1128 CURVE",
"1232 1380 LINE",
"1099 1443 OFFCURVE",
"949 1483 OFFCURVE",
"804 1483 CURVE SMOOTH",
"509 1483 OFFCURVE",
"305 1347 OFFCURVE",
"198 1120 CURVE SMOOTH",
"145 1007 OFFCURVE",
"118 876 OFFCURVE",
"118 729 CURVE SMOOTH",
"118 429 OFFCURVE",
"209 197 OFFCURVE",
"403 73 CURVE SMOOTH",
"500 11 OFFCURVE",
"624 -20 OFFCURVE",
"775 -20 CURVE SMOOTH",
"931 -20 OFFCURVE",
"1049 3 OFFCURVE",
"1177 55 CURVE",
"1177 315 LINE",
"1037 267 OFFCURVE",
"921 238 OFFCURVE",
"804 238 CURVE SMOOTH",
"548 238 OFFCURVE",
"437 416 OFFCURVE",
"437 727 CURVE SMOOTH",
"437 1035 OFFCURVE",
"567 1225 OFFCURVE",
"804 1225 CURVE SMOOTH"
);
}
);
width = 1304;
},
{
layerId = "1AE80326-82F5-491E-9ED8-F639C1D819D6";
paths = (
{
closed = 1;
nodes = (
"932 1159 OFFCURVE",
"1039 1121 OFFCURVE",
"1144 1069 CURVE",
"1265 1380 LINE",
"1116 1452 OFFCURVE",
"954 1483 OFFCURVE",
"813 1483 CURVE SMOOTH",
"509 1483 OFFCURVE",
"295 1345 OFFCURVE",
"186 1118 CURVE SMOOTH",
"131 1005 OFFCURVE",
"104 874 OFFCURVE",
"104 727 CURVE SMOOTH",
"104 432 OFFCURVE",
"197 199 OFFCURVE",
"398 74 CURVE SMOOTH",
"498 11 OFFCURVE",
"628 -20 OFFCURVE",
"788 -20 CURVE SMOOTH",
"939 -20 OFFCURVE",
"1073 4 OFFCURVE",
"1202 61 CURVE",
"1202 395 LINE",
"1079 343 OFFCURVE",
"959 303 OFFCURVE",
"831 303 CURVE SMOOTH",
"612 303 OFFCURVE",
"510 449 OFFCURVE",
"510 725 CURVE SMOOTH",
"510 998 OFFCURVE",
"622 1159 OFFCURVE",
"809 1159 CURVE SMOOTH"
);
}
);
width = 1329;
}
);
note = C;
unicode = 0043;
},
{
glyphname = D;
lastChange = "2021-05-21 12:45:20 +0000";
layers = (
{
layerId = "89D8C5C7-992A-4B79-A2F2-D8D3CE0BA992";
paths = (
{
closed = 1;
nodes = (
"1285 1210 OFFCURVE",
"1056 1462 OFFCURVE",
"572 1462 CURVE SMOOTH",
"210 1462 LINE",
"210 0 LINE",
"525 0 LINE SMOOTH",
"1036 0 OFFCURVE",
"1285 257 OFFCURVE",
"1285 745 CURVE SMOOTH"
);
},
{
closed = 1;
nodes = (
"1230 282 OFFCURVE",
"997 51 OFFCURVE",
"532 51 CURVE SMOOTH",
"263 51 LINE",
"263 1411 LINE",
"552 1411 LINE SMOOTH",
"1027 1411 OFFCURVE",
"1230 1178 OFFCURVE",
"1230 743 CURVE SMOOTH"
);
}
);
width = 1417;
},
{
layerId = "963BFE9B-9129-4C18-A3F3-46AD815B745B";
paths = (
{
closed = 1;
nodes = (
"1326 1213 OFFCURVE",
"1074 1462 OFFCURVE",
"610 1462 CURVE SMOOTH",
"204 1462 LINE",
"204 0 LINE",
"564 0 LINE SMOOTH",
"1061 0 OFFCURVE",
"1326 254 OFFCURVE",
"1326 745 CURVE SMOOTH"
);
},
{
closed = 1;
nodes = (
"1203 316 OFFCURVE",
"987 104 OFFCURVE",
"556 104 CURVE SMOOTH",
"323 104 LINE",
"323 1358 LINE",
"587 1358 LINE SMOOTH",
"998 1358 OFFCURVE",
"1203 1152 OFFCURVE",
"1203 741 CURVE SMOOTH"
);
}
);
width = 1456;
},
{
layerId = "A10A3B8F-5047-4E3E-80F3-6554B53DC79D";
paths = (
{
closed = 1;
nodes = (
"1369 1057 OFFCURVE",
"1247 1271 OFFCURVE",
"1031 1380 CURVE SMOOTH",
"922 1435 OFFCURVE",
"795 1462 OFFCURVE",
"649 1462 CURVE SMOOTH",
"198 1462 LINE",
"198 0 LINE",
"606 0 LINE SMOOTH",
"1086 0 OFFCURVE",
"1369 252 OFFCURVE",
"1369 745 CURVE SMOOTH"
);
},
{
closed = 1;
nodes = (
"1175 352 OFFCURVE",
"977 158 OFFCURVE",
"581 158 CURVE SMOOTH",
"382 158 LINE",
"382 1305 LINE",
"622 1305 LINE SMOOTH",
"974 1305 OFFCURVE",
"1175 1130 OFFCURVE",
"1175 739 CURVE SMOOTH"
);
}
);
userData = {
assembly = "NPUSHB[ ]	/* 28 values pushed */\0120 2 2 1 95 0 1 1 31 77 0 3 3 0 95 0 0 0 32 0 78 33 37 33 34 4 8 26 \012CALL[ ]	/* CallFunction */";
};
width = 1495;
},
{
layerId = "742C6D49-27A7-4CE6-BB95-CE3E85DCFAA1";
paths = (
{
closed = 1;
nodes = (
"1396 1057 OFFCURVE",
"1266 1271 OFFCURVE",
"1041 1380 CURVE SMOOTH",
"928 1435 OFFCURVE",
"796 1462 OFFCURVE",
"643 1462 CURVE SMOOTH",
"184 1462 LINE",
"184 0 LINE",
"598 0 LINE SMOOTH",
"1101 0 OFFCURVE",
"1396 252 OFFCURVE",
"1396 745 CURVE SMOOTH"
);
},
{
closed = 1;
nodes = (
"1075 416 OFFCURVE",
"925 256 OFFCURVE",
"626 256 CURVE SMOOTH",
"493 256 LINE",
"493 1208 LINE",
"659 1208 LINE SMOOTH",
"930 1208 OFFCURVE",
"1075 1060 OFFCURVE",
"1075 737 CURVE SMOOTH"
);
}
);
width = 1515;
},
{
layerId = "1AE80326-82F5-491E-9ED8-F639C1D819D6";
paths = (
{
closed = 1;
nodes = (
"1398 1215 OFFCURVE",
"1132 1462 OFFCURVE",
"663 1462 CURVE SMOOTH",
"157 1462 LINE",
"157 0 LINE",
"630 0 LINE SMOOTH",
"942 0 OFFCURVE",
"1176 111 OFFCURVE",
"1303 338 CURVE SMOOTH",
"1366 451 OFFCURVE",
"1398 593 OFFCURVE",
"1398 762 CURVE SMOOTH"
);
},
{
closed = 1;
nodes = (
"988 460 OFFCURVE",
"881 324 OFFCURVE",
"640 324 CURVE SMOOTH",
"552 324 LINE",
"552 1143 LINE",
"667 1143 LINE SMOOTH",
"881 1143 OFFCURVE",
"988 1011 OFFCURVE",
"988 748 CURVE SMOOTH"
);
}
);
width = 1503;
}
);
note = D;
unicode = 0044;
},
{
glyphname = E;
lastChange = "2021-05-21 12:45:20 +0000";
layers = (
{
layerId = "89D8C5C7-992A-4B79-A2F2-D8D3CE0BA992";
paths = (
{
closed = 1;
nodes = (
"263 745 LINE",
"958 745 LINE",
"958 797 LINE",
"263 797 LINE",
"263 1411 LINE",
"998 1411 LINE",
"998 1462 LINE",
"210 1462 LINE",
"210 0 LINE",
"998 0 LINE",
"998 51 LINE",
"263 51 LINE"
);
}
);
width = 1126;
},
{
layerId = "963BFE9B-9129-4C18-A3F3-46AD815B745B";
paths = (
{
closed = 1;
nodes = (
"323 715 LINE",
"968 715 LINE",
"968 819 LINE",
"323 819 LINE",
"323 1356 LINE",
"1007 1356 LINE",
"1007 1462 LINE",
"204 1462 LINE",
"204 0 LINE",
"1007 0 LINE",
"1007 106 LINE",
"323 106 LINE"
);
}
);
width = 1132;
},
{
layerId = "A10A3B8F-5047-4E3E-80F3-6554B53DC79D";
paths = (
{
closed = 1;
nodes = (
"978 844 LINE",
"382 844 LINE",
"382 1300 LINE",
"1015 1300 LINE",
"1015 1462 LINE",
"198 1462 LINE",
"198 0 LINE",
"1015 0 LINE",
"1015 162 LINE",
"382 162 LINE",
"382 684 LINE",
"978 684 LINE"
);
}
);
userData = {
assembly = "NPUSHB[ ]	/* 38 values pushed */\0120 4 0 5 0 4 5 103 0 3 3 2 95 0 2 2 31 77 0 0 0 1 95 0 1 1 32 1 78 17 17 17 17 17 16 6 8 28 \012CALL[ ]	/* CallFunction */";
};
width = 1138;
},
{
layerId = "742C6D49-27A7-4CE6-BB95-CE3E85DCFAA1";
paths = (
{
closed = 1;
nodes = (
"493 633 LINE",
"989 633 LINE",
"989 887 LINE",
"493 887 LINE",
"493 1208 LINE",
"1026 1208 LINE",
"1026 1462 LINE",
"184 1462 LINE",
"184 0 LINE",
"1026 0 LINE",
"1026 256 LINE",
"493 256 LINE"
);
}
);
width = 1146;
},
{
layerId = "1AE80326-82F5-491E-9ED8-F639C1D819D6";
paths = (
{
closed = 1;
nodes = (
"552 598 LINE",
"991 598 LINE",
"991 915 LINE",
"552 915 LINE",
"552 1145 LINE",
"1025 1145 LINE",
"1025 1462 LINE",
"157 1462 LINE",
"157 0 LINE",
"1025 0 LINE",
"1025 322 LINE",
"552 322 LINE"
);
}
);
width = 1124;
}
);
note = E;
unicode = 0045;
},
{
glyphname = F;
lastChange = "2021-05-21 12:45:20 +0000";
layers = (
{
layerId = "89D8C5C7-992A-4B79-A2F2-D8D3CE0BA992";
paths = (
{
closed = 1;
nodes = (
"962 725 LINE",
"263 725 LINE",
"263 1411 LINE",
"1001 1411 LINE",
"1001 1462 LINE",
"210 1462 LINE",
"210 0 LINE",
"263 0 LINE",
"263 674 LINE",
"962 674 LINE"
);
}
);
width = 1007;
},
{
layerId = "963BFE9B-9129-4C18-A3F3-46AD815B745B";
paths = (
{
closed = 1;
nodes = (
"970 754 LINE",
"323 754 LINE",
"323 1356 LINE",
"1007 1356 LINE",
"1007 1462 LINE",
"204 1462 LINE",
"204 0 LINE",
"323 0 LINE",
"323 647 LINE",
"970 647 LINE"
);
}
);
width = 1036;
},
{
layerId = "A10A3B8F-5047-4E3E-80F3-6554B53DC79D";
paths = (
{
closed = 1;
nodes = (
"382 1300 LINE",
"1015 1300 LINE",
"1015 1462 LINE",
"198 1462 LINE",
"198 0 LINE",
"382 0 LINE",
"382 621 LINE",
"976 621 LINE",
"976 782 LINE",
"382 782 LINE"
);
}
);
userData = {
assembly = "NPUSHB[ ]	/* 32 values pushed */\0120 4 0 0 1 4 0 103 0 3 3 2 95 0 2 2 31 77 0 1 1 32 1 78 17 17 17 17 16 5 8 27 \012CALL[ ]	/* CallFunction */";
};
width = 1062;
},
{
layerId = "742C6D49-27A7-4CE6-BB95-CE3E85DCFAA1";
paths = (
{
closed = 1;
nodes = (
"985 831 LINE",
"489 831 LINE",
"489 1208 LINE",
"1022 1208 LINE",
"1022 1462 LINE",
"184 1462 LINE",
"184 0 LINE",
"489 0 LINE",
"489 578 LINE",
"985 578 LINE"
);
}
);
width = 1124;
},
{
layerId = "1AE80326-82F5-491E-9ED8-F639C1D819D6";
paths = (
{
closed = 1;
nodes = (
"984 866 LINE",
"546 866 LINE",
"546 1145 LINE",
"1021 1145 LINE",
"1021 1462 LINE",
"157 1462 LINE",
"157 0 LINE",
"546 0 LINE",
"546 549 LINE",
"984 549 LINE"
);
}
);
width = 1103;
}
);
note = F;
unicode = 0046;
},
{
glyphname = G;
lastChange = "2021-05-21 12:45:20 +0000";
layers = (
{
layerId = "89D8C5C7-992A-4B79-A2F2-D8D3CE0BA992";
paths = (
{
closed = 1;
nodes = (
"1255 102 LINE",
"1150 59 OFFCURVE",
"1017 31 OFFCURVE",
"858 31 CURVE SMOOTH",
"585 31 OFFCURVE",
"378 123 OFFCURVE",
"267 328 CURVE SMOOTH",
"212 430 OFFCURVE",
"184 564 OFFCURVE",
"184 729 CURVE SMOOTH",
"184 1000 OFFCURVE",
"297 1220 OFFCURVE",
"502 1344 CURVE SMOOTH",
"604 1405 OFFCURVE",
"725 1436 OFFCURVE",
"866 1436 CURVE SMOOTH",
"998 1436 OFFCURVE",
"1128 1414 OFFCURVE",
"1268 1346 CURVE",
"1292 1397 LINE",
"1164 1460 OFFCURVE",
"1024 1487 OFFCURVE",
"868 1487 CURVE SMOOTH",
"563 1487 OFFCURVE",
"337 1343 OFFCURVE",
"218 1114 CURVE SMOOTH",
"159 999 OFFCURVE",
"129 870 OFFCURVE",
"129 727 CURVE SMOOTH",
"129 250 OFFCURVE",
"382 -20 OFFCURVE",
"854 -20 CURVE SMOOTH",
"1015 -20 OFFCURVE",
"1177 11 OFFCURVE",
"1309 74 CURVE",
"1309 717 LINE",
"752 717 LINE",
"752 666 LINE",
"1255 666 LINE"
);
}
);
width = 1474;
},
{
layerId = "963BFE9B-9129-4C18-A3F3-46AD815B745B";
paths = (
{
closed = 1;
nodes = (
"1203 137 LINE",
"1114 108 OFFCURVE",
"1006 84 OFFCURVE",
"863 84 CURVE SMOOTH",
"462 84 OFFCURVE",
"249 309 OFFCURVE",
"249 729 CURVE SMOOTH",
"249 986 OFFCURVE",
"352 1187 OFFCURVE",
"537 1296 CURVE SMOOTH",
"629 1351 OFFCURVE",
"739 1378 OFFCURVE",
"867 1378 CURVE SMOOTH",
"1002 1378 OFFCURVE",
"1132 1349 OFFCURVE",
"1256 1290 CURVE",
"1306 1397 LINE",
"1179 1454 OFFCURVE",
"1033 1485 OFFCURVE",
"876 1485 CURVE SMOOTH",
"561 1485 OFFCURVE",
"334 1349 OFFCURVE",
"215 1121 CURVE SMOOTH",
"156 1007 OFFCURVE",
"126 876 OFFCURVE",
"126 729 CURVE SMOOTH",
"126 260 OFFCURVE",
"375 -20 OFFCURVE",
"839 -20 CURVE SMOOTH",
"1024 -20 OFFCURVE",
"1181 9 OFFCURVE",
"1322 66 CURVE",
"1322 745 LINE",
"792 745 LINE",
"792 637 LINE",
"1203 637 LINE"
);
}
);
width = 1482;
},
{
layerId = "A10A3B8F-5047-4E3E-80F3-6554B53DC79D";
paths = (
{
closed = 1;
nodes = (
"1081 155 OFFCURVE",
"996 139 OFFCURVE",
"867 139 CURVE SMOOTH",
"606 139 OFFCURVE",
"448 244 OFFCURVE",
"373 423 CURVE SMOOTH",
"336 512 OFFCURVE",
"317 615 OFFCURVE",
"317 731 CURVE SMOOTH",
"317 1095 OFFCURVE",
"521 1321 OFFCURVE",
"872 1321 CURVE SMOOTH",
"1011 1321 OFFCURVE",
"1145 1281 OFFCURVE",
"1248 1237 CURVE",
"1318 1397 LINE",
"1193 1452 OFFCURVE",
"1046 1483 OFFCURVE",
"882 1483 CURVE SMOOTH",
"562 1483 OFFCURVE",
"332 1352 OFFCURVE",
"213 1127 CURVE SMOOTH",
"154 1014 OFFCURVE",
"124 882 OFFCURVE",
"124 731 CURVE SMOOTH",
"124 423 OFFCURVE",
"234 192 OFFCURVE",
"442 71 CURVE SMOOTH",
"545 10 OFFCURVE",
"673 -20 OFFCURVE",
"824 -20 CURVE SMOOTH",
"1029 -20 OFFCURVE",
"1181 3 OFFCURVE",
"1338 55 CURVE",
"1338 772 LINE",
"833 772 LINE",
"833 608 LINE",
"1154 608 LINE",
"1154 174 LINE"
);
}
);
userData = {
assembly = "NPUSHB[ ]	/* 62 values pushed */\01217 1 3 2 18 1 0 3 31 1 4 5 3 1 1 4 4 76 0 0 6 1 5 4 0 5 103 0 3 3 2 97 0 2 2 37 77 0 4 4 1 97 0 1 1 38 1 78 0 0 0 32 0 32 37 37 38 35 17 7 8 27 \012CALL[ ]	/* CallFunction */";
};
width = 1490;
},
{
layerId = "742C6D49-27A7-4CE6-BB95-CE3E85DCFAA1";
paths = (
{
closed = 1;
nodes = (
"1015 258 LINE",
"960 247 OFFCURVE",
"906 238 OFFCURVE",
"818 238 CURVE SMOOTH",
"638 238 OFFCURVE",
"528 325 OFFCURVE",
"476 473 CURVE SMOOTH",
"450 547 OFFCURVE",
"437 632 OFFCURVE",
"437 727 CURVE SMOOTH",
"437 927 OFFCURVE",
"513 1082 OFFCURVE",
"646 1164 CURVE SMOOTH",
"712 1205 OFFCURVE",
"790 1225 OFFCURVE",
"880 1225 CURVE SMOOTH",
"1005 1225 OFFCURVE",
"1123 1192 OFFCURVE",
"1214 1145 CURVE",
"1316 1393 LINE",
"1193 1448 OFFCURVE",
"1038 1483 OFFCURVE",
"882 1483 CURVE SMOOTH",
"554 1483 OFFCURVE",
"323 1354 OFFCURVE",
"206 1131 CURVE SMOOTH",
"147 1019 OFFCURVE",
"118 886 OFFCURVE",
"118 733 CURVE SMOOTH",
"118 242 OFFCURVE",
"361 -20 OFFCURVE",
"798 -20 CURVE SMOOTH",
"1006 -20 OFFCURVE",
"1165 12 OFFCURVE",
"1318 63 CURVE",
"1318 821 LINE",
"739 821 LINE",
"739 563 LINE",
"1015 563 LINE"
);
}
);
width = 1482;
},
{
layerId = "1AE80326-82F5-491E-9ED8-F639C1D819D6";
paths = (
{
closed = 1;
nodes = (
"1005 322 LINE",
"969 313 OFFCURVE",
"890 305 OFFCURVE",
"843 305 CURVE SMOOTH",
"631 305 OFFCURVE",
"512 452 OFFCURVE",
"512 725 CURVE SMOOTH",
"512 884 OFFCURVE",
"556 1020 OFFCURVE",
"663 1100 CURVE SMOOTH",
"716 1139 OFFCURVE",
"787 1159 OFFCURVE",
"874 1159 CURVE SMOOTH",
"1002 1159 OFFCURVE",
"1116 1133 OFFCURVE",
"1220 1081 CURVE",
"1345 1391 LINE",
"1225 1443 OFFCURVE",
"1055 1483 OFFCURVE",
"872 1483 CURVE SMOOTH",
"539 1483 OFFCURVE",
"309 1356 OFFCURVE",
"192 1133 CURVE SMOOTH",
"133 1021 OFFCURVE",
"104 888 OFFCURVE",
"104 735 CURVE SMOOTH",
"104 394 OFFCURVE",
"229 170 OFFCURVE",
"441 62 CURVE SMOOTH",
"547 7 OFFCURVE",
"670 -20 OFFCURVE",
"811 -20 CURVE SMOOTH",
"1023 -20 OFFCURVE",
"1223 16 OFFCURVE",
"1376 68 CURVE",
"1376 856 LINE",
"745 856 LINE",
"745 551 LINE",
"1005 551 LINE"
);
}
);
width = 1515;
}
);
note = G;
unicode = 0047;
},
{
glyphname = H;
lastChange = "2021-05-21 12:45:20 +0000";
layers = (
{
layerId = "89D8C5C7-992A-4B79-A2F2-D8D3CE0BA992";
paths = (
{
closed = 1;
nodes = (
"1181 795 LINE",
"263 795 LINE",
"263 1462 LINE",
"210 1462 LINE",
"210 0 LINE",
"263 0 LINE",
"263 743 LINE",
"1181 743 LINE",
"1181 0 LINE",
"1234 0 LINE",
"1234 1462 LINE",
"1181 1462 LINE"
);
}
);
width = 1445;
},
{
layerId = "963BFE9B-9129-4C18-A3F3-46AD815B745B";
paths = (
{
closed = 1;
nodes = (
"1156 819 LINE",
"323 819 LINE",
"323 1462 LINE",
"204 1462 LINE",
"204 0 LINE",
"323 0 LINE",
"323 713 LINE",
"1156 713 LINE",
"1156 0 LINE",
"1275 0 LINE",
"1275 1462 LINE",
"1156 1462 LINE"
);
}
);
width = 1482;
},
{
layerId = "A10A3B8F-5047-4E3E-80F3-6554B53DC79D";
paths = (
{
closed = 1;
nodes = (
"382 1462 LINE",
"198 1462 LINE",
"198 0 LINE",
"382 0 LINE",
"382 682 LINE",
"1132 682 LINE",
"1132 0 LINE",
"1316 0 LINE",
"1316 1462 LINE",
"1132 1462 LINE",
"1132 844 LINE",
"382 844 LINE"
);
}
);
userData = {
assembly = "NPUSHB[ ]	/* 30 values pushed */\0120 5 0 2 1 5 2 103 4 1 0 0 31 77 3 1 1 1 32 1 78 17 17 17 17 17 16 6 8 28 \012CALL[ ]	/* CallFunction */";
};
width = 1517;
},
{
layerId = "742C6D49-27A7-4CE6-BB95-CE3E85DCFAA1";
paths = (
{
closed = 1;
nodes = (
"1073 889 LINE",
"493 889 LINE",
"493 1462 LINE",
"184 1462 LINE",
"184 0 LINE",
"493 0 LINE",
"493 631 LINE",
"1073 631 LINE",
"1073 0 LINE",
"1382 0 LINE",
"1382 1462 LINE",
"1073 1462 LINE"
);
}
);
width = 1566;
},
{
layerId = "1AE80326-82F5-491E-9ED8-F639C1D819D6";
paths = (
{
closed = 1;
nodes = (
"1013 920 LINE",
"554 920 LINE",
"554 1462 LINE",
"157 1462 LINE",
"157 0 LINE",
"554 0 LINE",
"554 596 LINE",
"1013 596 LINE",
"1013 0 LINE",
"1410 0 LINE",
"1410 1462 LINE",
"1013 1462 LINE"
);
}
);
width = 1568;
}
);
note = H;
unicode = 0048;
},
{
glyphname = I;
lastChange = "2021-05-21 12:45:20 +0000";
layers = (
{
layerId = "89D8C5C7-992A-4B79-A2F2-D8D3CE0BA992";
paths = (
{
closed = 1;
nodes = (
"317 1413 LINE",
"456 1421 LINE",
"456 1462 LINE",
"124 1462 LINE",
"124 1421 LINE",
"263 1413 LINE",
"263 47 LINE",
"124 41 LINE",
"124 0 LINE",
"456 0 LINE",
"456 41 LINE",
"317 47 LINE"
);
}
);
width = 579;
},
{
layerId = "963BFE9B-9129-4C18-A3F3-46AD815B745B";
paths = (
{
closed = 1;
nodes = (
"376 1364 LINE",
"532 1389 LINE",
"532 1462 LINE",
"102 1462 LINE",
"102 1389 LINE",
"258 1364 LINE",
"258 96 LINE",
"102 74 LINE",
"102 0 LINE",
"532 0 LINE",
"532 74 LINE",
"376 96 LINE"
);
}
);
width = 636;
},
{
layerId = "A10A3B8F-5047-4E3E-80F3-6554B53DC79D";
paths = (
{
closed = 1;
nodes = (
"609 1462 LINE",
"81 1462 LINE",
"81 1356 LINE",
"253 1315 LINE",
"253 145 LINE",
"81 106 LINE",
"81 0 LINE",
"609 0 LINE",
"609 106 LINE",
"437 145 LINE",
"437 1315 LINE",
"609 1356 LINE"
);
}
);
userData = {
assembly = "NPUSHB[ ]	/* 29 values pushed */\01211 10 7 6 5 4 1 0 8 0 1 1 76 0 1 1 31 77 0 0 0 32 0 78 21 18 2 8 24 \012CALL[ ]	/* CallFunction */";
};
width = 694;
},
{
layerId = "742C6D49-27A7-4CE6-BB95-CE3E85DCFAA1";
paths = (
{
closed = 1;
nodes = (
"552 1204 LINE",
"731 1286 LINE",
"731 1462 LINE",
"65 1462 LINE",
"65 1286 LINE",
"243 1204 LINE",
"243 258 LINE",
"65 176 LINE",
"65 0 LINE",
"731 0 LINE",
"731 176 LINE",
"552 258 LINE"
);
}
);
width = 796;
},
{
layerId = "1AE80326-82F5-491E-9ED8-F639C1D819D6";
paths = (
{
closed = 1;
nodes = (
"649 1169 LINE",
"831 1237 LINE",
"831 1462 LINE",
"69 1462 LINE",
"69 1237 LINE",
"251 1169 LINE",
"251 295 LINE",
"69 225 LINE",
"69 0 LINE",
"831 0 LINE",
"831 225 LINE",
"649 295 LINE"
);
}
);
width = 901;
}
);
note = I;
unicode = 0049;
},
{
glyphname = J;
lastChange = "2021-05-21 12:45:20 +0000";
layers = (
{
layerId = "89D8C5C7-992A-4B79-A2F2-D8D3CE0BA992";
paths = (
{
closed = 1;
nodes = (
"114 -356 OFFCURVE",
"202 -287 OFFCURVE",
"242 -179 CURVE SMOOTH",
"261 -125 OFFCURVE",
"271 -64 OFFCURVE",
"271 4 CURVE SMOOTH",
"271 1462 LINE",
"218 1462 LINE",
"218 10 LINE SMOOTH",
"218 -175 OFFCURVE",
"158 -303 OFFCURVE",
"-38 -303 CURVE SMOOTH",
"-101 -303 OFFCURVE",
"-161 -291 OFFCURVE",
"-200 -274 CURVE",
"-200 -332 LINE",
"-164 -343 OFFCURVE",
"-115 -356 OFFCURVE",
"-38 -356 CURVE SMOOTH"
);
}
);
width = 473;
},
{
layerId = "963BFE9B-9129-4C18-A3F3-46AD815B745B";
paths = (
{
closed = 1;
nodes = (
"205 -373 OFFCURVE",
"322 -228 OFFCURVE",
"322 12 CURVE SMOOTH",
"322 1462 LINE",
"203 1462 LINE",
"203 8 LINE SMOOTH",
"203 -175 OFFCURVE",
"127 -266 OFFCURVE",
"-26 -266 CURVE SMOOTH",
"-86 -266 OFFCURVE",
"-139 -253 OFFCURVE",
"-180 -242 CURVE",
"-180 -348 LINE",
"-141 -359 OFFCURVE",
"-96 -373 OFFCURVE",
"-24 -373 CURVE SMOOTH"
);
}
);
width = 516;
},
{
layerId = "A10A3B8F-5047-4E3E-80F3-6554B53DC79D";
paths = (
{
closed = 1;
nodes = (
"222 -389 OFFCURVE",
"373 -258 OFFCURVE",
"373 23 CURVE SMOOTH",
"373 1462 LINE",
"189 1462 LINE",
"189 8 LINE SMOOTH",
"189 -117 OFFCURVE",
"147 -179 OFFCURVE",
"86 -207 CURVE SMOOTH",
"55 -220 OFFCURVE",
"23 -227 OFFCURVE",
"-12 -227 CURVE SMOOTH",
"-67 -227 OFFCURVE",
"-115 -220 OFFCURVE",
"-159 -207 CURVE",
"-159 -362 LINE",
"-120 -379 OFFCURVE",
"-74 -389 OFFCURVE",
"-7 -389 CURVE SMOOTH"
);
}
);
userData = {
assembly = "NPUSHB[ ]	/* 37 values pushed */\0124 1 1 2 3 1 0 1 2 76 0 1 3 1 0 1 0 101 0 2 2 31 2 78 1 0 13 12 8 6 0 16 1 16 4 8 22 \012CALL[ ]	/* CallFunction */";
};
width = 559;
},
{
layerId = "742C6D49-27A7-4CE6-BB95-CE3E85DCFAA1";
paths = (
{
closed = 1;
nodes = (
"214 -430 OFFCURVE",
"358 -365 OFFCURVE",
"436 -210 CURVE SMOOTH",
"475 -133 OFFCURVE",
"494 -31 OFFCURVE",
"494 94 CURVE SMOOTH",
"494 1462 LINE",
"185 1462 LINE",
"185 92 LINE SMOOTH",
"185 -52 OFFCURVE",
"151 -122 OFFCURVE",
"92 -150 CURVE SMOOTH",
"63 -163 OFFCURVE",
"30 -170 OFFCURVE",
"-6 -170 CURVE SMOOTH",
"-61 -170 OFFCURVE",
"-107 -161 OFFCURVE",
"-151 -150 CURVE",
"-151 -408 LINE",
"-107 -421 OFFCURVE",
"-48 -430 OFFCURVE",
"31 -430 CURVE SMOOTH"
);
}
);
width = 677;
},
{
layerId = "1AE80326-82F5-491E-9ED8-F639C1D819D6";
paths = (
{
closed = 1;
nodes = (
"248 -459 OFFCURVE",
"409 -386 OFFCURVE",
"498 -210 CURVE SMOOTH",
"542 -122 OFFCURVE",
"564 -4 OFFCURVE",
"564 143 CURVE SMOOTH",
"564 1462 LINE",
"167 1462 LINE",
"167 109 LINE SMOOTH",
"167 -67 OFFCURVE",
"127 -152 OFFCURVE",
"-16 -152 CURVE SMOOTH",
"-43 -152 OFFCURVE",
"-69 -150 OFFCURVE",
"-93 -145 CURVE SMOOTH",
"-116 -140 OFFCURVE",
"-139 -135 OFFCURVE",
"-161 -131 CURVE",
"-161 -438 LINE",
"-112 -449 OFFCURVE",
"-47 -459 OFFCURVE",
"44 -459 CURVE SMOOTH"
);
}
);
width = 720;
}
);
note = J;
unicode = 004A;
},
{
glyphname = K;
lastChange = "2021-05-21 12:45:20 +0000";
layers = (
{
layerId = "89D8C5C7-992A-4B79-A2F2-D8D3CE0BA992";
paths = (
{
closed = 1;
nodes = (
"1052 1462 LINE",
"366 770 LINE SMOOTH",
"348 751 OFFCURVE",
"330 733 OFFCURVE",
"313 716 CURVE SMOOTH",
"295 699 OFFCURVE",
"278 681 OFFCURVE",
"263 664 CURVE",
"263 1462 LINE",
"210 1462 LINE",
"210 0 LINE",
"263 0 LINE",
"263 600 LINE",
"478 815 LINE",
"1072 0 LINE",
"1142 0 LINE",
"519 854 LINE",
"1130 1462 LINE"
);
}
);
width = 1142;
},
{
layerId = "963BFE9B-9129-4C18-A3F3-46AD815B745B";
paths = (
{
closed = 1;
nodes = (
"1040 1462 LINE",
"499 895 LINE SMOOTH",
"469 862 OFFCURVE",
"439 830 OFFCURVE",
"409 798 CURVE SMOOTH",
"379 766 OFFCURVE",
"350 734 OFFCURVE",
"323 702 CURVE",
"323 1462 LINE",
"204 1462 LINE",
"204 0 LINE",
"323 0 LINE",
"323 584 LINE",
"505 758 LINE",
"1060 0 LINE",
"1203 0 LINE",
"593 840 LINE",
"1187 1462 LINE"
);
}
);
width = 1204;
},
{
layerId = "A10A3B8F-5047-4E3E-80F3-6554B53DC79D";
paths = (
{
closed = 1;
nodes = (
"634 1020 LINE SMOOTH",
"592 973 OFFCURVE",
"550 927 OFFCURVE",
"508 881 CURVE SMOOTH",
"465 834 OFFCURVE",
"423 788 OFFCURVE",
"382 741 CURVE",
"382 1462 LINE",
"198 1462 LINE",
"198 0 LINE",
"382 0 LINE",
"382 567 LINE",
"532 698 LINE",
"1050 0 LINE",
"1267 0 LINE",
"665 825 LINE",
"1245 1462 LINE",
"1029 1462 LINE"
);
}
);
userData = {
assembly = "NPUSHB[ ]	/* 28 values pushed */\0129 4 3 3 0 2 1 76 3 1 2 2 31 77 1 1 0 0 32 0 78 21 17 19 17 4 8 26 \012CALL[ ]	/* CallFunction */";
};
width = 1267;
},
{
layerId = "742C6D49-27A7-4CE6-BB95-CE3E85DCFAA1";
paths = (
{
closed = 1;
nodes = (
"1011 1462 LINE",
"616 965 LINE",
"595 936 OFFCURVE",
"575 908 OFFCURVE",
"555 879 CURVE SMOOTH",
"493 793 LINE",
"493 1462 LINE",
"184 1462 LINE",
"184 0 LINE",
"493 0 LINE",
"493 522 LINE",
"624 616 LINE",
"1007 0 LINE",
"1360 0 LINE",
"846 815 LINE",
"1355 1462 LINE"
);
}
);
width = 1359;
},
{
layerId = "1AE80326-82F5-491E-9ED8-F639C1D819D6";
paths = (
{
closed = 1;
nodes = (
"982 1462 LINE",
"675 1014 LINE SMOOTH",
"634 957 OFFCURVE",
"587 890 OFFCURVE",
"554 827 CURVE",
"554 1462 LINE",
"157 1462 LINE",
"157 0 LINE",
"554 0 LINE",
"554 489 LINE",
"671 559 LINE",
"960 0 LINE",
"1406 0 LINE",
"954 807 LINE",
"1414 1462 LINE"
);
}
);
width = 1406;
}
);
note = K;
unicode = 004B;
},
{
glyphname = L;
lastChange = "2021-05-21 12:45:20 +0000";
layers = (
{
layerId = "89D8C5C7-992A-4B79-A2F2-D8D3CE0BA992";
paths = (
{
closed = 1;
nodes = (
"263 51 LINE",
"263 1462 LINE",
"210 1462 LINE",
"210 0 LINE",
"994 0 LINE",
"994 51 LINE"
);
}
);
width = 1036;
},
{
layerId = "963BFE9B-9129-4C18-A3F3-46AD815B745B";
paths = (
{
closed = 1;
nodes = (
"323 106 LINE",
"323 1462 LINE",
"204 1462 LINE",
"204 0 LINE",
"1007 0 LINE",
"1007 106 LINE"
);
}
);
width = 1054;
},
{
layerId = "A10A3B8F-5047-4E3E-80F3-6554B53DC79D";
paths = (
{
closed = 1;
nodes = (
"198 1462 LINE",
"198 0 LINE",
"1021 0 LINE",
"1021 164 LINE",
"382 164 LINE",
"382 1462 LINE"
);
}
);
userData = {
assembly = "NPUSHB[ ]	/* 28 values pushed */\0120 1 1 31 77 3 1 2 2 0 96 0 0 0 32 0 78 0 0 0 5 0 5 17 17 4 8 24 \012CALL[ ]	/* CallFunction */";
};
width = 1073;
},
{
layerId = "742C6D49-27A7-4CE6-BB95-CE3E85DCFAA1";
paths = (
{
closed = 1;
nodes = (
"493 256 LINE",
"493 1462 LINE",
"184 1462 LINE",
"184 0 LINE",
"1087 0 LINE",
"1087 256 LINE"
);
}
);
width = 1157;
},
{
layerId = "1AE80326-82F5-491E-9ED8-F639C1D819D6";
paths = (
{
closed = 1;
nodes = (
"552 319 LINE",
"552 1462 LINE",
"157 1462 LINE",
"157 0 LINE",
"1115 0 LINE",
"1115 319 LINE"
);
}
);
width = 1191;
}
);
note = L;
unicode = 004C;
},
{
glyphname = M;
lastChange = "2021-05-21 12:45:20 +0000";
layers = (
{
layerId = "89D8C5C7-992A-4B79-A2F2-D8D3CE0BA992";
paths = (
{
closed = 1;
nodes = (
"1449 1389 LINE",
"1448 1354 OFFCURVE",
"1447 1325 OFFCURVE",
"1447 1301 CURVE SMOOTH",
"1447 1233 LINE",
"1447 0 LINE",
"1500 0 LINE",
"1500 1462 LINE",
"1418 1462 LINE",
"859 98 LINE",
"853 98 LINE",
"296 1462 LINE",
"210 1462 LINE",
"210 0 LINE",
"263 0 LINE",
"263 1221 LINE",
"263 1303 LINE SMOOTH",
"263 1327 OFFCURVE",
"262 1356 OFFCURVE",
"261 1391 CURVE",
"265 1391 LINE",
"835 0 LINE",
"876 0 LINE",
"1445 1389 LINE"
);
}
);
width = 1714;
},
{
layerId = "963BFE9B-9129-4C18-A3F3-46AD815B745B";
paths = (
{
closed = 1;
nodes = (
"1470 1335 LINE",
"1465 1259 OFFCURVE",
"1461 1158 OFFCURVE",
"1461 1065 CURVE SMOOTH",
"1461 0 LINE",
"1580 0 LINE",
"1580 1462 LINE",
"1404 1462 LINE",
"894 180 LINE",
"888 180 LINE",
"384 1462 LINE",
"204 1462 LINE",
"204 0 LINE",
"315 0 LINE",
"315 1053 LINE SMOOTH",
"315 1162 OFFCURVE",
"311 1262 OFFCURVE",
"306 1335 CURVE",
"315 1335 LINE",
"839 0 LINE",
"935 0 LINE",
"1464 1335 LINE"
);
}
);
width = 1785;
},
{
layerId = "A10A3B8F-5047-4E3E-80F3-6554B53DC79D";
paths = (
{
closed = 1;
nodes = (
"1485 1192 OFFCURVE",
"1476 1042 OFFCURVE",
"1476 899 CURVE SMOOTH",
"1476 0 LINE",
"1658 0 LINE",
"1658 1462 LINE",
"1388 1462 LINE",
"929 264 LINE",
"921 264 LINE",
"470 1462 LINE",
"198 1462 LINE",
"198 0 LINE",
"368 0 LINE",
"368 887 LINE SMOOTH",
"368 1043 OFFCURVE",
"362 1198 OFFCURVE",
"354 1282 CURVE",
"362 1282 LINE",
"843 0 LINE",
"995 0 LINE",
"1482 1280 LINE",
"1490 1280 LINE"
);
}
);
userData = {
assembly = "NPUSHB[ ]	/* 30 values pushed */\01220 11 2 3 0 2 1 76 3 1 2 2 31 77 4 1 2 0 0 32 0 78 17 19 17 22 16 5 8 27 \012CALL[ ]	/* CallFunction */";
};
width = 1857;
},
{
layerId = "742C6D49-27A7-4CE6-BB95-CE3E85DCFAA1";
paths = (
{
closed = 1;
nodes = (
"1472 1145 LINE",
"1469 1090 OFFCURVE",
"1465 972 OFFCURVE",
"1461 852 CURVE SMOOTH",
"1459 792 OFFCURVE",
"1458 739 OFFCURVE",
"1458 692 CURVE SMOOTH",
"1458 0 LINE",
"1747 0 LINE",
"1747 1462 LINE",
"1325 1462 LINE",
"958 344 LINE",
"952 344 LINE",
"606 1462 LINE",
"184 1462 LINE",
"184 0 LINE",
"460 0 LINE",
"460 680 LINE SMOOTH",
"460 779 OFFCURVE",
"453 915 OFFCURVE",
"448 1024 CURVE SMOOTH",
"445 1079 OFFCURVE",
"443 1120 OFFCURVE",
"442 1147 CURVE",
"450 1147 LINE",
"802 0 LINE",
"1087 0 LINE",
"1464 1145 LINE"
);
}
);
width = 1931;
},
{
layerId = "1AE80326-82F5-491E-9ED8-F639C1D819D6";
paths = (
{
closed = 1;
nodes = (
"1474 1051 LINE",
"1469 996 OFFCURVE",
"1465 895 OFFCURVE",
"1462 789 CURVE SMOOTH",
"1461 736 OFFCURVE",
"1460 686 OFFCURVE",
"1460 641 CURVE SMOOTH",
"1460 0 LINE",
"1822 0 LINE",
"1822 1462 LINE",
"1296 1462 LINE",
"997 424 LINE",
"988 424 LINE",
"683 1462 LINE",
"157 1462 LINE",
"157 0 LINE",
"507 0 LINE",
"507 635 LINE SMOOTH",
"507 734 OFFCURVE",
"500 849 OFFCURVE",
"495 942 CURVE SMOOTH",
"492 989 OFFCURVE",
"490 1026 OFFCURVE",
"487 1053 CURVE",
"495 1053 LINE",
"794 0 LINE",
"1171 0 LINE",
"1466 1051 LINE"
);
}
);
width = 1980;
}
);
note = M;
unicode = 004D;
},
{
glyphname = N;
lastChange = "2021-05-21 12:45:20 +0000";
layers = (
{
layerId = "89D8C5C7-992A-4B79-A2F2-D8D3CE0BA992";
paths = (
{
closed = 1;
nodes = (
"1162 432 LINE",
"1162 281 LINE SMOOTH",
"1162 228 OFFCURVE",
"1163 176 OFFCURVE",
"1164 125 CURVE",
"1160 125 LINE",
"251 1462 LINE",
"210 1462 LINE",
"210 0 LINE",
"263 0 LINE",
"263 1028 LINE",
"263 1182 LINE SMOOTH",
"263 1229 OFFCURVE",
"262 1282 OFFCURVE",
"261 1341 CURVE",
"265 1341 LINE",
"1177 0 LINE",
"1216 0 LINE",
"1216 1462 LINE",
"1162 1462 LINE"
);
}
);
width = 1429;
},
{
layerId = "963BFE9B-9129-4C18-A3F3-46AD815B745B";
paths = (
{
closed = 1;
nodes = (
"1175 535 LINE SMOOTH",
"1175 423 OFFCURVE",
"1178 273 OFFCURVE",
"1183 188 CURVE",
"1175 188 LINE",
"331 1462 LINE",
"204 1462 LINE",
"204 0 LINE",
"315 0 LINE",
"315 922 LINE SMOOTH",
"315 1053 OFFCURVE",
"311 1171 OFFCURVE",
"306 1278 CURVE",
"313 1278 LINE",
"1158 0 LINE",
"1285 0 LINE",
"1285 1462 LINE",
"1175 1462 LINE"
);
}
);
width = 1492;
},
{
layerId = "A10A3B8F-5047-4E3E-80F3-6554B53DC79D";
paths = (
{
closed = 1;
nodes = (
"1185 546 OFFCURVE",
"1190 438 OFFCURVE",
"1194 351 CURVE SMOOTH",
"1199 252 LINE",
"1191 252 LINE",
"411 1462 LINE",
"198 1462 LINE",
"198 0 LINE",
"368 0 LINE",
"368 817 LINE SMOOTH",
"368 892 OFFCURVE",
"366 966 OFFCURVE",
"362 1037 CURVE SMOOTH",
"358 1108 OFFCURVE",
"355 1167 OFFCURVE",
"352 1214 CURVE",
"360 1214 LINE",
"1142 0 LINE",
"1357 0 LINE",
"1357 1462 LINE",
"1185 1462 LINE",
"1185 637 LINE SMOOTH"
);
}
);
userData = {
assembly = "NPUSHB[ ]	/* 32 values pushed */\0123 1 0 2 1 76 4 3 2 2 2 31 77 1 1 0 0 32 0 78 0 0 0 18 0 18 17 22 17 5 8 25 \012CALL[ ]	/* CallFunction */";
};
width = 1556;
},
{
layerId = "742C6D49-27A7-4CE6-BB95-CE3E85DCFAA1";
paths = (
{
closed = 1;
nodes = (
"1202 770 LINE SMOOTH",
"1205 634 OFFCURVE",
"1211 500 OFFCURVE",
"1216 367 CURVE",
"1210 367 LINE",
"575 1462 LINE",
"184 1462 LINE",
"184 0 LINE",
"460 0 LINE",
"460 688 LINE",
"457 758 OFFCURVE",
"454 828 OFFCURVE",
"451 897 CURVE SMOOTH",
"442 1106 LINE",
"450 1106 LINE",
"1087 0 LINE",
"1480 0 LINE",
"1480 1462 LINE",
"1202 1462 LINE"
);
}
);
width = 1665;
},
{
layerId = "1AE80326-82F5-491E-9ED8-F639C1D819D6";
paths = (
{
closed = 1;
nodes = (
"1197 801 LINE SMOOTH",
"1197 733 OFFCURVE",
"1200 646 OFFCURVE",
"1205 572 CURVE SMOOTH",
"1208 511 OFFCURVE",
"1212 447 OFFCURVE",
"1212 446 CURVE",
"1206 446 LINE",
"673 1462 LINE",
"157 1462 LINE",
"157 0 LINE",
"507 0 LINE",
"507 659 LINE SMOOTH",
"507 734 OFFCURVE",
"502 825 OFFCURVE",
"498 901 CURVE SMOOTH",
"495 963 OFFCURVE",
"489 1029 OFFCURVE",
"489 1030 CURVE",
"497 1030 LINE",
"1031 0 LINE",
"1550 0 LINE",
"1550 1462 LINE",
"1197 1462 LINE"
);
}
);
width = 1708;
}
);
note = N;
unicode = 004E;
},
{
glyphname = O;
lastChange = "2021-05-21 12:45:20 +0000";
layers = (
{
layerId = "89D8C5C7-992A-4B79-A2F2-D8D3CE0BA992";
paths = (
{
closed = 1;
nodes = (
"1413 1209 OFFCURVE",
"1186 1485 OFFCURVE",
"782 1485 CURVE SMOOTH",
"503 1485 OFFCURVE",
"306 1351 OFFCURVE",
"205 1124 CURVE SMOOTH",
"154 1011 OFFCURVE",
"129 881 OFFCURVE",
"129 735 CURVE SMOOTH",
"129 440 OFFCURVE",
"225 204 OFFCURVE",
"415 76 CURVE SMOOTH",
"510 12 OFFCURVE",
"628 -20 OFFCURVE",
"770 -20 CURVE SMOOTH",
"1059 -20 OFFCURVE",
"1249 115 OFFCURVE",
"1343 342 CURVE SMOOTH",
"1390 455 OFFCURVE",
"1413 586 OFFCURVE",
"1413 733 CURVE SMOOTH"
);
},
{
closed = 1;
nodes = (
"184 1006 OFFCURVE",
"271 1223 OFFCURVE",
"449 1344 CURVE SMOOTH",
"538 1404 OFFCURVE",
"649 1434 OFFCURVE",
"782 1434 CURVE SMOOTH",
"1151 1434 OFFCURVE",
"1358 1178 OFFCURVE",
"1358 733 CURVE SMOOTH",
"1358 457 OFFCURVE",
"1276 239 OFFCURVE",
"1103 120 CURVE SMOOTH",
"1016 61 OFFCURVE",
"906 31 OFFCURVE",
"772 31 CURVE SMOOTH",
"507 31 OFFCURVE",
"332 160 OFFCURVE",
"248 372 CURVE SMOOTH",
"205 477 OFFCURVE",
"184 598 OFFCURVE",
"184 735 CURVE SMOOTH"
);
}
);
width = 1544;
},
{
layerId = "963BFE9B-9129-4C18-A3F3-46AD815B745B";
paths = (
{
closed = 1;
nodes = (
"1443 1045 OFFCURVE",
"1339 1273 OFFCURVE",
"1147 1394 CURVE SMOOTH",
"1051 1455 OFFCURVE",
"933 1485 OFFCURVE",
"792 1485 CURVE SMOOTH",
"499 1485 OFFCURVE",
"301 1350 OFFCURVE",
"201 1126 CURVE SMOOTH",
"151 1014 OFFCURVE",
"126 884 OFFCURVE",
"126 735 CURVE SMOOTH",
"126 438 OFFCURVE",
"222 202 OFFCURVE",
"418 75 CURVE SMOOTH",
"515 12 OFFCURVE",
"638 -20 OFFCURVE",
"785 -20 CURVE SMOOTH",
"1076 -20 OFFCURVE",
"1270 113 OFFCURVE",
"1369 340 CURVE SMOOTH",
"1418 453 OFFCURVE",
"1443 584 OFFCURVE",
"1443 733 CURVE SMOOTH"
);
},
{
closed = 1;
nodes = (
"251 990 OFFCURVE",
"328 1190 OFFCURVE",
"489 1298 CURVE SMOOTH",
"569 1351 OFFCURVE",
"670 1378 OFFCURVE",
"792 1378 CURVE SMOOTH",
"1141 1378 OFFCURVE",
"1318 1137 OFFCURVE",
"1318 733 CURVE SMOOTH",
"1318 472 OFFCURVE",
"1244 273 OFFCURVE",
"1088 165 CURVE SMOOTH",
"1009 111 OFFCURVE",
"908 84 OFFCURVE",
"785 84 CURVE SMOOTH",
"542 84 OFFCURVE",
"385 197 OFFCURVE",
"309 393 CURVE SMOOTH",
"270 490 OFFCURVE",
"251 604 OFFCURVE",
"251 733 CURVE SMOOTH"
);
}
);
width = 1572;
},
{
layerId = "A10A3B8F-5047-4E3E-80F3-6554B53DC79D";
paths = (
{
closed = 1;
nodes = (
"1474 1037 OFFCURVE",
"1370 1267 OFFCURVE",
"1171 1392 CURVE SMOOTH",
"1071 1454 OFFCURVE",
"948 1485 OFFCURVE",
"802 1485 CURVE SMOOTH",
"497 1485 OFFCURVE",
"296 1352 OFFCURVE",
"198 1127 CURVE SMOOTH",
"149 1014 OFFCURVE",
"124 884 OFFCURVE",
"124 735 CURVE SMOOTH",
"124 432 OFFCURVE",
"221 199 OFFCURVE",
"422 74 CURVE SMOOTH",
"523 11 OFFCURVE",
"649 -20 OFFCURVE",
"800 -20 CURVE SMOOTH",
"1092 -20 OFFCURVE",
"1294 112 OFFCURVE",
"1397 337 CURVE SMOOTH",
"1448 450 OFFCURVE",
"1474 582 OFFCURVE",
"1474 733 CURVE SMOOTH"
);
},
{
closed = 1;
nodes = (
"319 1102 OFFCURVE",
"469 1323 OFFCURVE",
"802 1323 CURVE SMOOTH",
"1133 1323 OFFCURVE",
"1279 1102 OFFCURVE",
"1279 733 CURVE SMOOTH",
"1279 365 OFFCURVE",
"1131 139 OFFCURVE",
"800 139 CURVE SMOOTH",
"469 139 OFFCURVE",
"319 365 OFFCURVE",
"319 733 CURVE SMOOTH"
);
}
);
userData = {
assembly = "NPUSHB[ ]	/* 28 values pushed */\0120 3 3 1 97 0 1 1 37 77 0 2 2 0 97 0 0 0 38 0 78 36 37 38 35 4 8 26 \012CALL[ ]	/* CallFunction */";
};
width = 1599;
},
{
layerId = "742C6D49-27A7-4CE6-BB95-CE3E85DCFAA1";
paths = (
{
closed = 1;
nodes = (
"1511 1037 OFFCURVE",
"1412 1267 OFFCURVE",
"1208 1392 CURVE SMOOTH",
"1105 1454 OFFCURVE",
"975 1485 OFFCURVE",
"816 1485 CURVE SMOOTH",
"497 1485 OFFCURVE",
"293 1354 OFFCURVE",
"193 1131 CURVE SMOOTH",
"143 1019 OFFCURVE",
"118 887 OFFCURVE",
"118 735 CURVE SMOOTH",
"118 432 OFFCURVE",
"217 199 OFFCURVE",
"423 74 CURVE SMOOTH",
"526 11 OFFCURVE",
"656 -20 OFFCURVE",
"814 -20 CURVE SMOOTH",
"1131 -20 OFFCURVE",
"1336 112 OFFCURVE",
"1436 337 CURVE SMOOTH",
"1486 450 OFFCURVE",
"1511 582 OFFCURVE",
"1511 733 CURVE SMOOTH"
);
},
{
closed = 1;
nodes = (
"444 1040 OFFCURVE",
"555 1227 OFFCURVE",
"816 1227 CURVE SMOOTH",
"1079 1227 OFFCURVE",
"1185 1040 OFFCURVE",
"1185 733 CURVE SMOOTH",
"1185 428 OFFCURVE",
"1079 240 OFFCURVE",
"814 240 CURVE SMOOTH",
"555 240 OFFCURVE",
"444 428 OFFCURVE",
"444 733 CURVE SMOOTH"
);
}
);
width = 1630;
},
{
layerId = "1AE80326-82F5-491E-9ED8-F639C1D819D6";
paths = (
{
closed = 1;
nodes = (
"1525 1037 OFFCURVE",
"1432 1267 OFFCURVE",
"1224 1392 CURVE SMOOTH",
"1119 1454 OFFCURVE",
"984 1485 OFFCURVE",
"817 1485 CURVE SMOOTH",
"486 1485 OFFCURVE",
"281 1354 OFFCURVE",
"180 1131 CURVE SMOOTH",
"129 1019 OFFCURVE",
"104 887 OFFCURVE",
"104 735 CURVE SMOOTH",
"104 432 OFFCURVE",
"202 199 OFFCURVE",
"412 74 CURVE SMOOTH",
"517 11 OFFCURVE",
"651 -20 OFFCURVE",
"815 -20 CURVE SMOOTH",
"1148 -20 OFFCURVE",
"1356 112 OFFCURVE",
"1453 337 CURVE SMOOTH",
"1501 450 OFFCURVE",
"1525 582 OFFCURVE",
"1525 733 CURVE SMOOTH"
);
},
{
closed = 1;
nodes = (
"520 998 OFFCURVE",
"601 1161 OFFCURVE",
"817 1161 CURVE SMOOTH",
"1032 1161 OFFCURVE",
"1110 998 OFFCURVE",
"1110 733 CURVE SMOOTH",
"1110 469 OFFCURVE",
"1032 309 OFFCURVE",
"815 309 CURVE SMOOTH",
"604 309 OFFCURVE",
"520 469 OFFCURVE",
"520 733 CURVE SMOOTH"
);
}
);
width = 1632;
}
);
note = O;
unicode = 004F;
},
{
glyphname = P;
lastChange = "2021-05-21 12:45:20 +0000";
layers = (
{
layerId = "89D8C5C7-992A-4B79-A2F2-D8D3CE0BA992";
paths = (
{
closed = 1;
nodes = (
"263 0 LINE",
"263 625 LINE",
"523 625 LINE SMOOTH",
"739 625 OFFCURVE",
"903 679 OFFCURVE",
"991 808 CURVE SMOOTH",
"1034 873 OFFCURVE",
"1056 958 OFFCURVE",
"1056 1063 CURVE SMOOTH",
"1056 1347 OFFCURVE",
"877 1462 OFFCURVE",
"552 1462 CURVE SMOOTH",
"210 1462 LINE",
"210 0 LINE"
);
},
{
closed = 1;
nodes = (
"855 1411 OFFCURVE",
"1001 1309 OFFCURVE",
"1001 1061 CURVE SMOOTH",
"1001 861 OFFCURVE",
"916 754 OFFCURVE",
"772 710 CURVE SMOOTH",
"699 687 OFFCURVE",
"615 676 OFFCURVE",
"519 676 CURVE SMOOTH",
"263 676 LINE",
"263 1411 LINE",
"544 1411 LINE SMOOTH"
);
}
);
width = 1173;
},
{
layerId = "963BFE9B-9129-4C18-A3F3-46AD815B745B";
paths = (
{
closed = 1;
nodes = (
"323 0 LINE",
"323 598 LINE",
"536 598 LINE SMOOTH",
"917 598 OFFCURVE",
"1095 768 OFFCURVE",
"1095 1049 CURVE SMOOTH",
"1095 1324 OFFCURVE",
"920 1462 OFFCURVE",
"569 1462 CURVE SMOOTH",
"204 1462 LINE",
"204 0 LINE"
);
},
{
closed = 1;
nodes = (
"840 1358 OFFCURVE",
"972 1261 OFFCURVE",
"972 1042 CURVE SMOOTH",
"972 786 OFFCURVE",
"807 700 OFFCURVE",
"523 700 CURVE SMOOTH",
"323 700 LINE",
"323 1358 LINE",
"556 1358 LINE SMOOTH"
);
}
);
width = 1206;
},
{
layerId = "A10A3B8F-5047-4E3E-80F3-6554B53DC79D";
paths = (
{
closed = 1;
nodes = (
"382 569 LINE",
"550 569 LINE SMOOTH",
"842 569 OFFCURVE",
"1007 665 OFFCURVE",
"1080 806 CURVE SMOOTH",
"1116 876 OFFCURVE",
"1134 951 OFFCURVE",
"1134 1032 CURVE SMOOTH",
"1134 1305 OFFCURVE",
"968 1462 OFFCURVE",
"585 1462 CURVE SMOOTH",
"198 1462 LINE",
"198 0 LINE",
"382 0 LINE"
);
},
{
closed = 1;
nodes = (
"825 1305 OFFCURVE",
"943 1212 OFFCURVE",
"943 1024 CURVE SMOOTH",
"943 808 OFFCURVE",
"809 727 OFFCURVE",
"530 727 CURVE SMOOTH",
"382 727 LINE",
"382 1305 LINE",
"569 1305 LINE SMOOTH"
);
}
);
userData = {
assembly = "NPUSHB[ ]	/* 39 values pushed */\0120 4 0 1 2 4 1 103 5 1 3 3 0 95 0 0 0 31 77 0 2 2 32 2 78 13 12 16 14 12 20 13 20 17 37 32 6 8 25 \012CALL[ ]	/* CallFunction */";
};
width = 1239;
},
{
layerId = "742C6D49-27A7-4CE6-BB95-CE3E85DCFAA1";
paths = (
{
closed = 1;
nodes = (
"493 0 LINE",
"493 520 LINE",
"626 520 LINE SMOOTH",
"910 520 OFFCURVE",
"1069 618 OFFCURVE",
"1141 766 CURVE SMOOTH",
"1176 840 OFFCURVE",
"1194 920 OFFCURVE",
"1194 1006 CURVE SMOOTH",
"1194 1290 OFFCURVE",
"1028 1462 OFFCURVE",
"651 1462 CURVE SMOOTH",
"184 1462 LINE",
"184 0 LINE"
);
},
{
closed = 1;
nodes = (
"798 1208 OFFCURVE",
"880 1137 OFFCURVE",
"880 995 CURVE SMOOTH",
"880 840 OFFCURVE",
"771 774 OFFCURVE",
"596 774 CURVE SMOOTH",
"493 774 LINE",
"493 1208 LINE",
"635 1208 LINE SMOOTH"
);
}
);
width = 1286;
},
{
layerId = "1AE80326-82F5-491E-9ED8-F639C1D819D6";
paths = (
{
closed = 1;
nodes = (
"552 0 LINE",
"552 485 LINE",
"663 485 LINE SMOOTH",
"871 485 OFFCURVE",
"1009 545 OFFCURVE",
"1096 642 CURVE SMOOTH",
"1183 739 OFFCURVE",
"1218 864 OFFCURVE",
"1218 997 CURVE SMOOTH",
"1218 1296 OFFCURVE",
"1034 1462 OFFCURVE",
"663 1462 CURVE SMOOTH",
"157 1462 LINE",
"157 0 LINE"
);
},
{
closed = 1;
nodes = (
"770 1143 OFFCURVE",
"823 1080 OFFCURVE",
"823 987 CURVE SMOOTH",
"823 854 OFFCURVE",
"734 807 OFFCURVE",
"630 807 CURVE SMOOTH",
"552 807 LINE",
"552 1143 LINE",
"655 1143 LINE SMOOTH"
);
}
);
width = 1294;
}
);
note = P;
unicode = 0050;
},
{
glyphname = Q;
lastChange = "2021-05-21 12:45:20 +0000";
layers = (
{
layerId = "89D8C5C7-992A-4B79-A2F2-D8D3CE0BA992";
paths = (
{
closed = 1;
nodes = (
"1413 1209 OFFCURVE",
"1186 1485 OFFCURVE",
"782 1485 CURVE SMOOTH",
"503 1485 OFFCURVE",
"306 1351 OFFCURVE",
"205 1124 CURVE SMOOTH",
"154 1011 OFFCURVE",
"129 881 OFFCURVE",
"129 735 CURVE SMOOTH",
"129 440 OFFCURVE",
"225 204 OFFCURVE",
"415 76 CURVE SMOOTH",
"510 12 OFFCURVE",
"628 -20 OFFCURVE",
"770 -20 CURVE SMOOTH",
"798 -20 OFFCURVE",
"821 -19 OFFCURVE",
"846 -16 CURVE",
"1124 -348 LINE",
"1198 -348 LINE",
"907 -8 LINE",
"1134 29 OFFCURVE",
"1281 170 OFFCURVE",
"1357 381 CURVE SMOOTH",
"1394 486 OFFCURVE",
"1413 604 OFFCURVE",
"1413 733 CURVE SMOOTH"
);
},
{
closed = 1;
nodes = (
"184 1006 OFFCURVE",
"271 1223 OFFCURVE",
"449 1344 CURVE SMOOTH",
"538 1404 OFFCURVE",
"649 1434 OFFCURVE",
"782 1434 CURVE SMOOTH",
"1151 1434 OFFCURVE",
"1358 1178 OFFCURVE",
"1358 733 CURVE SMOOTH",
"1358 457 OFFCURVE",
"1276 239 OFFCURVE",
"1103 120 CURVE SMOOTH",
"1016 61 OFFCURVE",
"906 31 OFFCURVE",
"772 31 CURVE SMOOTH",
"507 31 OFFCURVE",
"332 160 OFFCURVE",
"248 372 CURVE SMOOTH",
"205 477 OFFCURVE",
"184 598 OFFCURVE",
"184 735 CURVE SMOOTH"
);
}
);
width = 1544;
},
{
layerId = "963BFE9B-9129-4C18-A3F3-46AD815B745B";
paths = (
{
closed = 1;
nodes = (
"1443 1045 OFFCURVE",
"1339 1273 OFFCURVE",
"1147 1394 CURVE SMOOTH",
"1051 1455 OFFCURVE",
"933 1485 OFFCURVE",
"792 1485 CURVE SMOOTH",
"499 1485 OFFCURVE",
"301 1350 OFFCURVE",
"201 1126 CURVE SMOOTH",
"151 1014 OFFCURVE",
"126 884 OFFCURVE",
"126 735 CURVE SMOOTH",
"126 438 OFFCURVE",
"222 202 OFFCURVE",
"418 75 CURVE SMOOTH",
"515 12 OFFCURVE",
"638 -20 OFFCURVE",
"785 -20 CURVE SMOOTH",
"808 -20 OFFCURVE",
"826 -19 OFFCURVE",
"847 -16 CURVE",
"1130 -348 LINE",
"1297 -348 LINE",
"978 4 LINE",
"1183 53 OFFCURVE",
"1321 194 OFFCURVE",
"1391 396 CURVE SMOOTH",
"1426 497 OFFCURVE",
"1443 609 OFFCURVE",
"1443 733 CURVE SMOOTH"
);
},
{
closed = 1;
nodes = (
"251 990 OFFCURVE",
"328 1190 OFFCURVE",
"489 1298 CURVE SMOOTH",
"569 1351 OFFCURVE",
"670 1378 OFFCURVE",
"792 1378 CURVE SMOOTH",
"1141 1378 OFFCURVE",
"1318 1137 OFFCURVE",
"1318 733 CURVE SMOOTH",
"1318 472 OFFCURVE",
"1244 273 OFFCURVE",
"1088 165 CURVE SMOOTH",
"1009 111 OFFCURVE",
"908 84 OFFCURVE",
"785 84 CURVE SMOOTH",
"542 84 OFFCURVE",
"385 197 OFFCURVE",
"309 393 CURVE SMOOTH",
"270 490 OFFCURVE",
"251 604 OFFCURVE",
"251 733 CURVE SMOOTH"
);
}
);
width = 1572;
},
{
layerId = "A10A3B8F-5047-4E3E-80F3-6554B53DC79D";
paths = (
{
closed = 1;
nodes = (
"1474 1037 OFFCURVE",
"1370 1267 OFFCURVE",
"1171 1392 CURVE SMOOTH",
"1071 1454 OFFCURVE",
"948 1485 OFFCURVE",
"802 1485 CURVE SMOOTH",
"497 1485 OFFCURVE",
"296 1352 OFFCURVE",
"198 1127 CURVE SMOOTH",
"149 1014 OFFCURVE",
"124 884 OFFCURVE",
"124 735 CURVE SMOOTH",
"124 432 OFFCURVE",
"221 199 OFFCURVE",
"422 74 CURVE SMOOTH",
"523 11 OFFCURVE",
"649 -20 OFFCURVE",
"800 -20 CURVE SMOOTH",
"808 -20 OFFCURVE",
"817 -20 OFFCURVE",
"826 -19 CURVE SMOOTH",
"835 -18 OFFCURVE",
"843 -18 OFFCURVE",
"851 -18 CURVE",
"1134 -348 LINE",
"1398 -348 LINE",
"1048 16 LINE",
"1329 109 OFFCURVE",
"1474 376 OFFCURVE",
"1474 733 CURVE SMOOTH"
);
},
{
closed = 1;
nodes = (
"319 1102 OFFCURVE",
"469 1323 OFFCURVE",
"802 1323 CURVE SMOOTH",
"1133 1323 OFFCURVE",
"1279 1102 OFFCURVE",
"1279 733 CURVE SMOOTH",
"1279 365 OFFCURVE",
"1131 139 OFFCURVE",
"800 139 CURVE SMOOTH",
"469 139 OFFCURVE",
"319 365 OFFCURVE",
"319 733 CURVE SMOOTH"
);
}
);
userData = {
assembly = "NPUSHB[ ]	/* 40 values pushed */\0123 1 1 3 1 76 0 0 1 0 134 0 4 4 2 97 0 2 2 37 77 0 3 3 1 97 0 1 1 38 1 78 36 37 38 65 20 5 8 27 \012CALL[ ]	/* CallFunction */";
};
width = 1599;
},
{
layerId = "742C6D49-27A7-4CE6-BB95-CE3E85DCFAA1";
paths = (
{
closed = 1;
nodes = (
"1511 1037 OFFCURVE",
"1412 1267 OFFCURVE",
"1208 1392 CURVE SMOOTH",
"1105 1454 OFFCURVE",
"975 1485 OFFCURVE",
"816 1485 CURVE SMOOTH",
"497 1485 OFFCURVE",
"293 1354 OFFCURVE",
"193 1131 CURVE SMOOTH",
"143 1019 OFFCURVE",
"118 887 OFFCURVE",
"118 735 CURVE SMOOTH",
"118 432 OFFCURVE",
"217 199 OFFCURVE",
"423 74 CURVE SMOOTH",
"526 11 OFFCURVE",
"656 -20 OFFCURVE",
"814 -20 CURVE SMOOTH",
"837 -20 LINE",
"1105 -348 LINE",
"1502 -348 LINE",
"1150 45 LINE",
"1397 154 OFFCURVE",
"1511 405 OFFCURVE",
"1511 733 CURVE SMOOTH"
);
},
{
closed = 1;
nodes = (
"444 1040 OFFCURVE",
"555 1227 OFFCURVE",
"816 1227 CURVE SMOOTH",
"1079 1227 OFFCURVE",
"1185 1040 OFFCURVE",
"1185 733 CURVE SMOOTH",
"1185 428 OFFCURVE",
"1079 240 OFFCURVE",
"814 240 CURVE SMOOTH",
"555 240 OFFCURVE",
"444 428 OFFCURVE",
"444 733 CURVE SMOOTH"
);
}
);
width = 1630;
},
{
layerId = "1AE80326-82F5-491E-9ED8-F639C1D819D6";
paths = (
{
closed = 1;
nodes = (
"1525 1037 OFFCURVE",
"1432 1267 OFFCURVE",
"1224 1392 CURVE SMOOTH",
"1119 1454 OFFCURVE",
"984 1485 OFFCURVE",
"817 1485 CURVE SMOOTH",
"486 1485 OFFCURVE",
"281 1354 OFFCURVE",
"180 1131 CURVE SMOOTH",
"129 1019 OFFCURVE",
"104 887 OFFCURVE",
"104 735 CURVE SMOOTH",
"104 432 OFFCURVE",
"202 199 OFFCURVE",
"412 74 CURVE SMOOTH",
"517 11 OFFCURVE",
"651 -20 OFFCURVE",
"815 -20 CURVE SMOOTH",
"829 -20 LINE",
"1075 -348 LINE",
"1566 -348 LINE",
"1210 63 LINE",
"1434 187 OFFCURVE",
"1525 428 OFFCURVE",
"1525 733 CURVE SMOOTH"
);
},
{
closed = 1;
nodes = (
"520 998 OFFCURVE",
"601 1161 OFFCURVE",
"817 1161 CURVE SMOOTH",
"1032 1161 OFFCURVE",
"1110 998 OFFCURVE",
"1110 733 CURVE SMOOTH",
"1110 469 OFFCURVE",
"1032 309 OFFCURVE",
"815 309 CURVE SMOOTH",
"604 309 OFFCURVE",
"520 469 OFFCURVE",
"520 733 CURVE SMOOTH"
);
}
);
width = 1632;
}
);
note = Q;
unicode = 0051;
},
{
glyphname = R;
lastChange = "2021-05-21 12:45:20 +0000";
layers = (
{
layerId = "89D8C5C7-992A-4B79-A2F2-D8D3CE0BA992";
paths = (
{
closed = 1;
nodes = (
"263 0 LINE",
"263 655 LINE",
"669 655 LINE",
"1060 0 LINE",
"1128 0 LINE",
"726 670 LINE",
"934 725 OFFCURVE",
"1056 859 OFFCURVE",
"1056 1075 CURVE SMOOTH",
"1056 1278 OFFCURVE",
"976 1384 OFFCURVE",
"821 1429 CURVE SMOOTH",
"743 1451 OFFCURVE",
"648 1462 OFFCURVE",
"536 1462 CURVE SMOOTH",
"210 1462 LINE",
"210 0 LINE"
);
},
{
closed = 1;
nodes = (
"738 1411 OFFCURVE",
"879 1377 OFFCURVE",
"949 1278 CURVE SMOOTH",
"984 1229 OFFCURVE",
"1001 1160 OFFCURVE",
"1001 1073 CURVE SMOOTH",
"1001 838 OFFCURVE",
"834 707 OFFCURVE",
"597 707 CURVE SMOOTH",
"263 707 LINE",
"263 1411 LINE",
"525 1411 LINE SMOOTH"
);
}
);
width = 1181;
},
{
layerId = "963BFE9B-9129-4C18-A3F3-46AD815B745B";
paths = (
{
closed = 1;
nodes = (
"323 0 LINE",
"323 631 LINE",
"671 631 LINE",
"1044 0 LINE",
"1185 0 LINE",
"784 664 LINE",
"961 719 OFFCURVE",
"1095 837 OFFCURVE",
"1095 1061 CURVE SMOOTH",
"1095 1350 OFFCURVE",
"918 1462 OFFCURVE",
"569 1462 CURVE SMOOTH",
"204 1462 LINE",
"204 0 LINE"
);
},
{
closed = 1;
nodes = (
"839 1356 OFFCURVE",
"972 1281 OFFCURVE",
"972 1057 CURVE SMOOTH",
"972 849 OFFCURVE",
"836 733 OFFCURVE",
"599 733 CURVE SMOOTH",
"323 733 LINE",
"323 1356 LINE",
"558 1356 LINE SMOOTH"
);
}
);
width = 1228;
},
{
layerId = "A10A3B8F-5047-4E3E-80F3-6554B53DC79D";
paths = (
{
closed = 1;
nodes = (
"382 604 LINE",
"673 604 LINE",
"1027 0 LINE",
"1242 0 LINE",
"841 655 LINE",
"940 688 OFFCURVE",
"1034 748 OFFCURVE",
"1091 852 CURVE SMOOTH",
"1120 904 OFFCURVE",
"1134 969 OFFCURVE",
"1134 1047 CURVE SMOOTH",
"1134 1324 OFFCURVE",
"965 1462 OFFCURVE",
"601 1462 CURVE SMOOTH",
"198 1462 LINE",
"198 0 LINE",
"382 0 LINE"
);
},
{
closed = 1;
nodes = (
"831 1303 OFFCURVE",
"943 1230 OFFCURVE",
"943 1038 CURVE SMOOTH",
"943 855 OFFCURVE",
"840 760 OFFCURVE",
"601 760 CURVE SMOOTH",
"382 760 LINE",
"382 1303 LINE",
"591 1303 LINE SMOOTH"
);
}
);
userData = {
assembly = "NPUSHB[ ]	/* 47 values pushed */\0128 1 2 5 1 76 0 5 0 2 1 5 2 103 6 1 4 4 0 95 0 0 0 31 77 3 1 1 1 32 1 78 16 15 19 17 15 23 16 23 17 17 23 32 7 8 26 \012CALL[ ]	/* CallFunction */";
};
width = 1273;
},
{
layerId = "742C6D49-27A7-4CE6-BB95-CE3E85DCFAA1";
paths = (
{
closed = 1;
nodes = (
"493 0 LINE",
"493 561 LINE",
"659 561 LINE",
"1007 0 LINE",
"1351 0 LINE",
"921 637 LINE",
"1017 681 OFFCURVE",
"1105 749 OFFCURVE",
"1156 849 CURVE SMOOTH",
"1181 899 OFFCURVE",
"1194 957 OFFCURVE",
"1194 1024 CURVE SMOOTH",
"1194 1319 OFFCURVE",
"1009 1462 OFFCURVE",
"610 1462 CURVE SMOOTH",
"184 1462 LINE",
"184 0 LINE"
);
},
{
closed = 1;
nodes = (
"787 1208 OFFCURVE",
"880 1155 OFFCURVE",
"880 1016 CURVE SMOOTH",
"880 881 OFFCURVE",
"798 813 OFFCURVE",
"594 813 CURVE SMOOTH",
"493 813 LINE",
"493 1208 LINE",
"587 1208 LINE SMOOTH"
);
}
);
width = 1351;
},
{
layerId = "1AE80326-82F5-491E-9ED8-F639C1D819D6";
paths = (
{
closed = 1;
nodes = (
"552 0 LINE",
"552 532 LINE",
"653 532 LINE",
"962 0 LINE",
"1410 0 LINE",
"984 637 LINE",
"1137 721 OFFCURVE",
"1232 853 OFFCURVE",
"1232 1030 CURVE SMOOTH",
"1232 1318 OFFCURVE",
"1033 1462 OFFCURVE",
"636 1462 CURVE SMOOTH",
"157 1462 LINE",
"157 0 LINE"
);
},
{
closed = 1;
nodes = (
"773 1163 OFFCURVE",
"833 1104 OFFCURVE",
"833 1012 CURVE SMOOTH",
"833 875 OFFCURVE",
"746 829 OFFCURVE",
"626 829 CURVE SMOOTH",
"552 829 LINE",
"552 1163 LINE",
"630 1163 LINE SMOOTH"
);
}
);
width = 1386;
}
);
note = R;
unicode = 0052;
},
{
glyphname = S;
lastChange = "2021-05-21 12:45:20 +0000";
layers = (
{
layerId = "89D8C5C7-992A-4B79-A2F2-D8D3CE0BA992";
paths = (
{
closed = 1;
nodes = (
"1001 529 OFFCURVE",
"925 620 OFFCURVE",
"794 681 CURVE SMOOTH",
"729 712 OFFCURVE",
"653 741 OFFCURVE",
"567 768 CURVE SMOOTH",
"427 812 OFFCURVE",
"305 855 OFFCURVE",
"237 943 CURVE SMOOTH",
"203 986 OFFCURVE",
"186 1045 OFFCURVE",
"186 1118 CURVE SMOOTH",
"186 1266 OFFCURVE",
"267 1355 OFFCURVE",
"391 1399 CURVE SMOOTH",
"452 1421 OFFCURVE",
"519 1432 OFFCURVE",
"591 1432 CURVE SMOOTH",
"700 1432 OFFCURVE",
"816 1415 OFFCURVE",
"941 1360 CURVE",
"964 1407 LINE",
"844 1459 OFFCURVE",
"724 1483 OFFCURVE",
"595 1483 CURVE SMOOTH",
"423 1483 OFFCURVE",
"276 1428 OFFCURVE",
"193 1319 CURVE SMOOTH",
"151 1264 OFFCURVE",
"130 1196 OFFCURVE",
"130 1114 CURVE SMOOTH",
"130 950 OFFCURVE",
"204 863 OFFCURVE",
"327 803 CURVE SMOOTH",
"388 773 OFFCURVE",
"459 746 OFFCURVE",
"538 721 CURVE SMOOTH",
"705 666 OFFCURVE",
"831 619 OFFCURVE",
"896 535 CURVE SMOOTH",
"929 492 OFFCURVE",
"945 438 OFFCURVE",
"945 371 CURVE SMOOTH",
"945 212 OFFCURVE",
"860 114 OFFCURVE",
"729 67 CURVE SMOOTH",
"663 43 OFFCURVE",
"592 31 OFFCURVE",
"515 31 CURVE SMOOTH",
"348 31 OFFCURVE",
"223 61 OFFCURVE",
"114 98 CURVE",
"114 39 LINE",
"213 8 OFFCURVE",
"323 -20 OFFCURVE",
"511 -20 CURVE SMOOTH",
"688 -20 OFFCURVE",
"846 34 OFFCURVE",
"935 151 CURVE SMOOTH",
"979 209 OFFCURVE",
"1001 282 OFFCURVE",
"1001 369 CURVE SMOOTH"
);
}
);
width = 1112;
},
{
layerId = "963BFE9B-9129-4C18-A3F3-46AD815B745B";
paths = (
{
closed = 1;
nodes = (
"1015 537 OFFCURVE",
"944 628 OFFCURVE",
"820 695 CURVE SMOOTH",
"757 728 OFFCURVE",
"683 760 OFFCURVE",
"597 791 CURVE SMOOTH",
"448 842 OFFCURVE",
"343 888 OFFCURVE",
"288 964 CURVE SMOOTH",
"261 1001 OFFCURVE",
"247 1051 OFFCURVE",
"247 1114 CURVE SMOOTH",
"247 1286 OFFCURVE",
"388 1376 OFFCURVE",
"589 1376 CURVE SMOOTH",
"706 1376 OFFCURVE",
"822 1352 OFFCURVE",
"937 1303 CURVE",
"978 1405 LINE",
"863 1454 OFFCURVE",
"736 1483 OFFCURVE",
"593 1483 CURVE SMOOTH",
"413 1483 OFFCURVE",
"267 1424 OFFCURVE",
"187 1315 CURVE SMOOTH",
"146 1260 OFFCURVE",
"126 1193 OFFCURVE",
"126 1112 CURVE SMOOTH",
"126 956 OFFCURVE",
"192 859 OFFCURVE",
"309 792 CURVE SMOOTH",
"368 758 OFFCURVE",
"438 727 OFFCURVE",
"520 698 CURVE SMOOTH",
"692 641 OFFCURVE",
"802 590 OFFCURVE",
"855 515 CURVE SMOOTH",
"881 478 OFFCURVE",
"894 430 OFFCURVE",
"894 373 CURVE SMOOTH",
"894 181 OFFCURVE",
"739 84 OFFCURVE",
"516 84 CURVE SMOOTH",
"355 84 OFFCURVE",
"214 121 OFFCURVE",
"110 162 CURVE",
"110 45 LINE",
"203 6 OFFCURVE",
"332 -20 OFFCURVE",
"507 -20 CURVE SMOOTH",
"704 -20 OFFCURVE",
"862 42 OFFCURVE",
"950 161 CURVE SMOOTH",
"993 220 OFFCURVE",
"1015 294 OFFCURVE",
"1015 381 CURVE SMOOTH"
);
}
);
width = 1118;
},
{
layerId = "A10A3B8F-5047-4E3E-80F3-6554B53DC79D";
paths = (
{
closed = 1;
nodes = (
"1028 544 OFFCURVE",
"965 639 OFFCURVE",
"846 712 CURVE SMOOTH",
"787 748 OFFCURVE",
"714 782 OFFCURVE",
"628 813 CURVE SMOOTH",
"471 870 OFFCURVE",
"380 920 OFFCURVE",
"340 985 CURVE SMOOTH",
"319 1018 OFFCURVE",
"309 1059 OFFCURVE",
"309 1108 CURVE SMOOTH",
"309 1236 OFFCURVE",
"402 1321 OFFCURVE",
"585 1321 CURVE SMOOTH",
"710 1321 OFFCURVE",
"835 1287 OFFCURVE",
"935 1243 CURVE",
"993 1401 LINE",
"881 1450 OFFCURVE",
"748 1483 OFFCURVE",
"589 1483 CURVE SMOOTH",
"404 1483 OFFCURVE",
"261 1421 OFFCURVE",
"182 1309 CURVE SMOOTH",
"142 1253 OFFCURVE",
"122 1187 OFFCURVE",
"122 1110 CURVE SMOOTH",
"122 883 OFFCURVE",
"248 765 OFFCURVE",
"499 676 CURVE SMOOTH",
"674 611 OFFCURVE",
"772 562 OFFCURVE",
"813 496 CURVE SMOOTH",
"833 463 OFFCURVE",
"843 422 OFFCURVE",
"843 375 CURVE SMOOTH",
"843 230 OFFCURVE",
"729 139 OFFCURVE",
"514 139 CURVE SMOOTH",
"358 139 OFFCURVE",
"203 182 OFFCURVE",
"104 225 CURVE",
"104 49 LINE",
"197 5 OFFCURVE",
"342 -20 OFFCURVE",
"505 -20 CURVE SMOOTH",
"825 -20 OFFCURVE",
"1028 132 OFFCURVE",
"1028 391 CURVE SMOOTH"
);
}
);
userData = {
assembly = "NPUSHB[ ]	/* 43 values pushed */\01227 1 3 2 28 7 2 1 3 6 1 0 1 3 76 0 3 3 2 97 0 2 2 37 77 0 1 1 0 97 0 0 0 38 0 78 37 44 37 34 4 8 26 \012CALL[ ]	/* CallFunction */";
};
width = 1124;
},
{
layerId = "742C6D49-27A7-4CE6-BB95-CE3E85DCFAA1";
paths = (
{
closed = 1;
nodes = (
"1046 558 OFFCURVE",
"986 657 OFFCURVE",
"882 734 CURVE SMOOTH",
"829 772 OFFCURVE",
"765 809 OFFCURVE",
"690 844 CURVE SMOOTH",
"507 931 OFFCURVE",
"413 973 OFFCURVE",
"413 1077 CURVE SMOOTH",
"413 1165 OFFCURVE",
"479 1225 OFFCURVE",
"596 1225 CURVE SMOOTH",
"708 1225 OFFCURVE",
"805 1194 OFFCURVE",
"940 1139 CURVE",
"1040 1380 LINE",
"887 1447 OFFCURVE",
"759 1483 OFFCURVE",
"606 1483 CURVE SMOOTH",
"301 1483 OFFCURVE",
"110 1330 OFFCURVE",
"110 1067 CURVE SMOOTH",
"110 934 OFFCURVE",
"162 840 OFFCURVE",
"235 773 CURVE SMOOTH",
"307 706 OFFCURVE",
"390 663 OFFCURVE",
"459 631 CURVE SMOOTH",
"567 579 OFFCURVE",
"654 537 OFFCURVE",
"705 485 CURVE SMOOTH",
"730 459 OFFCURVE",
"743 428 OFFCURVE",
"743 391 CURVE SMOOTH",
"743 302 OFFCURVE",
"685 236 OFFCURVE",
"532 236 CURVE SMOOTH",
"385 236 OFFCURVE",
"233 296 OFFCURVE",
"94 356 CURVE",
"94 68 LINE",
"215 9 OFFCURVE",
"353 -20 OFFCURVE",
"508 -20 CURVE SMOOTH",
"852 -20 OFFCURVE",
"1046 146 OFFCURVE",
"1046 406 CURVE SMOOTH"
);
}
);
width = 1128;
},
{
layerId = "1AE80326-82F5-491E-9ED8-F639C1D819D6";
paths = (
{
closed = 1;
nodes = (
"1114 595 OFFCURVE",
"1059 695 OFFCURVE",
"960 768 CURVE SMOOTH",
"910 805 OFFCURVE",
"849 839 OFFCURVE",
"778 872 CURVE SMOOTH",
"666 924 OFFCURVE",
"554 976 OFFCURVE",
"518 1012 CURVE SMOOTH",
"500 1029 OFFCURVE",
"491 1050 OFFCURVE",
"491 1073 CURVE SMOOTH",
"491 1128 OFFCURVE",
"535 1167 OFFCURVE",
"639 1167 CURVE SMOOTH",
"743 1167 OFFCURVE",
"868 1130 OFFCURVE",
"993 1073 CURVE",
"1114 1378 LINE",
"994 1430 OFFCURVE",
"843 1483 OFFCURVE",
"651 1483 CURVE SMOOTH",
"432 1483 OFFCURVE",
"263 1418 OFFCURVE",
"170 1291 CURVE SMOOTH",
"123 1228 OFFCURVE",
"100 1149 OFFCURVE",
"100 1055 CURVE SMOOTH",
"100 888 OFFCURVE",
"159 785 OFFCURVE",
"266 709 CURVE SMOOTH",
"319 670 OFFCURVE",
"382 635 OFFCURVE",
"455 602 CURVE SMOOTH",
"550 559 OFFCURVE",
"618 525 OFFCURVE",
"659 502 CURVE SMOOTH",
"699 479 OFFCURVE",
"719 448 OFFCURVE",
"719 410 CURVE SMOOTH",
"719 346 OFFCURVE",
"666 301 OFFCURVE",
"549 301 CURVE SMOOTH",
"417 301 OFFCURVE",
"249 345 OFFCURVE",
"90 424 CURVE",
"90 72 LINE",
"183 28 OFFCURVE",
"266 1 OFFCURVE",
"366 -11 CURVE SMOOTH",
"415 -17 OFFCURVE",
"474 -20 OFFCURVE",
"541 -20 CURVE SMOOTH",
"808 -20 OFFCURVE",
"973 78 OFFCURVE",
"1054 219 CURVE SMOOTH",
"1094 289 OFFCURVE",
"1114 364 OFFCURVE",
"1114 444 CURVE SMOOTH"
);
}
);
width = 1181;
}
);
note = S;
unicode = 0053;
},
{
glyphname = T;
lastChange = "2021-05-21 12:45:20 +0000";
layers = (
{
layerId = "89D8C5C7-992A-4B79-A2F2-D8D3CE0BA992";
paths = (
{
closed = 1;
nodes = (
"1030 1462 LINE",
"4 1462 LINE",
"4 1411 LINE",
"489 1411 LINE",
"489 0 LINE",
"543 0 LINE",
"543 1411 LINE",
"1030 1411 LINE"
);
}
);
width = 1034;
},
{
layerId = "963BFE9B-9129-4C18-A3F3-46AD815B745B";
paths = (
{
closed = 1;
nodes = (
"1073 1462 LINE",
"12 1462 LINE",
"12 1356 LINE",
"483 1356 LINE",
"483 0 LINE",
"602 0 LINE",
"602 1356 LINE",
"1073 1356 LINE"
);
}
);
width = 1085;
},
{
layerId = "A10A3B8F-5047-4E3E-80F3-6554B53DC79D";
paths = (
{
closed = 1;
nodes = (
"20 1300 LINE",
"477 1300 LINE",
"477 0 LINE",
"661 0 LINE",
"661 1300 LINE",
"1116 1300 LINE",
"1116 1462 LINE",
"20 1462 LINE"
);
}
);
userData = {
assembly = "NPUSHB[ ]	/* 24 values pushed */\0122 1 0 0 3 95 0 3 3 31 77 0 1 1 32 1 78 17 17 17 16 4 8 26 \012CALL[ ]	/* CallFunction */";
};
width = 1138;
},
{
layerId = "742C6D49-27A7-4CE6-BB95-CE3E85DCFAA1";
paths = (
{
closed = 1;
nodes = (
"1144 1462 LINE",
"40 1462 LINE",
"40 1204 LINE",
"437 1204 LINE",
"437 0 LINE",
"747 0 LINE",
"747 1204 LINE",
"1144 1204 LINE"
);
}
);
width = 1185;
},
{
layerId = "1AE80326-82F5-491E-9ED8-F639C1D819D6";
paths = (
{
closed = 1;
nodes = (
"1159 1462 LINE",
"51 1462 LINE",
"51 1139 LINE",
"407 1139 LINE",
"407 0 LINE",
"803 0 LINE",
"803 1139 LINE",
"1159 1139 LINE"
);
}
);
width = 1210;
}
);
note = T;
unicode = 0054;
},
{
glyphname = U;
lastChange = "2021-05-21 12:45:20 +0000";
layers = (
{
layerId = "89D8C5C7-992A-4B79-A2F2-D8D3CE0BA992";
paths = (
{
closed = 1;
nodes = (
"1212 188 OFFCURVE",
"1018 31 OFFCURVE",
"729 31 CURVE SMOOTH",
"422 31 OFFCURVE",
"247 197 OFFCURVE",
"247 524 CURVE SMOOTH",
"247 1462 LINE",
"194 1462 LINE",
"194 520 LINE SMOOTH",
"194 165 OFFCURVE",
"389 -20 OFFCURVE",
"726 -20 CURVE SMOOTH",
"937 -20 OFFCURVE",
"1105 56 OFFCURVE",
"1197 215 CURVE SMOOTH",
"1242 294 OFFCURVE",
"1265 395 OFFCURVE",
"1265 516 CURVE SMOOTH",
"1265 1462 LINE",
"1212 1462 LINE",
"1212 500 LINE SMOOTH"
);
}
);
width = 1458;
},
{
layerId = "963BFE9B-9129-4C18-A3F3-46AD815B745B";
paths = (
{
closed = 1;
nodes = (
"1171 240 OFFCURVE",
"1017 84 OFFCURVE",
"741 84 CURVE SMOOTH",
"457 84 OFFCURVE",
"307 236 OFFCURVE",
"307 520 CURVE SMOOTH",
"307 1462 LINE",
"188 1462 LINE",
"188 520 LINE SMOOTH",
"188 181 OFFCURVE",
"384 -20 OFFCURVE",
"733 -20 CURVE SMOOTH",
"1085 -20 OFFCURVE",
"1288 183 OFFCURVE",
"1288 516 CURVE SMOOTH",
"1288 1462 LINE",
"1171 1462 LINE",
"1171 508 LINE SMOOTH"
);
}
);
width = 1478;
},
{
layerId = "A10A3B8F-5047-4E3E-80F3-6554B53DC79D";
paths = (
{
closed = 1;
nodes = (
"1128 295 OFFCURVE",
"1016 139 OFFCURVE",
"751 139 CURVE SMOOTH",
"495 139 OFFCURVE",
"368 277 OFFCURVE",
"368 514 CURVE SMOOTH",
"368 1462 LINE",
"184 1462 LINE",
"184 520 LINE SMOOTH",
"184 195 OFFCURVE",
"376 -20 OFFCURVE",
"741 -20 CURVE SMOOTH",
"998 -20 OFFCURVE",
"1168 80 OFFCURVE",
"1249 243 CURVE SMOOTH",
"1290 324 OFFCURVE",
"1310 415 OFFCURVE",
"1310 516 CURVE SMOOTH",
"1310 1462 LINE",
"1128 1462 LINE",
"1128 516 LINE SMOOTH"
);
}
);
userData = {
assembly = "NPUSHB[ ]	/* 24 values pushed */\0122 1 0 0 31 77 0 3 3 1 97 0 1 1 38 1 78 35 19 36 16 4 8 26 \012CALL[ ]	/* CallFunction */";
};
width = 1497;
},
{
layerId = "742C6D49-27A7-4CE6-BB95-CE3E85DCFAA1";
paths = (
{
closed = 1;
nodes = (
"1065 342 OFFCURVE",
"979 240 OFFCURVE",
"776 240 CURVE SMOOTH",
"583 240 OFFCURVE",
"483 324 OFFCURVE",
"483 567 CURVE SMOOTH",
"483 1462 LINE",
"174 1462 LINE",
"174 520 LINE SMOOTH",
"174 195 OFFCURVE",
"380 -20 OFFCURVE",
"768 -20 CURVE SMOOTH",
"1039 -20 OFFCURVE",
"1219 80 OFFCURVE",
"1308 243 CURVE SMOOTH",
"1352 324 OFFCURVE",
"1374 415 OFFCURVE",
"1374 516 CURVE SMOOTH",
"1374 1462 LINE",
"1065 1462 LINE",
"1065 569 LINE SMOOTH"
);
}
);
width = 1548;
},
{
layerId = "1AE80326-82F5-491E-9ED8-F639C1D819D6";
paths = (
{
closed = 1;
nodes = (
"1005 399 OFFCURVE",
"937 309 OFFCURVE",
"776 309 CURVE SMOOTH",
"625 309 OFFCURVE",
"546 397 OFFCURVE",
"546 604 CURVE SMOOTH",
"546 1462 LINE",
"149 1462 LINE",
"149 573 LINE SMOOTH",
"149 194 OFFCURVE",
"365 -20 OFFCURVE",
"770 -20 CURVE SMOOTH",
"1190 -20 OFFCURVE",
"1400 213 OFFCURVE",
"1400 582 CURVE SMOOTH",
"1400 1462 LINE",
"1005 1462 LINE",
"1005 606 LINE SMOOTH"
);
}
);
width = 1550;
}
);
note = U;
unicode = 0055;
},
{
glyphname = V;
lastChange = "2021-05-21 12:45:20 +0000";
layers = (
{
layerId = "89D8C5C7-992A-4B79-A2F2-D8D3CE0BA992";
paths = (
{
closed = 1;
nodes = (
"620 200 OFFCURVE",
"599 139 OFFCURVE",
"578 76 CURVE",
"567 107 OFFCURVE",
"554 141 OFFCURVE",
"541 178 CURVE SMOOTH",
"527 215 OFFCURVE",
"513 253 OFFCURVE",
"500 293 CURVE",
"57 1462 LINE",
"0 1462 LINE",
"551 0 LINE",
"602 0 LINE",
"1153 1462 LINE",
"1096 1462 LINE",
"655 293 LINE SMOOTH"
);
}
);
width = 1153;
},
{
layerId = "963BFE9B-9129-4C18-A3F3-46AD815B745B";
paths = (
{
closed = 1;
nodes = (
"641 303 OFFCURVE",
"615 219 OFFCURVE",
"596 139 CURVE",
"577 219 OFFCURVE",
"548 309 OFFCURVE",
"512 408 CURVE SMOOTH",
"125 1462 LINE",
"0 1462 LINE",
"537 0 LINE",
"655 0 LINE",
"1192 1462 LINE",
"1065 1462 LINE",
"680 410 LINE SMOOTH"
);
}
);
width = 1191;
},
{
layerId = "A10A3B8F-5047-4E3E-80F3-6554B53DC79D";
paths = (
{
closed = 1;
nodes = (
"663 405 OFFCURVE",
"634 300 OFFCURVE",
"614 205 CURVE",
"593 300 OFFCURVE",
"566 404 OFFCURVE",
"522 524 CURVE SMOOTH",
"193 1462 LINE",
"0 1462 LINE",
"522 0 LINE",
"707 0 LINE",
"1229 1462 LINE",
"1034 1462 LINE",
"707 528 LINE SMOOTH"
);
}
);
userData = {
assembly = "NPUSHB[ ]	/* 24 values pushed */\0129 1 1 0 1 76 2 1 0 0 31 77 0 1 1 32 1 78 17 17 16 3 8 25 \012CALL[ ]	/* CallFunction */";
};
width = 1228;
},
{
layerId = "742C6D49-27A7-4CE6-BB95-CE3E85DCFAA1";
paths = (
{
closed = 1;
nodes = (
"730 561 OFFCURVE",
"707 471 OFFCURVE",
"687 382 CURVE SMOOTH",
"677 337 OFFCURVE",
"670 300 OFFCURVE",
"666 270 CURVE",
"657 330 OFFCURVE",
"633 429 OFFCURVE",
"611 509 CURVE SMOOTH",
"588 592 LINE",
"313 1462 LINE",
"0 1462 LINE",
"496 0 LINE",
"834 0 LINE",
"1331 1462 LINE",
"1018 1462 LINE",
"741 592 LINE SMOOTH"
);
}
);
width = 1331;
},
{
layerId = "1AE80326-82F5-491E-9ED8-F639C1D819D6";
paths = (
{
closed = 1;
nodes = (
"760 662 OFFCURVE",
"741 569 OFFCURVE",
"726 483 CURVE SMOOTH",
"719 440 OFFCURVE",
"714 404 OFFCURVE",
"711 377 CURVE",
"708 432 OFFCURVE",
"687 527 OFFCURVE",
"668 615 CURVE SMOOTH",
"658 658 OFFCURVE",
"650 694 OFFCURVE",
"643 721 CURVE SMOOTH",
"444 1462 LINE",
"0 1462 LINE",
"477 0 LINE",
"942 0 LINE",
"1421 1462 LINE",
"979 1462 LINE",
"776 717 LINE SMOOTH"
);
}
);
width = 1421;
}
);
note = V;
unicode = 0056;
},
{
glyphname = W;
lastChange = "2021-05-21 12:45:20 +0000";
layers = (
{
layerId = "89D8C5C7-992A-4B79-A2F2-D8D3CE0BA992";
paths = (
{
closed = 1;
nodes = (
"1316 237 OFFCURVE",
"1304 181 OFFCURVE",
"1288 98 CURVE",
"1268 181 OFFCURVE",
"1255 237 OFFCURVE",
"1224 344 CURVE SMOOTH",
"911 1462 LINE",
"860 1462 LINE",
"554 350 LINE SMOOTH",
"525 249 OFFCURVE",
"510 183 OFFCURVE",
"491 106 CURVE",
"482 145 OFFCURVE",
"472 182 OFFCURVE",
"462 218 CURVE SMOOTH",
"451 254 OFFCURVE",
"439 297 OFFCURVE",
"425 348 CURVE SMOOTH",
"122 1462 LINE",
"67 1462 LINE",
"466 0 LINE",
"516 0 LINE",
"849 1237 LINE",
"864 1284 OFFCURVE",
"869 1314 OFFCURVE",
"882 1382 CURVE",
"890 1345 OFFCURVE",
"898 1314 OFFCURVE",
"906 1288 CURVE SMOOTH",
"913 1262 OFFCURVE",
"922 1230 OFFCURVE",
"933 1192 CURVE SMOOTH",
"1263 0 LINE",
"1312 0 LINE",
"1718 1462 LINE",
"1662 1462 LINE",
"1347 344 LINE SMOOTH"
);
}
);
width = 1779;
},
{
layerId = "963BFE9B-9129-4C18-A3F3-46AD815B745B";
paths = (
{
closed = 1;
nodes = (
"1372 340 OFFCURVE",
"1350 249 OFFCURVE",
"1339 160 CURVE",
"1323 247 OFFCURVE",
"1303 342 OFFCURVE",
"1266 459 CURVE SMOOTH",
"975 1462 LINE",
"856 1462 LINE",
"573 465 LINE SMOOTH",
"541 353 OFFCURVE",
"520 256 OFFCURVE",
"504 164 CURVE",
"487 253 OFFCURVE",
"465 344 OFFCURVE",
"434 459 CURVE SMOOTH",
"170 1462 LINE",
"47 1462 LINE",
"438 0 LINE",
"557 0 LINE",
"862 1094 LINE SMOOTH",
"887 1181 OFFCURVE",
"905 1260 OFFCURVE",
"913 1315 CURVE",
"927 1256 OFFCURVE",
"948 1176 OFFCURVE",
"975 1075 CURVE SMOOTH",
"1282 0 LINE",
"1401 0 LINE",
"1798 1462 LINE",
"1675 1462 LINE",
"1405 457 LINE SMOOTH"
);
}
);
width = 1843;
},
{
layerId = "A10A3B8F-5047-4E3E-80F3-6554B53DC79D";
paths = (
{
closed = 1;
nodes = (
"1427 443 OFFCURVE",
"1399 322 OFFCURVE",
"1388 221 CURVE",
"1375 314 OFFCURVE",
"1347 448 OFFCURVE",
"1308 573 CURVE SMOOTH",
"1040 1462 LINE",
"849 1462 LINE",
"591 580 LINE SMOOTH",
"556 459 OFFCURVE",
"528 328 OFFCURVE",
"513 221 CURVE",
"500 325 OFFCURVE",
"476 444 OFFCURVE",
"444 569 CURVE SMOOTH",
"217 1462 LINE",
"24 1462 LINE",
"411 0 LINE",
"597 0 LINE",
"874 952 LINE SMOOTH",
"910 1079 OFFCURVE",
"941 1212 OFFCURVE",
"944 1247 CURVE",
"947 1223 OFFCURVE",
"963 1157 OFFCURVE",
"984 1077 CURVE SMOOTH",
"994 1036 OFFCURVE",
"1005 997 OFFCURVE",
"1017 958 CURVE SMOOTH",
"1302 0 LINE",
"1488 0 LINE",
"1877 1462 LINE",
"1685 1462 LINE",
"1460 571 LINE SMOOTH"
);
}
);
userData = {
assembly = "NPUSHB[ ]	/* 30 values pushed */\01228 19 8 3 1 0 1 76 4 3 2 0 0 31 77 2 1 1 1 32 1 78 24 17 25 17 16 5 8 27 \012CALL[ ]	/* CallFunction */";
};
width = 1904;
},
{
layerId = "742C6D49-27A7-4CE6-BB95-CE3E85DCFAA1";
paths = (
{
closed = 1;
nodes = (
"1477 602 OFFCURVE",
"1450 484 OFFCURVE",
"1436 403 CURVE SMOOTH",
"1427 356 OFFCURVE",
"1421 315 OFFCURVE",
"1417 281 CURVE",
"1409 346 OFFCURVE",
"1390 451 OFFCURVE",
"1373 540 CURVE SMOOTH",
"1364 584 OFFCURVE",
"1357 618 OFFCURVE",
"1350 643 CURVE SMOOTH",
"1137 1462 LINE",
"844 1462 LINE",
"631 643 LINE SMOOTH",
"618 594 OFFCURVE",
"598 497 OFFCURVE",
"582 403 CURVE SMOOTH",
"573 356 OFFCURVE",
"567 315 OFFCURVE",
"563 281 CURVE",
"555 346 OFFCURVE",
"537 449 OFFCURVE",
"518 545 CURVE SMOOTH",
"509 592 OFFCURVE",
"500 632 OFFCURVE",
"492 664 CURVE SMOOTH",
"305 1462 LINE",
"0 1462 LINE",
"373 0 LINE",
"725 0 LINE",
"922 766 LINE SMOOTH",
"937 827 OFFCURVE",
"984 1043 OFFCURVE",
"989 1110 CURVE",
"993 1057 OFFCURVE",
"1045 812 OFFCURVE",
"1057 768 CURVE SMOOTH",
"1255 0 LINE",
"1608 0 LINE",
"1980 1462 LINE",
"1675 1462 LINE",
"1489 664 LINE"
);
}
);
width = 1980;
},
{
layerId = "1AE80326-82F5-491E-9ED8-F639C1D819D6";
paths = (
{
closed = 1;
nodes = (
"1543 678 OFFCURVE",
"1522 570 OFFCURVE",
"1503 469 CURVE SMOOTH",
"1493 418 OFFCURVE",
"1486 376 OFFCURVE",
"1482 342 CURVE",
"1474 421 OFFCURVE",
"1453 534 OFFCURVE",
"1431 643 CURVE SMOOTH",
"1409 752 OFFCURVE",
"1388 852 OFFCURVE",
"1373 909 CURVE",
"1249 1462 LINE",
"882 1462 LINE",
"753 909 LINE SMOOTH",
"741 853 OFFCURVE",
"714 733 OFFCURVE",
"696 644 CURVE SMOOTH",
"674 536 OFFCURVE",
"656 423 OFFCURVE",
"644 342 CURVE",
"639 391 OFFCURVE",
"624 468 OFFCURVE",
"609 545 CURVE SMOOTH",
"596 608 OFFCURVE",
"579 692 OFFCURVE",
"571 729 CURVE SMOOTH",
"411 1462 LINE",
"30 1462 LINE",
"392 0 LINE",
"859 0 LINE",
"1001 637 LINE SMOOTH",
"1015 699 OFFCURVE",
"1055 897 OFFCURVE",
"1066 995 CURVE",
"1071 946 OFFCURVE",
"1083 871 OFFCURVE",
"1098 797 CURVE SMOOTH",
"1110 737 OFFCURVE",
"1124 663 OFFCURVE",
"1130 637 CURVE SMOOTH",
"1269 0 LINE",
"1736 0 LINE",
"2096 1462 LINE",
"1716 1462 LINE",
"1554 727 LINE SMOOTH"
);
}
);
width = 2127;
}
);
note = W;
unicode = 0057;
},
{
glyphname = X;
lastChange = "2021-05-21 12:45:20 +0000";
layers = (
{
layerId = "89D8C5C7-992A-4B79-A2F2-D8D3CE0BA992";
paths = (
{
closed = 1;
nodes = (
"948 1462 LINE",
"526 799 LINE",
"109 1462 LINE",
"45 1462 LINE",
"490 758 LINE",
"-6 0 LINE",
"57 0 LINE",
"524 717 LINE",
"985 0 LINE",
"1049 0 LINE",
"561 758 LINE",
"1012 1462 LINE"
);
}
);
width = 1042;
},
{
layerId = "963BFE9B-9129-4C18-A3F3-46AD815B745B";
paths = (
{
closed = 1;
nodes = (
"954 1462 LINE",
"565 844 LINE",
"176 1462 LINE",
"41 1462 LINE",
"492 760 LINE",
"0 0 LINE",
"129 0 LINE",
"561 676 LINE",
"983 0 LINE",
"1120 0 LINE",
"633 762 LINE",
"1085 1462 LINE"
);
}
);
width = 1122;
},
{
layerId = "A10A3B8F-5047-4E3E-80F3-6554B53DC79D";
paths = (
{
closed = 1;
nodes = (
"244 1462 LINE",
"39 1462 LINE",
"493 762 LINE",
"8 0 LINE",
"203 0 LINE",
"596 635 LINE",
"983 0 LINE",
"1192 0 LINE",
"704 766 LINE",
"1157 1462 LINE",
"962 1462 LINE",
"602 889 LINE"
);
}
);
userData = {
assembly = "NPUSHB[ ]	/* 35 values pushed */\01210 7 4 1 4 0 2 1 76 4 3 2 2 2 31 77 1 1 0 0 32 0 78 0 0 0 11 0 11 18 18 18 5 8 25 \012CALL[ ]	/* CallFunction */";
};
width = 1200;
},
{
layerId = "742C6D49-27A7-4CE6-BB95-CE3E85DCFAA1";
paths = (
{
closed = 1;
nodes = (
"997 1462 LINE",
"688 936 LINE",
"373 1462 LINE",
"31 1462 LINE",
"485 754 LINE",
"0 0 LINE",
"332 0 LINE",
"672 553 LINE",
"1012 0 LINE",
"1366 0 LINE",
"872 737 LINE",
"1331 1462 LINE"
);
}
);
width = 1366;
},
{
layerId = "1AE80326-82F5-491E-9ED8-F639C1D819D6";
paths = (
{
closed = 1;
nodes = (
"989 1462 LINE",
"735 1010 LINE",
"471 1462 LINE",
"33 1462 LINE",
"489 748 LINE",
"4 0 LINE",
"450 0 LINE",
"733 457 LINE",
"1018 0 LINE",
"1474 0 LINE",
"977 717 LINE",
"1440 1462 LINE"
);
}
);
width = 1480;
}
);
note = X;
unicode = 0058;
},
{
glyphname = Y;
lastChange = "2021-05-21 12:45:20 +0000";
layers = (
{
layerId = "89D8C5C7-992A-4B79-A2F2-D8D3CE0BA992";
paths = (
{
closed = 1;
nodes = (
"494 555 LINE",
"494 0 LINE",
"547 0 LINE",
"547 563 LINE",
"1034 1462 LINE",
"973 1462 LINE",
"518 616 LINE",
"61 1462 LINE",
"0 1462 LINE"
);
}
);
width = 1034;
},
{
layerId = "963BFE9B-9129-4C18-A3F3-46AD815B745B";
paths = (
{
closed = 1;
nodes = (
"492 557 LINE",
"492 0 LINE",
"610 0 LINE",
"610 565 LINE",
"1098 1462 LINE",
"967 1462 LINE",
"549 680 LINE",
"131 1462 LINE",
"0 1462 LINE"
);
}
);
width = 1097;
},
{
layerId = "A10A3B8F-5047-4E3E-80F3-6554B53DC79D";
paths = (
{
closed = 1;
nodes = (
"672 0 LINE",
"672 567 LINE",
"1159 1462 LINE",
"961 1462 LINE",
"580 743 LINE",
"201 1462 LINE",
"0 1462 LINE",
"487 559 LINE",
"487 0 LINE"
);
}
);
userData = {
assembly = "NPUSHB[ ]	/* 26 values pushed */\0128 5 2 3 2 0 1 76 1 1 0 0 31 77 0 2 2 32 2 78 18 18 16 3 8 25 \012CALL[ ]	/* CallFunction */";
};
width = 1159;
},
{
layerId = "742C6D49-27A7-4CE6-BB95-CE3E85DCFAA1";
paths = (
{
closed = 1;
nodes = (
"485 559 LINE",
"485 0 LINE",
"793 0 LINE",
"793 569 LINE",
"1278 1462 LINE",
"944 1462 LINE",
"639 860 LINE",
"336 1462 LINE",
"0 1462 LINE"
);
}
);
width = 1277;
},
{
layerId = "1AE80326-82F5-491E-9ED8-F639C1D819D6";
paths = (
{
closed = 1;
nodes = (
"481 559 LINE",
"481 0 LINE",
"879 0 LINE",
"879 571 LINE",
"1360 1462 LINE",
"932 1462 LINE",
"680 920 LINE",
"430 1462 LINE",
"0 1462 LINE"
);
}
);
width = 1359;
}
);
note = Y;
unicode = 0059;
},
{
glyphname = Z;
lastChange = "2021-05-21 12:45:20 +0000";
layers = (
{
layerId = "89D8C5C7-992A-4B79-A2F2-D8D3CE0BA992";
paths = (
{
closed = 1;
nodes = (
"1077 1425 LINE",
"1077 1462 LINE",
"130 1462 LINE",
"130 1411 LINE",
"1001 1411 LINE",
"73 37 LINE",
"73 0 LINE",
"1101 0 LINE",
"1101 51 LINE",
"149 51 LINE"
);
}
);
width = 1183;
},
{
layerId = "963BFE9B-9129-4C18-A3F3-46AD815B745B";
paths = (
{
closed = 1;
nodes = (
"1072 1374 LINE",
"1072 1462 LINE",
"116 1462 LINE",
"116 1356 LINE",
"925 1356 LINE",
"75 88 LINE",
"75 0 LINE",
"1097 0 LINE",
"1097 106 LINE",
"225 106 LINE"
);
}
);
width = 1177;
},
{
layerId = "A10A3B8F-5047-4E3E-80F3-6554B53DC79D";
paths = (
{
closed = 1;
nodes = (
"102 1462 LINE",
"102 1298 LINE",
"847 1298 LINE",
"77 139 LINE",
"77 0 LINE",
"1091 0 LINE",
"1091 164 LINE",
"300 164 LINE",
"1070 1323 LINE",
"1070 1462 LINE"
);
}
);
userData = {
assembly = "NPUSHB[ ]	/* 38 values pushed */\0129 1 2 3 4 1 1 0 2 76 0 2 2 3 95 0 3 3 31 77 0 0 0 1 95 0 1 1 32 1 78 17 18 17 16 4 8 26 \012CALL[ ]	/* CallFunction */";
};
width = 1171;
},
{
layerId = "742C6D49-27A7-4CE6-BB95-CE3E85DCFAA1";
paths = (
{
closed = 1;
nodes = (
"1118 1262 LINE",
"1118 1462 LINE",
"67 1462 LINE",
"67 1206 LINE",
"749 1206 LINE",
"49 201 LINE",
"49 0 LINE",
"1136 0 LINE",
"1136 256 LINE",
"418 256 LINE"
);
}
);
width = 1185;
},
{
layerId = "1AE80326-82F5-491E-9ED8-F639C1D819D6";
paths = (
{
closed = 1;
nodes = (
"1183 1219 LINE",
"1183 1462 LINE",
"75 1462 LINE",
"75 1143 LINE",
"694 1143 LINE",
"61 244 LINE",
"61 0 LINE",
"1200 0 LINE",
"1200 319 LINE",
"550 319 LINE"
);
}
);
width = 1251;
}
);
note = Z;
unicode = 005A;
},
{
glyphname = a;
lastChange = "2021-05-21 12:45:20 +0000";
layers = (
{
layerId = "89D8C5C7-992A-4B79-A2F2-D8D3CE0BA992";
paths = (
{
closed = 1;
nodes = (
"420 1100 OFFCURVE",
"307 1069 OFFCURVE",
"198 1020 CURVE",
"217 967 LINE",
"334 1027 OFFCURVE",
"431 1049 OFFCURVE",
"540 1049 CURVE SMOOTH",
"732 1049 OFFCURVE",
"823 949 OFFCURVE",
"823 702 CURVE SMOOTH",
"823 614 LINE",
"612 602 LINE SMOOTH",
"289 583 OFFCURVE",
"98 480 OFFCURVE",
"98 264 CURVE SMOOTH",
"98 92 OFFCURVE",
"207 -20 OFFCURVE",
"426 -20 CURVE SMOOTH",
"647 -20 OFFCURVE",
"762 86 OFFCURVE",
"819 211 CURVE",
"823 211 LINE",
"831 0 LINE",
"876 0 LINE",
"876 717 LINE SMOOTH",
"876 985 OFFCURVE",
"764 1100 OFFCURVE",
"540 1100 CURVE SMOOTH"
);
},
{
closed = 1;
nodes = (
"818 202 OFFCURVE",
"698 31 OFFCURVE",
"426 31 CURVE SMOOTH",
"251 31 OFFCURVE",
"155 120 OFFCURVE",
"155 264 CURVE SMOOTH",
"155 456 OFFCURVE",
"337 540 OFFCURVE",
"616 553 CURVE SMOOTH",
"823 563 LINE",
"823 451 LINE SMOOTH"
);
}
);
width = 1046;
},
{
layerId = "963BFE9B-9129-4C18-A3F3-46AD815B745B";
paths = (
{
closed = 1;
nodes = (
"434 1108 OFFCURVE",
"307 1072 OFFCURVE",
"207 1020 CURVE",
"243 926 LINE",
"347 981 OFFCURVE",
"449 1010 OFFCURVE",
"561 1010 CURVE SMOOTH",
"728 1010 OFFCURVE",
"815 931 OFFCURVE",
"815 715 CURVE SMOOTH",
"815 639 LINE",
"616 629 LINE SMOOTH",
"275 614 OFFCURVE",
"96 500 OFFCURVE",
"96 285 CURVE SMOOTH",
"96 85 OFFCURVE",
"226 -20 OFFCURVE",
"434 -20 CURVE SMOOTH",
"635 -20 OFFCURVE",
"739 61 OFFCURVE",
"815 184 CURVE",
"819 184 LINE",
"841 0 LINE",
"930 0 LINE",
"930 733 LINE SMOOTH",
"930 993 OFFCURVE",
"810 1108 OFFCURVE",
"565 1108 CURVE SMOOTH"
);
},
{
closed = 1;
nodes = (
"810 212 OFFCURVE",
"681 78 OFFCURVE",
"454 78 CURVE SMOOTH",
"307 78 OFFCURVE",
"217 148 OFFCURVE",
"217 283 CURVE SMOOTH",
"217 450 OFFCURVE",
"352 529 OFFCURVE",
"631 541 CURVE SMOOTH",
"815 549 LINE",
"815 444 LINE SMOOTH"
);
}
);
width = 1097;
},
{
layerId = "A10A3B8F-5047-4E3E-80F3-6554B53DC79D";
paths = (
{
closed = 1;
nodes = (
"447 1116 OFFCURVE",
"311 1074 OFFCURVE",
"215 1022 CURVE",
"270 887 LINE",
"361 931 OFFCURVE",
"464 971 OFFCURVE",
"579 971 CURVE SMOOTH",
"724 971 OFFCURVE",
"807 910 OFFCURVE",
"807 727 CURVE SMOOTH",
"807 662 LINE",
"620 655 LINE SMOOTH",
"263 644 OFFCURVE",
"94 524 OFFCURVE",
"94 305 CURVE SMOOTH",
"94 81 OFFCURVE",
"241 -20 OFFCURVE",
"440 -20 CURVE SMOOTH",
"623 -20 OFFCURVE",
"713 36 OFFCURVE",
"809 156 CURVE",
"817 156 LINE",
"852 0 LINE",
"983 0 LINE",
"983 748 LINE SMOOTH",
"983 1004 OFFCURVE",
"857 1116 OFFCURVE",
"590 1116 CURVE SMOOTH"
);
},
{
closed = 1;
nodes = (
"805 226 OFFCURVE",
"664 125 OFFCURVE",
"481 125 CURVE SMOOTH",
"364 125 OFFCURVE",
"280 180 OFFCURVE",
"280 303 CURVE SMOOTH",
"280 443 OFFCURVE",
"370 519 OFFCURVE",
"643 530 CURVE SMOOTH",
"805 537 LINE",
"805 438 LINE SMOOTH"
);
}
);
userData = {
assembly = "NPUSHB[ ]	/* 14 values pushed */\01225 1 4 0 24 1 3 4 6 1 6 5 3 76 \012MPPEM[ ]	/* MeasurePixelPerEm */\012PUSHB[ ]	/* 1 value pushed */\01225 \012LT[ ]	/* LessThan */\012IF[ ]	/* If */\012NPUSHB[ ]	/* 31 values pushed */\0120 3 0 5 6 3 5 103 0 4 4 0 97 7 1 0 0 40 77 0 6 6 1 97 2 1 1 1 32 1 78 \012ELSE[ ]	/* Else */\012NPUSHB[ ]	/* 35 values pushed */\0120 3 0 5 6 3 5 103 0 4 4 0 97 7 1 0 0 40 77 0 1 1 32 77 0 6 6 2 97 0 2 2 38 2 78 \012EIF[ ]	/* EndIf */\012NPUSHB[ ]	/* 21 values pushed */\0121 0 37 35 31 29 22 20 17 15 11 9 5 4 0 27 1 27 8 8 22 \012CALL[ ]	/* CallFunction */";
};
width = 1148;
},
{
layerId = "742C6D49-27A7-4CE6-BB95-CE3E85DCFAA1";
paths = (
{
closed = 1;
nodes = (
"461 1141 OFFCURVE",
"309 1100 OFFCURVE",
"190 1040 CURVE",
"291 834 LINE",
"395 879 OFFCURVE",
"497 915 OFFCURVE",
"606 915 CURVE SMOOTH",
"715 915 OFFCURVE",
"780 864 OFFCURVE",
"780 745 CURVE SMOOTH",
"780 696 LINE",
"586 690 LINE SMOOTH",
"253 677 OFFCURVE",
"86 571 OFFCURVE",
"86 334 CURVE SMOOTH",
"86 91 OFFCURVE",
"233 -20 OFFCURVE",
"432 -20 CURVE SMOOTH",
"617 -20 OFFCURVE",
"707 31 OFFCURVE",
"803 152 CURVE",
"811 152 LINE",
"870 0 LINE",
"1083 0 LINE",
"1083 745 LINE SMOOTH",
"1083 1013 OFFCURVE",
"919 1141 OFFCURVE",
"618 1141 CURVE SMOOTH"
);
},
{
closed = 1;
nodes = (
"780 283 OFFCURVE",
"678 203 OFFCURVE",
"547 203 CURVE SMOOTH",
"459 203 OFFCURVE",
"399 239 OFFCURVE",
"399 332 CURVE SMOOTH",
"399 439 OFFCURVE",
"465 509 OFFCURVE",
"661 514 CURVE SMOOTH",
"780 518 LINE",
"780 426 LINE SMOOTH"
);
}
);
width = 1236;
},
{
layerId = "1AE80326-82F5-491E-9ED8-F639C1D819D6";
paths = (
{
closed = 1;
nodes = (
"483 1153 OFFCURVE",
"319 1119 OFFCURVE",
"188 1051 CURVE",
"300 793 LINE",
"412 841 OFFCURVE",
"525 877 OFFCURVE",
"616 877 CURVE SMOOTH",
"700 877 OFFCURVE",
"753 838 OFFCURVE",
"753 737 CURVE SMOOTH",
"753 721 LINE",
"565 715 LINE SMOOTH",
"245 702 OFFCURVE",
"73 589 OFFCURVE",
"73 346 CURVE SMOOTH",
"73 98 OFFCURVE",
"221 -20 OFFCURVE",
"417 -20 CURVE SMOOTH",
"542 -20 OFFCURVE",
"626 1 OFFCURVE",
"692 52 CURVE SMOOTH",
"725 77 OFFCURVE",
"757 110 OFFCURVE",
"790 150 CURVE",
"798 150 LINE",
"874 0 LINE",
"1144 0 LINE",
"1144 743 LINE SMOOTH",
"1144 1006 OFFCURVE",
"974 1153 OFFCURVE",
"687 1153 CURVE SMOOTH"
);
},
{
closed = 1;
nodes = (
"755 322 OFFCURVE",
"679 256 OFFCURVE",
"583 256 CURVE SMOOTH",
"515 256 OFFCURVE",
"470 292 OFFCURVE",
"470 369 CURVE SMOOTH",
"470 450 OFFCURVE",
"520 497 OFFCURVE",
"665 502 CURVE SMOOTH",
"755 506 LINE",
"755 418 LINE SMOOTH"
);
}
);
width = 1275;
}
);
note = a;
unicode = 0061;
},
{
glyphname = b;
lastChange = "2021-05-21 12:45:20 +0000";
layers = (
{
layerId = "89D8C5C7-992A-4B79-A2F2-D8D3CE0BA992";
paths = (
{
closed = 1;
nodes = (
"227 0 LINE",
"235 213 LINE",
"239 213 LINE",
"288 77 OFFCURVE",
"409 -20 OFFCURVE",
"604 -20 CURVE SMOOTH",
"825 -20 OFFCURVE",
"961 90 OFFCURVE",
"1025 261 CURVE SMOOTH",
"1057 346 OFFCURVE",
"1073 441 OFFCURVE",
"1073 545 CURVE SMOOTH",
"1073 910 OFFCURVE",
"924 1104 OFFCURVE",
"637 1104 CURVE SMOOTH",
"429 1104 OFFCURVE",
"282 990 OFFCURVE",
"235 831 CURVE",
"231 831 LINE",
"234 900 OFFCURVE",
"235 1010 OFFCURVE",
"235 1075 CURVE SMOOTH",
"235 1556 LINE",
"182 1556 LINE",
"182 0 LINE"
);
},
{
closed = 1;
nodes = (
"891 1053 OFFCURVE",
"1018 884 OFFCURVE",
"1018 545 CURVE SMOOTH",
"1018 217 OFFCURVE",
"875 31 OFFCURVE",
"604 31 CURVE SMOOTH",
"356 31 OFFCURVE",
"235 202 OFFCURVE",
"235 518 CURVE SMOOTH",
"235 539 LINE SMOOTH",
"235 858 OFFCURVE",
"364 1053 OFFCURVE",
"637 1053 CURVE SMOOTH"
);
}
);
width = 1193;
},
{
layerId = "963BFE9B-9129-4C18-A3F3-46AD815B745B";
paths = (
{
closed = 1;
nodes = (
"266 0 LINE",
"287 176 LINE",
"297 176 LINE",
"352 67 OFFCURVE",
"466 -20 OFFCURVE",
"649 -20 CURVE SMOOTH",
"949 -20 OFFCURVE",
"1110 203 OFFCURVE",
"1110 547 CURVE SMOOTH",
"1110 918 OFFCURVE",
"946 1110 OFFCURVE",
"665 1110 CURVE SMOOTH",
"474 1110 OFFCURVE",
"350 1016 OFFCURVE",
"295 893 CURVE",
"287 893 LINE",
"292 948 OFFCURVE",
"295 1050 OFFCURVE",
"295 1126 CURVE SMOOTH",
"295 1556 LINE",
"178 1556 LINE",
"178 0 LINE"
);
},
{
closed = 1;
nodes = (
"876 1010 OFFCURVE",
"989 856 OFFCURVE",
"989 549 CURVE SMOOTH",
"989 249 OFFCURVE",
"870 80 OFFCURVE",
"635 80 CURVE SMOOTH",
"391 80 OFFCURVE",
"295 237 OFFCURVE",
"295 532 CURVE SMOOTH",
"295 547 LINE SMOOTH",
"295 847 OFFCURVE",
"398 1010 OFFCURVE",
"651 1010 CURVE SMOOTH"
);
}
);
width = 1226;
},
{
layerId = "A10A3B8F-5047-4E3E-80F3-6554B53DC79D";
paths = (
{
closed = 1;
nodes = (
"340 139 LINE",
"354 139 LINE",
"417 52 OFFCURVE",
"522 -20 OFFCURVE",
"694 -20 CURVE SMOOTH",
"965 -20 OFFCURVE",
"1147 172 OFFCURVE",
"1147 549 CURVE SMOOTH",
"1147 925 OFFCURVE",
"967 1116 OFFCURVE",
"694 1116 CURVE SMOOTH",
"522 1116 OFFCURVE",
"417 1045 OFFCURVE",
"354 952 CURVE",
"344 952 LINE",
"349 999 OFFCURVE",
"354 1085 OFFCURVE",
"354 1178 CURVE SMOOTH",
"354 1556 LINE",
"174 1556 LINE",
"174 0 LINE",
"303 0 LINE"
);
},
{
closed = 1;
nodes = (
"861 967 OFFCURVE",
"960 828 OFFCURVE",
"960 551 CURVE SMOOTH",
"960 278 OFFCURVE",
"864 129 OFFCURVE",
"668 129 CURVE SMOOTH",
"427 129 OFFCURVE",
"354 276 OFFCURVE",
"354 547 CURVE SMOOTH",
"354 555 LINE SMOOTH",
"354 836 OFFCURVE",
"428 967 OFFCURVE",
"663 967 CURVE SMOOTH"
);
}
);
userData = {
assembly = "PUSHB[ ]	/* 7 values pushed */\01218 5 2 5 4 1 76 \012MPPEM[ ]	/* MeasurePixelPerEm */\012PUSHB[ ]	/* 1 value pushed */\01225 \012LT[ ]	/* LessThan */\012IF[ ]	/* If */\012NPUSHB[ ]	/* 28 values pushed */\0120 0 0 33 77 6 1 4 4 1 97 0 1 1 40 77 0 5 5 2 97 3 1 2 2 38 2 78 \012ELSE[ ]	/* Else */\012MPPEM[ ]	/* MeasurePixelPerEm */\012PUSHB[ ]	/* 1 value pushed */\01241 \012LT[ ]	/* LessThan */\012IF[ ]	/* If */\012NPUSHB[ ]	/* 32 values pushed */\0120 0 0 33 77 6 1 4 4 1 97 0 1 1 40 77 0 3 3 32 77 0 5 5 2 97 0 2 2 38 2 78 \012ELSE[ ]	/* Else */\012NPUSHB[ ]	/* 32 values pushed */\0126 1 4 4 1 97 0 1 1 40 77 0 0 0 3 95 0 3 3 32 77 0 5 5 2 97 0 2 2 38 2 78 \012EIF[ ]	/* EndIf */\012EIF[ ]	/* EndIf */\012NPUSHB[ ]	/* 15 values pushed */\01223 22 30 28 22 33 23 33 20 36 39 16 7 8 26 \012CALL[ ]	/* CallFunction */";
};
width = 1259;
},
{
layerId = "742C6D49-27A7-4CE6-BB95-CE3E85DCFAA1";
paths = (
{
closed = 1;
nodes = (
"392 0 LINE",
"444 123 LINE",
"464 123 LINE",
"524 50 OFFCURVE",
"610 -20 OFFCURVE",
"773 -20 CURVE SMOOTH",
"1030 -20 OFFCURVE",
"1203 178 OFFCURVE",
"1203 561 CURVE SMOOTH",
"1203 941 OFFCURVE",
"1033 1139 OFFCURVE",
"782 1139 CURVE SMOOTH",
"621 1139 OFFCURVE",
"524 1065 OFFCURVE",
"464 973 CURVE",
"452 973 LINE",
"457 1020 OFFCURVE",
"464 1109 OFFCURVE",
"464 1194 CURVE SMOOTH",
"464 1556 LINE",
"159 1556 LINE",
"159 0 LINE"
);
},
{
closed = 1;
nodes = (
"812 895 OFFCURVE",
"892 784 OFFCURVE",
"892 565 CURVE SMOOTH",
"892 346 OFFCURVE",
"814 227 OFFCURVE",
"687 227 CURVE SMOOTH",
"518 227 OFFCURVE",
"464 347 OFFCURVE",
"464 563 CURVE SMOOTH",
"464 596 LINE SMOOTH",
"467 795 OFFCURVE",
"526 895 OFFCURVE",
"683 895 CURVE SMOOTH"
);
}
);
width = 1296;
},
{
layerId = "1AE80326-82F5-491E-9ED8-F639C1D819D6";
paths = (
{
closed = 1;
nodes = (
"440 0 LINE",
"502 111 LINE",
"526 111 LINE",
"583 47 OFFCURVE",
"656 -20 OFFCURVE",
"815 -20 CURVE SMOOTH",
"1060 -20 OFFCURVE",
"1229 182 OFFCURVE",
"1229 569 CURVE SMOOTH",
"1229 949 OFFCURVE",
"1062 1153 OFFCURVE",
"827 1153 CURVE SMOOTH",
"675 1153 OFFCURVE",
"583 1080 OFFCURVE",
"526 987 CURVE",
"512 987 LINE",
"520 1050 OFFCURVE",
"526 1125 OFFCURVE",
"526 1204 CURVE SMOOTH",
"526 1556 LINE",
"135 1556 LINE",
"135 0 LINE"
);
},
{
closed = 1;
nodes = (
"782 846 OFFCURVE",
"831 755 OFFCURVE",
"831 573 CURVE SMOOTH",
"831 388 OFFCURVE",
"783 295 OFFCURVE",
"688 295 CURVE SMOOTH",
"568 295 OFFCURVE",
"526 378 OFFCURVE",
"526 555 CURVE SMOOTH",
"526 610 LINE SMOOTH",
"526 771 OFFCURVE",
"575 846 OFFCURVE",
"684 846 CURVE SMOOTH"
);
}
);
width = 1316;
}
);
note = b;
unicode = 0062;
},
{
glyphname = c;
lastChange = "2021-05-21 12:45:20 +0000";
layers = (
{
layerId = "89D8C5C7-992A-4B79-A2F2-D8D3CE0BA992";
paths = (
{
closed = 1;
nodes = (
"730 -20 OFFCURVE",
"828 5 OFFCURVE",
"896 33 CURVE",
"896 84 LINE",
"817 51 OFFCURVE",
"715 31 OFFCURVE",
"618 31 CURVE SMOOTH",
"410 31 OFFCURVE",
"282 128 OFFCURVE",
"221 281 CURVE SMOOTH",
"190 357 OFFCURVE",
"175 442 OFFCURVE",
"175 535 CURVE SMOOTH",
"175 736 OFFCURVE",
"254 898 OFFCURVE",
"398 986 CURVE SMOOTH",
"469 1029 OFFCURVE",
"554 1051 OFFCURVE",
"652 1051 CURVE SMOOTH",
"732 1051 OFFCURVE",
"813 1037 OFFCURVE",
"894 1001 CURVE",
"904 1053 LINE",
"828 1085 OFFCURVE",
"751 1102 OFFCURVE",
"652 1102 CURVE SMOOTH",
"432 1102 OFFCURVE",
"271 999 OFFCURVE",
"185 828 CURVE SMOOTH",
"142 743 OFFCURVE",
"120 645 OFFCURVE",
"120 535 CURVE SMOOTH",
"120 324 OFFCURVE",
"187 149 OFFCURVE",
"335 53 CURVE SMOOTH",
"409 4 OFFCURVE",
"503 -20 OFFCURVE",
"618 -20 CURVE SMOOTH"
);
}
);
width = 966;
},
{
layerId = "963BFE9B-9129-4C18-A3F3-46AD815B745B";
paths = (
{
closed = 1;
nodes = (
"733 -20 OFFCURVE",
"825 1 OFFCURVE",
"896 37 CURVE",
"896 141 LINE",
"820 106 OFFCURVE",
"723 82 OFFCURVE",
"614 82 CURVE SMOOTH",
"357 82 OFFCURVE",
"237 268 OFFCURVE",
"237 541 CURVE SMOOTH",
"237 828 OFFCURVE",
"382 1006 OFFCURVE",
"638 1006 CURVE SMOOTH",
"720 1006 OFFCURVE",
"799 989 OFFCURVE",
"876 954 CURVE",
"909 1057 LINE",
"837 1089 OFFCURVE",
"745 1110 OFFCURVE",
"638 1110 CURVE SMOOTH",
"431 1110 OFFCURVE",
"269 1020 OFFCURVE",
"182 849 CURVE SMOOTH",
"138 764 OFFCURVE",
"116 660 OFFCURVE",
"116 539 CURVE SMOOTH",
"116 183 OFFCURVE",
"296 -20 OFFCURVE",
"616 -20 CURVE SMOOTH"
);
}
);
width = 974;
},
{
layerId = "A10A3B8F-5047-4E3E-80F3-6554B53DC79D";
paths = (
{
closed = 1;
nodes = (
"739 -20 OFFCURVE",
"823 0 OFFCURVE",
"896 39 CURVE",
"896 199 LINE",
"820 163 OFFCURVE",
"729 135 OFFCURVE",
"612 135 CURVE SMOOTH",
"404 135 OFFCURVE",
"298 280 OFFCURVE",
"298 545 CURVE SMOOTH",
"298 822 OFFCURVE",
"406 961 OFFCURVE",
"622 961 CURVE SMOOTH",
"698 961 OFFCURVE",
"793 934 OFFCURVE",
"860 909 CURVE",
"915 1059 LINE",
"850 1091 OFFCURVE",
"735 1118 OFFCURVE",
"626 1118 CURVE SMOOTH",
"430 1118 OFFCURVE",
"267 1041 OFFCURVE",
"179 872 CURVE SMOOTH",
"134 787 OFFCURVE",
"112 678 OFFCURVE",
"112 543 CURVE SMOOTH",
"112 283 OFFCURVE",
"204 118 OFFCURVE",
"354 39 CURVE SMOOTH",
"429 0 OFFCURVE",
"515 -20 OFFCURVE",
"614 -20 CURVE SMOOTH"
);
}
);
userData = {
assembly = "NPUSHB[ ]	/* 52 values pushed */\01211 1 2 1 23 12 2 3 2 24 1 0 3 3 76 0 2 2 1 97 0 1 1 40 77 0 3 3 0 97 4 1 0 0 38 0 78 1 0 21 19 16 14 9 7 0 26 1 26 5 8 22 \012CALL[ ]	/* CallFunction */";
};
width = 983;
},
{
layerId = "742C6D49-27A7-4CE6-BB95-CE3E85DCFAA1";
paths = (
{
closed = 1;
nodes = (
"770 -20 OFFCURVE",
"862 3 OFFCURVE",
"954 63 CURVE",
"954 324 LINE",
"862 264 OFFCURVE",
"769 227 OFFCURVE",
"641 227 CURVE SMOOTH",
"490 227 OFFCURVE",
"403 331 OFFCURVE",
"403 555 CURVE SMOOTH",
"403 780 OFFCURVE",
"482 893 OFFCURVE",
"641 893 CURVE SMOOTH",
"722 893 OFFCURVE",
"803 866 OFFCURVE",
"899 827 CURVE",
"989 1063 LINE",
"905 1104 OFFCURVE",
"794 1139 OFFCURVE",
"641 1139 CURVE SMOOTH",
"425 1139 OFFCURVE",
"254 1059 OFFCURVE",
"162 887 CURVE SMOOTH",
"115 801 OFFCURVE",
"92 690 OFFCURVE",
"92 553 CURVE SMOOTH",
"92 154 OFFCURVE",
"281 -20 OFFCURVE",
"614 -20 CURVE SMOOTH"
);
}
);
width = 1052;
},
{
layerId = "1AE80326-82F5-491E-9ED8-F639C1D819D6";
paths = (
{
closed = 1;
nodes = (
"807 -20 OFFCURVE",
"918 17 OFFCURVE",
"1014 80 CURVE",
"1014 391 LINE",
"913 328 OFFCURVE",
"796 291 OFFCURVE",
"684 291 CURVE SMOOTH",
"564 291 OFFCURVE",
"483 367 OFFCURVE",
"483 563 CURVE SMOOTH",
"483 755 OFFCURVE",
"565 846 OFFCURVE",
"682 846 CURVE SMOOTH",
"766 846 OFFCURVE",
"845 819 OFFCURVE",
"938 778 CURVE",
"1053 1067 LINE",
"946 1119 OFFCURVE",
"821 1153 OFFCURVE",
"682 1153 CURVE SMOOTH",
"453 1153 OFFCURVE",
"268 1072 OFFCURVE",
"164 897 CURVE SMOOTH",
"112 810 OFFCURVE",
"86 698 OFFCURVE",
"86 561 CURVE SMOOTH",
"86 157 OFFCURVE",
"307 -20 OFFCURVE",
"651 -20 CURVE SMOOTH"
);
}
);
width = 1103;
}
);
note = c;
unicode = 0063;
},
{
glyphname = d;
lastChange = "2021-05-21 12:45:20 +0000";
layers = (
{
layerId = "89D8C5C7-992A-4B79-A2F2-D8D3CE0BA992";
paths = (
{
closed = 1;
nodes = (
"795 -20 OFFCURVE",
"909 95 OFFCURVE",
"958 231 CURVE",
"962 231 LINE",
"966 0 LINE",
"1011 0 LINE",
"1011 1556 LINE",
"958 1556 LINE",
"958 1112 LINE",
"958 984 LINE SMOOTH",
"958 940 OFFCURVE",
"959 895 OFFCURVE",
"962 848 CURVE",
"958 848 LINE",
"914 989 OFFCURVE",
"792 1102 OFFCURVE",
"595 1102 CURVE SMOOTH",
"287 1102 OFFCURVE",
"120 895 OFFCURVE",
"120 520 CURVE SMOOTH",
"120 171 OFFCURVE",
"267 -20 OFFCURVE",
"579 -20 CURVE SMOOTH"
);
},
{
closed = 1;
nodes = (
"303 31 OFFCURVE",
"175 192 OFFCURVE",
"175 520 CURVE SMOOTH",
"175 875 OFFCURVE",
"324 1051 OFFCURVE",
"595 1051 CURVE SMOOTH",
"838 1051 OFFCURVE",
"958 873 OFFCURVE",
"958 545 CURVE SMOOTH",
"958 539 LINE SMOOTH",
"958 219 OFFCURVE",
"852 31 OFFCURVE",
"579 31 CURVE SMOOTH"
);
}
);
width = 1193;
},
{
layerId = "963BFE9B-9129-4C18-A3F3-46AD815B745B";
paths = (
{
closed = 1;
nodes = (
"764 -20 OFFCURVE",
"874 73 OFFCURVE",
"931 188 CURVE",
"937 188 LINE",
"954 0 LINE",
"1048 0 LINE",
"1048 1556 LINE",
"931 1556 LINE",
"931 1114 LINE SMOOTH",
"931 1084 OFFCURVE",
"932 1049 OFFCURVE",
"934 1010 CURVE SMOOTH",
"936 970 OFFCURVE",
"938 934 OFFCURVE",
"939 901 CURVE",
"931 901 LINE",
"876 1021 OFFCURVE",
"764 1110 OFFCURVE",
"581 1110 CURVE SMOOTH",
"292 1110 OFFCURVE",
"116 909 OFFCURVE",
"116 532 CURVE SMOOTH",
"116 169 OFFCURVE",
"279 -20 OFFCURVE",
"571 -20 CURVE SMOOTH"
);
},
{
closed = 1;
nodes = (
"350 80 OFFCURVE",
"237 235 OFFCURVE",
"237 532 CURVE SMOOTH",
"237 839 OFFCURVE",
"358 1010 OFFCURVE",
"593 1010 CURVE SMOOTH",
"833 1010 OFFCURVE",
"933 845 OFFCURVE",
"933 545 CURVE SMOOTH",
"933 524 LINE SMOOTH",
"933 237 OFFCURVE",
"836 80 OFFCURVE",
"585 80 CURVE SMOOTH"
);
}
);
width = 1226;
},
{
layerId = "A10A3B8F-5047-4E3E-80F3-6554B53DC79D";
paths = (
{
closed = 1;
nodes = (
"735 -20 OFFCURVE",
"838 55 OFFCURVE",
"905 147 CURVE",
"913 147 LINE",
"939 0 LINE",
"1085 0 LINE",
"1085 1556 LINE",
"905 1556 LINE",
"905 1118 LINE SMOOTH",
"905 1077 OFFCURVE",
"912 992 OFFCURVE",
"917 956 CURVE",
"905 956 LINE",
"836 1047 OFFCURVE",
"734 1118 OFFCURVE",
"565 1118 CURVE SMOOTH",
"292 1118 OFFCURVE",
"112 923 OFFCURVE",
"112 547 CURVE SMOOTH",
"112 170 OFFCURVE",
"290 -20 OFFCURVE",
"563 -20 CURVE SMOOTH"
);
},
{
closed = 1;
nodes = (
"395 129 OFFCURVE",
"298 280 OFFCURVE",
"298 543 CURVE SMOOTH",
"298 802 OFFCURVE",
"396 969 OFFCURVE",
"589 969 CURVE SMOOTH",
"832 969 OFFCURVE",
"907 818 OFFCURVE",
"907 545 CURVE SMOOTH",
"907 512 LINE SMOOTH",
"907 255 OFFCURVE",
"823 129 OFFCURVE",
"591 129 CURVE SMOOTH"
);
}
);
userData = {
assembly = "PUSHB[ ]	/* 7 values pushed */\01218 9 2 4 5 1 76 \012MPPEM[ ]	/* MeasurePixelPerEm */\012PUSHB[ ]	/* 1 value pushed */\01225 \012LT[ ]	/* LessThan */\012IF[ ]	/* If */\012NPUSHB[ ]	/* 29 values pushed */\0120 2 2 33 77 0 5 5 1 97 0 1 1 40 77 7 1 4 4 0 97 3 6 2 0 0 38 0 78 \012ELSE[ ]	/* Else */\012MPPEM[ ]	/* MeasurePixelPerEm */\012PUSHB[ ]	/* 1 value pushed */\01241 \012LT[ ]	/* LessThan */\012IF[ ]	/* If */\012NPUSHB[ ]	/* 33 values pushed */\0120 2 2 33 77 0 5 5 1 97 0 1 1 40 77 0 3 3 32 77 7 1 4 4 0 97 6 1 0 0 38 0 78 \012ELSE[ ]	/* Else */\012NPUSHB[ ]	/* 33 values pushed */\0120 5 5 1 97 0 1 1 40 77 0 2 2 3 95 0 3 3 32 77 7 1 4 4 0 97 6 1 0 0 38 0 78 \012EIF[ ]	/* EndIf */\012EIF[ ]	/* EndIf */\012NPUSHB[ ]	/* 23 values pushed */\01223 22 1 0 30 28 22 34 23 34 17 16 15 14 7 5 0 21 1 21 8 8 22 \012CALL[ ]	/* CallFunction */";
};
width = 1259;
},
{
layerId = "742C6D49-27A7-4CE6-BB95-CE3E85DCFAA1";
paths = (
{
closed = 1;
nodes = (
"675 -20 OFFCURVE",
"771 53 OFFCURVE",
"831 145 CURVE",
"844 145 LINE",
"903 0 LINE",
"1136 0 LINE",
"1136 1556 LINE",
"831 1556 LINE",
"831 1198 LINE SMOOTH",
"831 1111 OFFCURVE",
"846 1019 OFFCURVE",
"854 975 CURVE",
"844 975 LINE",
"784 1067 OFFCURVE",
"683 1139 OFFCURVE",
"522 1139 CURVE SMOOTH",
"266 1139 OFFCURVE",
"92 940 OFFCURVE",
"92 557 CURVE SMOOTH",
"92 177 OFFCURVE",
"266 -20 OFFCURVE",
"514 -20 CURVE SMOOTH"
);
},
{
closed = 1;
nodes = (
"481 223 OFFCURVE",
"401 334 OFFCURVE",
"401 553 CURVE SMOOTH",
"401 772 OFFCURVE",
"483 891 OFFCURVE",
"616 891 CURVE SMOOTH",
"796 891 OFFCURVE",
"852 771 OFFCURVE",
"852 555 CURVE SMOOTH",
"852 522 LINE SMOOTH",
"847 323 OFFCURVE",
"787 223 OFFCURVE",
"620 223 CURVE SMOOTH"
);
}
);
width = 1296;
},
{
layerId = "1AE80326-82F5-491E-9ED8-F639C1D819D6";
paths = (
{
closed = 1;
nodes = (
"643 -20 OFFCURVE",
"735 54 OFFCURVE",
"788 143 CURVE",
"803 143 LINE",
"887 0 LINE",
"1182 0 LINE",
"1182 1556 LINE",
"788 1556 LINE",
"788 1253 LINE SMOOTH",
"788 1158 OFFCURVE",
"796 1044 OFFCURVE",
"807 987 CURVE",
"799 987 LINE",
"739 1080 OFFCURVE",
"651 1153 OFFCURVE",
"502 1153 CURVE SMOOTH",
"255 1153 OFFCURVE",
"86 953 OFFCURVE",
"86 565 CURVE SMOOTH",
"86 184 OFFCURVE",
"252 -20 OFFCURVE",
"487 -20 CURVE SMOOTH"
);
},
{
closed = 1;
nodes = (
"548 289 OFFCURVE",
"481 371 OFFCURVE",
"481 559 CURVE SMOOTH",
"481 750 OFFCURVE",
"550 838 OFFCURVE",
"643 838 CURVE SMOOTH",
"779 838 OFFCURVE",
"821 738 OFFCURVE",
"821 561 CURVE SMOOTH",
"821 530 LINE SMOOTH",
"818 367 OFFCURVE",
"772 289 OFFCURVE",
"647 289 CURVE SMOOTH"
);
}
);
width = 1316;
}
);
note = d;
unicode = 0064;
},
{
glyphname = e;
lastChange = "2021-05-21 12:45:20 +0000";
layers = (
{
layerId = "89D8C5C7-992A-4B79-A2F2-D8D3CE0BA992";
paths = (
{
closed = 1;
nodes = (
"376 1102 OFFCURVE",
"239 987 OFFCURVE",
"171 814 CURVE SMOOTH",
"137 727 OFFCURVE",
"120 633 OFFCURVE",
"120 530 CURVE SMOOTH",
"120 321 OFFCURVE",
"184 147 OFFCURVE",
"328 52 CURVE SMOOTH",
"399 4 OFFCURVE",
"492 -20 OFFCURVE",
"605 -20 CURVE SMOOTH",
"737 -20 OFFCURVE",
"835 0 OFFCURVE",
"939 47 CURVE",
"939 102 LINE",
"811 45 OFFCURVE",
"737 31 OFFCURVE",
"605 31 CURVE SMOOTH",
"324 31 OFFCURVE",
"170 214 OFFCURVE",
"175 545 CURVE",
"980 545 LINE",
"980 596 LINE SMOOTH",
"980 784 OFFCURVE",
"927 945 OFFCURVE",
"811 1035 CURVE SMOOTH",
"753 1080 OFFCURVE",
"678 1102 OFFCURVE",
"587 1102 CURVE SMOOTH"
);
},
{
closed = 1;
nodes = (
"816 1051 OFFCURVE",
"928 867 OFFCURVE",
"925 596 CURVE",
"177 596 LINE",
"202 893 OFFCURVE",
"358 1051 OFFCURVE",
"587 1051 CURVE SMOOTH"
);
}
);
width = 1105;
},
{
layerId = "963BFE9B-9129-4C18-A3F3-46AD815B745B";
paths = (
{
closed = 1;
nodes = (
"392 1110 OFFCURVE",
"248 1007 OFFCURVE",
"173 833 CURVE SMOOTH",
"135 746 OFFCURVE",
"116 647 OFFCURVE",
"116 537 CURVE SMOOTH",
"116 193 OFFCURVE",
"297 -20 OFFCURVE",
"622 -20 CURVE SMOOTH",
"763 -20 OFFCURVE",
"861 0 OFFCURVE",
"970 49 CURVE",
"970 156 LINE",
"850 101 OFFCURVE",
"762 82 OFFCURVE",
"626 82 CURVE SMOOTH",
"375 82 OFFCURVE",
"237 241 OFFCURVE",
"237 528 CURVE",
"1015 528 LINE",
"1015 610 LINE SMOOTH",
"1015 805 OFFCURVE",
"953 960 OFFCURVE",
"827 1046 CURVE SMOOTH",
"764 1089 OFFCURVE",
"686 1110 OFFCURVE",
"593 1110 CURVE SMOOTH"
);
},
{
closed = 1;
nodes = (
"799 1012 OFFCURVE",
"892 856 OFFCURVE",
"892 627 CURVE",
"239 627 LINE",
"260 872 OFFCURVE",
"392 1012 OFFCURVE",
"591 1012 CURVE SMOOTH"
);
}
);
width = 1130;
},
{
layerId = "A10A3B8F-5047-4E3E-80F3-6554B53DC79D";
paths = (
{
closed = 1;
nodes = (
"404 1118 OFFCURVE",
"253 1022 OFFCURVE",
"173 850 CURVE SMOOTH",
"132 764 OFFCURVE",
"112 661 OFFCURVE",
"112 541 CURVE SMOOTH",
"112 294 OFFCURVE",
"205 127 OFFCURVE",
"364 43 CURVE SMOOTH",
"443 1 OFFCURVE",
"535 -20 OFFCURVE",
"640 -20 CURVE SMOOTH",
"791 -20 OFFCURVE",
"889 2 OFFCURVE",
"1001 51 CURVE",
"1001 209 LINE",
"886 160 OFFCURVE",
"788 133 OFFCURVE",
"649 133 CURVE SMOOTH",
"430 133 OFFCURVE",
"303 266 OFFCURVE",
"298 514 CURVE",
"1050 514 LINE",
"1050 623 LINE SMOOTH",
"1050 822 OFFCURVE",
"975 975 OFFCURVE",
"839 1057 CURVE SMOOTH",
"771 1098 OFFCURVE",
"690 1118 OFFCURVE",
"597 1118 CURVE SMOOTH"
);
},
{
closed = 1;
nodes = (
"779 971 OFFCURVE",
"859 844 OFFCURVE",
"862 657 CURVE",
"302 657 LINE",
"322 854 OFFCURVE",
"423 971 OFFCURVE",
"595 971 CURVE SMOOTH"
);
}
);
userData = {
assembly = "NPUSHB[ ]	/* 64 values pushed */\01212 1 2 1 13 1 3 2 2 76 0 5 0 1 2 5 1 103 7 1 4 4 0 97 6 1 0 0 40 77 0 2 2 3 97 0 3 3 38 3 78 25 24 1 0 28 27 24 30 25 30 17 15 10 8 6 5 0 23 1 23 8 8 22 \012CALL[ ]	/* CallFunction */";
};
width = 1155;
},
{
layerId = "742C6D49-27A7-4CE6-BB95-CE3E85DCFAA1";
paths = (
{
closed = 1;
nodes = (
"411 1139 OFFCURVE",
"247 1052 OFFCURVE",
"159 877 CURVE SMOOTH",
"114 789 OFFCURVE",
"92 680 OFFCURVE",
"92 551 CURVE SMOOTH",
"92 291 OFFCURVE",
"196 125 OFFCURVE",
"369 42 CURVE SMOOTH",
"455 1 OFFCURVE",
"554 -20 OFFCURVE",
"665 -20 CURVE SMOOTH",
"837 -20 OFFCURVE",
"947 4 OFFCURVE",
"1059 59 CURVE",
"1059 295 LINE",
"932 235 OFFCURVE",
"821 207 OFFCURVE",
"680 207 CURVE SMOOTH",
"508 207 OFFCURVE",
"406 311 OFFCURVE",
"401 483 CURVE",
"1122 483 LINE",
"1122 631 LINE SMOOTH",
"1122 955 OFFCURVE",
"929 1139 OFFCURVE",
"620 1139 CURVE SMOOTH"
);
},
{
closed = 1;
nodes = (
"765 922 OFFCURVE",
"832 819 OFFCURVE",
"835 686 CURVE",
"407 686 LINE",
"422 847 OFFCURVE",
"502 922 OFFCURVE",
"622 922 CURVE SMOOTH"
);
}
);
width = 1210;
},
{
layerId = "1AE80326-82F5-491E-9ED8-F639C1D819D6";
paths = (
{
closed = 1;
nodes = (
"424 1153 OFFCURVE",
"251 1070 OFFCURVE",
"157 894 CURVE SMOOTH",
"110 806 OFFCURVE",
"86 694 OFFCURVE",
"86 559 CURVE SMOOTH",
"86 288 OFFCURVE",
"197 120 OFFCURVE",
"376 40 CURVE SMOOTH",
"465 0 OFFCURVE",
"567 -20 OFFCURVE",
"682 -20 CURVE SMOOTH",
"878 -20 OFFCURVE",
"997 6 OFFCURVE",
"1106 63 CURVE",
"1106 344 LINE",
"981 284 OFFCURVE",
"872 258 OFFCURVE",
"729 258 CURVE SMOOTH",
"570 258 OFFCURVE",
"486 344 OFFCURVE",
"481 461 CURVE",
"1180 461 LINE",
"1180 635 LINE SMOOTH",
"1180 982 OFFCURVE",
"976 1153 OFFCURVE",
"645 1153 CURVE SMOOTH"
);
},
{
closed = 1;
nodes = (
"766 887 OFFCURVE",
"822 807 OFFCURVE",
"825 707 CURVE",
"489 707 LINE",
"501 832 OFFCURVE",
"567 887 OFFCURVE",
"659 887 CURVE SMOOTH"
);
}
);
width = 1265;
}
);
note = e;
unicode = 0065;
},
{
glyphname = f;
lastChange = "2021-05-21 12:45:20 +0000";
layers = (
{
layerId = "89D8C5C7-992A-4B79-A2F2-D8D3CE0BA992";
paths = (
{
closed = 1;
nodes = (
"284 1235 LINE SMOOTH",
"284 1434 OFFCURVE",
"351 1516 OFFCURVE",
"526 1516 CURVE SMOOTH",
"578 1516 OFFCURVE",
"637 1508 OFFCURVE",
"686 1489 CURVE",
"694 1542 LINE",
"642 1555 OFFCURVE",
"594 1567 OFFCURVE",
"526 1567 CURVE SMOOTH",
"315 1567 OFFCURVE",
"231 1448 OFFCURVE",
"231 1235 CURVE SMOOTH",
"231 1081 LINE",
"22 1075 LINE",
"22 1030 LINE",
"231 1030 LINE",
"231 0 LINE",
"284 0 LINE",
"284 1030 LINE",
"528 1030 LINE",
"528 1081 LINE",
"284 1081 LINE"
);
}
);
width = 561;
},
{
layerId = "963BFE9B-9129-4C18-A3F3-46AD815B745B";
paths = (
{
closed = 1;
nodes = (
"343 1202 LINE SMOOTH",
"343 1387 OFFCURVE",
"405 1466 OFFCURVE",
"552 1466 CURVE SMOOTH",
"609 1466 OFFCURVE",
"667 1454 OFFCURVE",
"716 1438 CURVE",
"743 1536 LINE",
"691 1552 OFFCURVE",
"629 1567 OFFCURVE",
"552 1567 CURVE SMOOTH",
"333 1567 OFFCURVE",
"227 1452 OFFCURVE",
"227 1200 CURVE SMOOTH",
"227 1094 LINE",
"26 1059 LINE",
"26 995 LINE",
"227 995 LINE",
"227 0 LINE",
"343 0 LINE",
"343 995 LINE",
"604 995 LINE",
"604 1090 LINE",
"343 1090 LINE"
);
}
);
width = 632;
},
{
layerId = "A10A3B8F-5047-4E3E-80F3-6554B53DC79D";
paths = (
{
closed = 1;
nodes = (
"403 1341 OFFCURVE",
"461 1419 OFFCURVE",
"581 1419 CURVE SMOOTH",
"641 1419 OFFCURVE",
"701 1402 OFFCURVE",
"745 1389 CURVE",
"792 1530 LINE",
"740 1549 OFFCURVE",
"663 1567 OFFCURVE",
"579 1567 CURVE SMOOTH",
"352 1567 OFFCURVE",
"223 1451 OFFCURVE",
"223 1167 CURVE SMOOTH",
"223 1104 LINE",
"30 1042 LINE",
"30 958 LINE",
"223 958 LINE",
"223 0 LINE",
"403 0 LINE",
"403 958 LINE",
"679 958 LINE",
"679 1098 LINE",
"403 1098 LINE",
"403 1169 LINE SMOOTH"
);
}
);
userData = {
assembly = "NPUSHB[ ]	/* 15 values pushed */\01215 1 4 3 16 8 2 5 4 7 1 0 5 3 76 \012MPPEM[ ]	/* MeasurePixelPerEm */\012PUSHB[ ]	/* 1 value pushed */\01229 \012LT[ ]	/* LessThan */\012IF[ ]	/* If */\012NPUSHB[ ]	/* 28 values pushed */\0120 4 4 3 97 0 3 3 33 77 2 1 0 0 5 95 6 1 5 5 34 77 0 1 1 32 1 78 \012ELSE[ ]	/* Else */\012NPUSHB[ ]	/* 26 values pushed */\0120 3 0 4 5 3 4 105 2 1 0 0 5 95 6 1 5 5 34 77 0 1 1 32 1 78 \012EIF[ ]	/* EndIf */\012NPUSHB[ ]	/* 14 values pushed */\0120 0 0 23 0 23 37 37 17 17 17 7 8 27 \012CALL[ ]	/* CallFunction */";
};
width = 704;
},
{
layerId = "742C6D49-27A7-4CE6-BB95-CE3E85DCFAA1";
paths = (
{
closed = 1;
nodes = (
"513 1188 LINE SMOOTH",
"513 1267 OFFCURVE",
"551 1325 OFFCURVE",
"636 1325 CURVE SMOOTH",
"704 1325 OFFCURVE",
"759 1311 OFFCURVE",
"806 1296 CURVE",
"884 1520 LINE",
"824 1544 OFFCURVE",
"720 1567 OFFCURVE",
"603 1567 CURVE SMOOTH",
"442 1567 OFFCURVE",
"320 1527 OFFCURVE",
"256 1422 CURVE SMOOTH",
"224 1369 OFFCURVE",
"208 1295 OFFCURVE",
"208 1200 CURVE SMOOTH",
"208 1118 LINE",
"40 1036 LINE",
"40 889 LINE",
"208 889 LINE",
"208 0 LINE",
"513 0 LINE",
"513 889 LINE",
"777 889 LINE",
"777 1118 LINE",
"513 1118 LINE"
);
}
);
width = 792;
},
{
layerId = "1AE80326-82F5-491E-9ED8-F639C1D819D6";
paths = (
{
closed = 1;
nodes = (
"586 1163 LINE SMOOTH",
"586 1241 OFFCURVE",
"615 1280 OFFCURVE",
"672 1280 CURVE SMOOTH",
"727 1280 OFFCURVE",
"774 1271 OFFCURVE",
"813 1260 CURVE",
"897 1513 LINE",
"793 1549 OFFCURVE",
"705 1567 OFFCURVE",
"588 1567 CURVE SMOOTH",
"312 1567 OFFCURVE",
"203 1439 OFFCURVE",
"203 1147 CURVE SMOOTH",
"203 1128 LINE",
"45 1032 LINE",
"45 840 LINE",
"195 840 LINE",
"195 0 LINE",
"586 0 LINE",
"586 840 LINE",
"827 840 LINE",
"827 1133 LINE",
"586 1133 LINE"
);
}
);
width = 845;
}
);
note = f;
unicode = 0066;
},
{
glyphname = g;
lastChange = "2021-05-21 12:45:21 +0000";
layers = (
{
layerId = "89D8C5C7-992A-4B79-A2F2-D8D3CE0BA992";
paths = (
{
closed = 1;
nodes = (
"277 1102 OFFCURVE",
"120 880 OFFCURVE",
"120 524 CURVE SMOOTH",
"120 167 OFFCURVE",
"287 -20 OFFCURVE",
"564 -20 CURVE SMOOTH",
"767 -20 OFFCURVE",
"905 71 OFFCURVE",
"954 240 CURVE",
"958 240 LINE",
"955 200 OFFCURVE",
"954 166 OFFCURVE",
"954 137 CURVE SMOOTH",
"954 35 LINE",
"954 -51 LINE SMOOTH",
"954 -286 OFFCURVE",
"847 -440 OFFCURVE",
"558 -440 CURVE SMOOTH",
"406 -440 OFFCURVE",
"276 -401 OFFCURVE",
"177 -354 CURVE",
"177 -416 LINE",
"276 -456 OFFCURVE",
"391 -492 OFFCURVE",
"558 -492 CURVE SMOOTH",
"777 -492 OFFCURVE",
"904 -412 OFFCURVE",
"963 -280 CURVE SMOOTH",
"992 -213 OFFCURVE",
"1007 -137 OFFCURVE",
"1007 -51 CURVE SMOOTH",
"1007 1081 LINE",
"962 1081 LINE",
"951 895 LINE",
"947 895 LINE",
"890 1012 OFFCURVE",
"793 1102 OFFCURVE",
"593 1102 CURVE SMOOTH"
);
},
{
closed = 1;
nodes = (
"778 1051 OFFCURVE",
"877 968 OFFCURVE",
"921 832 CURVE SMOOTH",
"943 763 OFFCURVE",
"954 687 OFFCURVE",
"954 602 CURVE SMOOTH",
"954 504 LINE SMOOTH",
"954 392 OFFCURVE",
"935 275 OFFCURVE",
"879 184 CURVE SMOOTH",
"823 92 OFFCURVE",
"723 31 OFFCURVE",
"564 31 CURVE SMOOTH",
"313 31 OFFCURVE",
"175 203 OFFCURVE",
"175 524 CURVE SMOOTH",
"175 855 OFFCURVE",
"306 1051 OFFCURVE",
"593 1051 CURVE SMOOTH"
);
}
);
width = 1193;
},
{
layerId = "963BFE9B-9129-4C18-A3F3-46AD815B745B";
paths = (
{
closed = 1;
nodes = (
"277 1110 OFFCURVE",
"116 889 OFFCURVE",
"116 537 CURVE SMOOTH",
"116 176 OFFCURVE",
"281 -20 OFFCURVE",
"565 -20 CURVE SMOOTH",
"740 -20 OFFCURVE",
"869 50 OFFCURVE",
"929 193 CURVE",
"935 193 LINE",
"932 138 OFFCURVE",
"929 80 OFFCURVE",
"929 23 CURVE SMOOTH",
"929 -41 LINE SMOOTH",
"929 -257 OFFCURVE",
"818 -391 OFFCURVE",
"581 -391 CURVE SMOOTH",
"425 -391 OFFCURVE",
"292 -357 OFFCURVE",
"188 -305 CURVE",
"188 -418 LINE",
"292 -462 OFFCURVE",
"413 -492 OFFCURVE",
"577 -492 CURVE SMOOTH",
"910 -492 OFFCURVE",
"1046 -322 OFFCURVE",
"1046 -35 CURVE SMOOTH",
"1046 1090 LINE",
"952 1090 LINE",
"933 924 LINE",
"927 924 LINE",
"859 1041 OFFCURVE",
"749 1110 OFFCURVE",
"577 1110 CURVE SMOOTH"
);
},
{
closed = 1;
nodes = (
"841 1008 OFFCURVE",
"931 852 OFFCURVE",
"931 573 CURVE SMOOTH",
"931 504 LINE SMOOTH",
"931 340 OFFCURVE",
"892 206 OFFCURVE",
"789 133 CURVE SMOOTH",
"738 96 OFFCURVE",
"667 78 OFFCURVE",
"577 78 CURVE SMOOTH",
"356 78 OFFCURVE",
"237 236 OFFCURVE",
"237 535 CURVE SMOOTH",
"237 835 OFFCURVE",
"354 1008 OFFCURVE",
"589 1008 CURVE SMOOTH"
);
}
);
width = 1226;
},
{
layerId = "A10A3B8F-5047-4E3E-80F3-6554B53DC79D";
paths = (
{
closed = 1;
nodes = (
"282 1118 OFFCURVE",
"112 896 OFFCURVE",
"112 547 CURVE SMOOTH",
"112 190 OFFCURVE",
"281 -20 OFFCURVE",
"565 -20 CURVE SMOOTH",
"718 -20 OFFCURVE",
"831 35 OFFCURVE",
"905 145 CURVE",
"913 145 LINE",
"910 121 OFFCURVE",
"907 43 OFFCURVE",
"907 10 CURVE SMOOTH",
"907 -33 LINE SMOOTH",
"907 -224 OFFCURVE",
"792 -342 OFFCURVE",
"604 -342 CURVE SMOOTH",
"441 -342 OFFCURVE",
"306 -313 OFFCURVE",
"198 -256 CURVE",
"198 -422 LINE",
"301 -469 OFFCURVE",
"432 -492 OFFCURVE",
"593 -492 CURVE SMOOTH",
"929 -492 OFFCURVE",
"1085 -333 OFFCURVE",
"1085 -18 CURVE SMOOTH",
"1085 1098 LINE",
"941 1098 LINE",
"917 952 LINE",
"907 952 LINE",
"824 1064 OFFCURVE",
"707 1118 OFFCURVE",
"563 1118 CURVE SMOOTH"
);
},
{
closed = 1;
nodes = (
"808 967 OFFCURVE",
"909 844 OFFCURVE",
"909 547 CURVE SMOOTH",
"909 504 LINE SMOOTH",
"909 239 OFFCURVE",
"812 127 OFFCURVE",
"591 127 CURVE SMOOTH",
"398 127 OFFCURVE",
"298 274 OFFCURVE",
"298 545 CURVE SMOOTH",
"298 816 OFFCURVE",
"404 967 OFFCURVE",
"587 967 CURVE SMOOTH"
);
}
);
userData = {
assembly = "NPUSHB[ ]	/* 15 values pushed */\01222 3 2 6 5 13 1 3 4 12 1 2 3 3 76 \012MPPEM[ ]	/* MeasurePixelPerEm */\012PUSHB[ ]	/* 1 value pushed */\01225 \012LT[ ]	/* LessThan */\012IF[ ]	/* If */\012NPUSHB[ ]	/* 34 values pushed */\0128 1 5 5 0 97 1 7 2 0 0 40 77 0 6 6 4 97 0 4 4 38 77 0 3 3 2 97 0 2 2 36 2 78 \012ELSE[ ]	/* Else */\012NPUSHB[ ]	/* 38 values pushed */\0120 1 1 34 77 8 1 5 5 0 97 7 1 0 0 40 77 0 6 6 4 97 0 4 4 38 77 0 3 3 2 97 0 2 2 36 2 78 \012EIF[ ]	/* EndIf */\012NPUSHB[ ]	/* 25 values pushed */\01232 31 1 0 38 36 31 43 32 43 26 24 16 14 11 9 6 5 0 30 1 30 9 8 22 \012CALL[ ]	/* CallFunction */";
};
width = 1259;
},
{
layerId = "742C6D49-27A7-4CE6-BB95-CE3E85DCFAA1";
paths = (
{
closed = 1;
nodes = (
"254 1139 OFFCURVE",
"92 922 OFFCURVE",
"92 557 CURVE SMOOTH",
"92 194 OFFCURVE",
"249 -20 OFFCURVE",
"514 -20 CURVE SMOOTH",
"647 -20 OFFCURVE",
"755 28 OFFCURVE",
"831 145 CURVE",
"840 145 LINE",
"833 108 OFFCURVE",
"831 52 OFFCURVE",
"831 8 CURVE SMOOTH",
"831 -14 LINE SMOOTH",
"831 -183 OFFCURVE",
"753 -268 OFFCURVE",
"596 -268 CURVE SMOOTH",
"441 -268 OFFCURVE",
"296 -239 OFFCURVE",
"160 -182 CURVE",
"160 -426 LINE",
"288 -475 OFFCURVE",
"420 -492 OFFCURVE",
"577 -492 CURVE SMOOTH",
"946 -492 OFFCURVE",
"1136 -322 OFFCURVE",
"1136 -2 CURVE SMOOTH",
"1136 1118 LINE",
"878 1118 LINE",
"854 975 LINE",
"846 975 LINE",
"768 1084 OFFCURVE",
"660 1139 OFFCURVE",
"522 1139 CURVE SMOOTH"
);
},
{
closed = 1;
nodes = (
"782 891 OFFCURVE",
"852 795 OFFCURVE",
"852 555 CURVE SMOOTH",
"852 518 LINE SMOOTH",
"852 297 OFFCURVE",
"778 219 OFFCURVE",
"622 219 CURVE SMOOTH",
"476 219 OFFCURVE",
"403 330 OFFCURVE",
"403 553 CURVE SMOOTH",
"403 778 OFFCURVE",
"475 891 OFFCURVE",
"618 891 CURVE SMOOTH"
);
}
);
width = 1296;
},
{
layerId = "1AE80326-82F5-491E-9ED8-F639C1D819D6";
paths = (
{
closed = 1;
nodes = (
"254 1153 OFFCURVE",
"86 948 OFFCURVE",
"86 565 CURVE SMOOTH",
"86 184 OFFCURVE",
"251 -20 OFFCURVE",
"492 -20 CURVE SMOOTH",
"647 -20 OFFCURVE",
"736 54 OFFCURVE",
"791 143 CURVE",
"803 143 LINE",
"795 88 OFFCURVE",
"791 41 OFFCURVE",
"791 2 CURVE SMOOTH",
"791 -18 LINE SMOOTH",
"791 -130 OFFCURVE",
"712 -186 OFFCURVE",
"555 -186 CURVE SMOOTH",
"378 -186 OFFCURVE",
"272 -157 OFFCURVE",
"135 -100 CURVE",
"135 -426 LINE",
"263 -475 OFFCURVE",
"394 -492 OFFCURVE",
"578 -492 CURVE SMOOTH",
"987 -492 OFFCURVE",
"1182 -322 OFFCURVE",
"1182 -2 CURVE SMOOTH",
"1182 1133 LINE",
"844 1133 LINE",
"815 993 LINE",
"807 993 LINE",
"747 1084 OFFCURVE",
"655 1153 OFFCURVE",
"498 1153 CURVE SMOOTH"
);
},
{
closed = 1;
nodes = (
"785 850 OFFCURVE",
"821 750 OFFCURVE",
"821 571 CURVE SMOOTH",
"821 524 LINE SMOOTH",
"821 363 OFFCURVE",
"776 283 OFFCURVE",
"651 283 CURVE SMOOTH",
"536 283 OFFCURVE",
"483 363 OFFCURVE",
"483 559 CURVE SMOOTH",
"483 753 OFFCURVE",
"537 850 OFFCURVE",
"645 850 CURVE SMOOTH"
);
}
);
width = 1316;
}
);
note = g;
unicode = 0067;
},
{
glyphname = h;
lastChange = "2021-05-21 12:45:21 +0000";
layers = (
{
layerId = "89D8C5C7-992A-4B79-A2F2-D8D3CE0BA992";
paths = (
{
closed = 1;
nodes = (
"237 0 LINE",
"237 618 LINE SMOOTH",
"237 914 OFFCURVE",
"397 1051 OFFCURVE",
"633 1051 CURVE SMOOTH",
"832 1051 OFFCURVE",
"948 947 OFFCURVE",
"948 707 CURVE SMOOTH",
"948 0 LINE",
"1001 0 LINE",
"1001 709 LINE SMOOTH",
"1001 976 OFFCURVE",
"865 1102 OFFCURVE",
"633 1102 CURVE SMOOTH",
"480 1102 OFFCURVE",
"375 1051 OFFCURVE",
"308 975 CURVE SMOOTH",
"275 937 OFFCURVE",
"251 897 OFFCURVE",
"237 854 CURVE",
"233 854 LINE",
"236 914 OFFCURVE",
"237 956 OFFCURVE",
"237 1016 CURVE SMOOTH",
"237 1556 LINE",
"184 1556 LINE",
"184 0 LINE"
);
}
);
width = 1173;
},
{
layerId = "963BFE9B-9129-4C18-A3F3-46AD815B745B";
paths = (
{
closed = 1;
nodes = (
"295 0 LINE",
"295 594 LINE SMOOTH",
"295 870 OFFCURVE",
"415 1008 OFFCURVE",
"655 1008 CURVE SMOOTH",
"838 1008 OFFCURVE",
"934 912 OFFCURVE",
"934 705 CURVE SMOOTH",
"934 0 LINE",
"1050 0 LINE",
"1050 713 LINE SMOOTH",
"1050 986 OFFCURVE",
"914 1110 OFFCURVE",
"665 1110 CURVE SMOOTH",
"480 1110 OFFCURVE",
"352 1021 OFFCURVE",
"297 901 CURVE",
"289 901 LINE",
"293 950 OFFCURVE",
"295 1002 OFFCURVE",
"295 1057 CURVE SMOOTH",
"295 1556 LINE",
"180 1556 LINE",
"180 0 LINE"
);
}
);
width = 1220;
},
{
layerId = "A10A3B8F-5047-4E3E-80F3-6554B53DC79D";
paths = (
{
closed = 1;
nodes = (
"354 567 LINE SMOOTH",
"354 824 OFFCURVE",
"429 967 OFFCURVE",
"676 967 CURVE SMOOTH",
"840 967 OFFCURVE",
"922 879 OFFCURVE",
"922 702 CURVE SMOOTH",
"922 0 LINE",
"1100 0 LINE",
"1100 715 LINE SMOOTH",
"1100 996 OFFCURVE",
"963 1116 OFFCURVE",
"698 1116 CURVE SMOOTH",
"557 1116 OFFCURVE",
"428 1058 OFFCURVE",
"356 946 CURVE",
"344 946 LINE",
"351 994 OFFCURVE",
"354 1045 OFFCURVE",
"354 1100 CURVE SMOOTH",
"354 1556 LINE",
"174 1556 LINE",
"174 0 LINE",
"354 0 LINE"
);
}
);
userData = {
assembly = "PUSHB[ ]	/* 6 values pushed */\0124 1 2 3 1 76 \012MPPEM[ ]	/* MeasurePixelPerEm */\012PUSHB[ ]	/* 1 value pushed */\01241 \012LT[ ]	/* LessThan */\012IF[ ]	/* If */\012NPUSHB[ ]	/* 22 values pushed */\0120 0 0 33 77 0 3 3 1 97 0 1 1 40 77 4 1 2 2 32 2 78 \012ELSE[ ]	/* Else */\012NPUSHB[ ]	/* 22 values pushed */\0120 3 3 1 97 0 1 1 40 77 0 0 0 2 95 4 1 2 2 32 2 78 \012EIF[ ]	/* EndIf */\012PUSHB[ ]	/* 8 values pushed */\01219 34 19 38 16 5 8 27 \012CALL[ ]	/* CallFunction */";
};
width = 1265;
},
{
layerId = "742C6D49-27A7-4CE6-BB95-CE3E85DCFAA1";
paths = (
{
closed = 1;
nodes = (
"464 0 LINE",
"464 526 LINE SMOOTH",
"464 765 OFFCURVE",
"523 895 OFFCURVE",
"706 895 CURVE SMOOTH",
"826 895 OFFCURVE",
"886 814 OFFCURVE",
"886 653 CURVE SMOOTH",
"886 0 LINE",
"1191 0 LINE",
"1191 729 LINE SMOOTH",
"1191 1016 OFFCURVE",
"1030 1139 OFFCURVE",
"790 1139 CURVE SMOOTH",
"653 1139 OFFCURVE",
"537 1090 OFFCURVE",
"466 975 CURVE",
"450 975 LINE",
"455 1016 OFFCURVE",
"464 1127 OFFCURVE",
"464 1239 CURVE SMOOTH",
"464 1556 LINE",
"159 1556 LINE",
"159 0 LINE"
);
}
);
width = 1345;
},
{
layerId = "1AE80326-82F5-491E-9ED8-F639C1D819D6";
paths = (
{
closed = 1;
nodes = (
"526 0 LINE",
"526 498 LINE SMOOTH",
"526 722 OFFCURVE",
"570 846 OFFCURVE",
"713 846 CURVE SMOOTH",
"803 846 OFFCURVE",
"848 770 OFFCURVE",
"848 618 CURVE SMOOTH",
"848 0 LINE",
"1241 0 LINE",
"1241 737 LINE SMOOTH",
"1241 934 OFFCURVE",
"1162 1053 OFFCURVE",
"1041 1110 CURVE SMOOTH",
"980 1139 OFFCURVE",
"913 1153 OFFCURVE",
"840 1153 CURVE SMOOTH",
"703 1153 OFFCURVE",
"603 1110 OFFCURVE",
"528 993 CURVE",
"510 993 LINE",
"515 1053 OFFCURVE",
"526 1166 OFFCURVE",
"526 1335 CURVE SMOOTH",
"526 1556 LINE",
"135 1556 LINE",
"135 0 LINE"
);
}
);
width = 1372;
}
);
note = h;
unicode = 0068;
},
{
glyphname = i;
lastChange = "2021-05-21 12:45:21 +0000";
layers = (
{
layerId = "89D8C5C7-992A-4B79-A2F2-D8D3CE0BA992";
paths = (
{
closed = 1;
nodes = (
"169 1477 OFFCURVE",
"159 1446 OFFCURVE",
"159 1413 CURVE SMOOTH",
"159 1377 OFFCURVE",
"169 1350 OFFCURVE",
"210 1350 CURVE SMOOTH",
"259 1350 OFFCURVE",
"265 1377 OFFCURVE",
"265 1413 CURVE SMOOTH",
"265 1446 OFFCURVE",
"259 1477 OFFCURVE",
"210 1477 CURVE SMOOTH"
);
},
{
closed = 1;
nodes = (
"237 0 LINE",
"237 1081 LINE",
"184 1081 LINE",
"184 0 LINE"
);
}
);
width = 423;
},
{
layerId = "963BFE9B-9129-4C18-A3F3-46AD815B745B";
paths = (
{
closed = 1;
nodes = (
"185 1493 OFFCURVE",
"159 1464 OFFCURVE",
"159 1405 CURVE SMOOTH",
"159 1345 OFFCURVE",
"185 1315 OFFCURVE",
"237 1315 CURVE SMOOTH",
"292 1315 OFFCURVE",
"319 1345 OFFCURVE",
"319 1405 CURVE SMOOTH",
"319 1464 OFFCURVE",
"292 1493 OFFCURVE",
"237 1493 CURVE SMOOTH"
);
},
{
closed = 1;
nodes = (
"294 0 LINE",
"294 1090 LINE",
"179 1090 LINE",
"179 0 LINE"
);
}
);
width = 475;
},
{
layerId = "A10A3B8F-5047-4E3E-80F3-6554B53DC79D";
paths = (
{
closed = 1;
nodes = (
"205 1509 OFFCURVE",
"159 1474 OFFCURVE",
"159 1395 CURVE SMOOTH",
"159 1315 OFFCURVE",
"205 1280 OFFCURVE",
"265 1280 CURVE SMOOTH",
"320 1280 OFFCURVE",
"370 1315 OFFCURVE",
"370 1395 CURVE SMOOTH",
"370 1474 OFFCURVE",
"320 1509 OFFCURVE",
"265 1509 CURVE SMOOTH"
);
},
{
closed = 1;
nodes = (
"173 1098 LINE",
"173 0 LINE",
"354 0 LINE",
"354 1098 LINE"
);
}
);
userData = {
assembly = "MPPEM[ ]	/* MeasurePixelPerEm */\012PUSHB[ ]	/* 1 value pushed */\01212 \012LT[ ]	/* LessThan */\012IF[ ]	/* If */\012NPUSHB[ ]	/* 23 values pushed */\0120 1 1 0 97 4 1 0 0 37 77 0 2 2 34 77 5 1 3 3 32 3 78 \012ELSE[ ]	/* Else */\012MPPEM[ ]	/* MeasurePixelPerEm */\012PUSHB[ ]	/* 1 value pushed */\01214 \012LT[ ]	/* LessThan */\012IF[ ]	/* If */\012NPUSHB[ ]	/* 23 values pushed */\0120 1 1 0 97 4 1 0 0 33 77 0 2 2 34 77 5 1 3 3 32 3 78 \012ELSE[ ]	/* Else */\012MPPEM[ ]	/* MeasurePixelPerEm */\012PUSHB[ ]	/* 1 value pushed */\01218 \012LT[ ]	/* LessThan */\012IF[ ]	/* If */\012NPUSHB[ ]	/* 23 values pushed */\0120 1 1 0 97 4 1 0 0 37 77 0 2 2 34 77 5 1 3 3 32 3 78 \012ELSE[ ]	/* Else */\012MPPEM[ ]	/* MeasurePixelPerEm */\012PUSHB[ ]	/* 1 value pushed */\01221 \012LT[ ]	/* LessThan */\012IF[ ]	/* If */\012NPUSHB[ ]	/* 23 values pushed */\0120 1 1 0 97 4 1 0 0 33 77 0 2 2 34 77 5 1 3 3 32 3 78 \012ELSE[ ]	/* Else */\012MPPEM[ ]	/* MeasurePixelPerEm */\012PUSHB[ ]	/* 1 value pushed */\01223 \012LT[ ]	/* LessThan */\012IF[ ]	/* If */\012NPUSHB[ ]	/* 23 values pushed */\0120 1 1 0 97 4 1 0 0 37 77 0 2 2 34 77 5 1 3 3 32 3 78 \012ELSE[ ]	/* Else */\012MPPEM[ ]	/* MeasurePixelPerEm */\012PUSHB[ ]	/* 1 value pushed */\01243 \012LT[ ]	/* LessThan */\012IF[ ]	/* If */\012NPUSHB[ ]	/* 23 values pushed */\0120 1 1 0 97 4 1 0 0 33 77 0 2 2 34 77 5 1 3 3 32 3 78 \012ELSE[ ]	/* Else */\012NPUSHB[ ]	/* 21 values pushed */\0124 1 0 0 1 2 0 1 105 0 2 2 34 77 5 1 3 3 32 3 78 \012EIF[ ]	/* EndIf */\012EIF[ ]	/* EndIf */\012EIF[ ]	/* EndIf */\012EIF[ ]	/* EndIf */\012EIF[ ]	/* EndIf */\012EIF[ ]	/* EndIf */\012NPUSHB[ ]	/* 19 values pushed */\01212 12 1 0 12 15 12 15 14 13 7 5 0 11 1 11 6 8 22 \012CALL[ ]	/* CallFunction */";
};
width = 528;
},
{
layerId = "742C6D49-27A7-4CE6-BB95-CE3E85DCFAA1";
paths = (
{
closed = 1;
nodes = (
"220 1556 OFFCURVE",
"147 1522 OFFCURVE",
"147 1407 CURVE SMOOTH",
"147 1295 OFFCURVE",
"220 1257 OFFCURVE",
"313 1257 CURVE SMOOTH",
"402 1257 OFFCURVE",
"479 1295 OFFCURVE",
"479 1407 CURVE SMOOTH",
"479 1522 OFFCURVE",
"402 1556 OFFCURVE",
"313 1556 CURVE SMOOTH"
);
},
{
closed = 1;
nodes = (
"464 0 LINE",
"464 1118 LINE",
"159 1118 LINE",
"159 0 LINE"
);
}
);
width = 624;
},
{
layerId = "1AE80326-82F5-491E-9ED8-F639C1D819D6";
paths = (
{
closed = 1;
nodes = (
"218 1589 OFFCURVE",
"126 1555 OFFCURVE",
"126 1415 CURVE SMOOTH",
"126 1282 OFFCURVE",
"218 1243 OFFCURVE",
"333 1243 CURVE SMOOTH",
"445 1243 OFFCURVE",
"542 1282 OFFCURVE",
"542 1415 CURVE SMOOTH",
"542 1555 OFFCURVE",
"445 1589 OFFCURVE",
"333 1589 CURVE SMOOTH"
);
},
{
closed = 1;
nodes = (
"527 0 LINE",
"527 1133 LINE",
"136 1133 LINE",
"136 0 LINE"
);
}
);
width = 665;
}
);
note = i;
unicode = 0069;
},
{
glyphname = j;
lastChange = "2021-05-21 12:45:21 +0000";
layers = (
{
layerId = "89D8C5C7-992A-4B79-A2F2-D8D3CE0BA992";
paths = (
{
closed = 1;
nodes = (
"160 1377 OFFCURVE",
"171 1350 OFFCURVE",
"211 1350 CURVE SMOOTH",
"260 1350 OFFCURVE",
"267 1377 OFFCURVE",
"267 1413 CURVE SMOOTH",
"267 1446 OFFCURVE",
"260 1477 OFFCURVE",
"211 1477 CURVE SMOOTH",
"171 1477 OFFCURVE",
"160 1446 OFFCURVE",
"160 1413 CURVE SMOOTH"
);
},
{
closed = 1;
nodes = (
"140 -492 OFFCURVE",
"238 -413 OFFCURVE",
"238 -246 CURVE SMOOTH",
"238 1081 LINE",
"185 1081 LINE",
"185 -238 LINE SMOOTH",
"185 -363 OFFCURVE",
"132 -440 OFFCURVE",
"23 -440 CURVE SMOOTH",
"-18 -440 OFFCURVE",
"-61 -437 OFFCURVE",
"-102 -418 CURVE",
"-102 -471 LINE",
"-69 -482 OFFCURVE",
"-29 -492 OFFCURVE",
"23 -492 CURVE SMOOTH"
);
}
);
width = 423;
},
{
layerId = "963BFE9B-9129-4C18-A3F3-46AD815B745B";
paths = (
{
closed = 1;
nodes = (
"160 1345 OFFCURVE",
"186 1315 OFFCURVE",
"238 1315 CURVE SMOOTH",
"293 1315 OFFCURVE",
"320 1345 OFFCURVE",
"320 1405 CURVE SMOOTH",
"320 1464 OFFCURVE",
"293 1493 OFFCURVE",
"238 1493 CURVE SMOOTH",
"186 1493 OFFCURVE",
"160 1464 OFFCURVE",
"160 1405 CURVE SMOOTH"
);
},
{
closed = 1;
nodes = (
"200 -492 OFFCURVE",
"295 -390 OFFCURVE",
"295 -205 CURVE SMOOTH",
"295 1090 LINE",
"181 1090 LINE",
"181 -205 LINE SMOOTH",
"181 -333 OFFCURVE",
"122 -391 OFFCURVE",
"23 -391 CURVE SMOOTH",
"-25 -391 OFFCURVE",
"-68 -384 OFFCURVE",
"-106 -369 CURVE",
"-106 -469 LINE",
"-72 -484 OFFCURVE",
"-26 -492 OFFCURVE",
"33 -492 CURVE SMOOTH"
);
}
);
width = 475;
},
{
layerId = "A10A3B8F-5047-4E3E-80F3-6554B53DC79D";
paths = (
{
closed = 1;
nodes = (
"160 1315 OFFCURVE",
"207 1280 OFFCURVE",
"267 1280 CURVE SMOOTH",
"322 1280 OFFCURVE",
"371 1315 OFFCURVE",
"371 1395 CURVE SMOOTH",
"371 1474 OFFCURVE",
"322 1509 OFFCURVE",
"267 1509 CURVE SMOOTH",
"207 1509 OFFCURVE",
"160 1474 OFFCURVE",
"160 1395 CURVE SMOOTH"
);
},
{
closed = 1;
nodes = (
"261 -492 OFFCURVE",
"355 -368 OFFCURVE",
"355 -164 CURVE SMOOTH",
"355 1098 LINE",
"175 1098 LINE",
"175 -170 LINE SMOOTH",
"175 -303 OFFCURVE",
"111 -342 OFFCURVE",
"23 -342 CURVE SMOOTH",
"-29 -342 OFFCURVE",
"-71 -335 OFFCURVE",
"-112 -322 CURVE",
"-112 -467 LINE",
"-76 -480 OFFCURVE",
"-26 -492 OFFCURVE",
"46 -492 CURVE SMOOTH"
);
}
);
userData = {
assembly = "NPUSHB[ ]	/* 10 values pushed */\01216 1 3 4 15 1 2 3 2 76 \012MPPEM[ ]	/* MeasurePixelPerEm */\012PUSHB[ ]	/* 1 value pushed */\01212 \012LT[ ]	/* LessThan */\012IF[ ]	/* If */\012NPUSHB[ ]	/* 27 values pushed */\0120 1 1 0 97 0 0 0 37 77 0 4 4 34 77 0 3 3 2 97 5 1 2 2 36 2 78 \012ELSE[ ]	/* Else */\012MPPEM[ ]	/* MeasurePixelPerEm */\012PUSHB[ ]	/* 1 value pushed */\01214 \012LT[ ]	/* LessThan */\012IF[ ]	/* If */\012NPUSHB[ ]	/* 27 values pushed */\0120 1 1 0 97 0 0 0 33 77 0 4 4 34 77 0 3 3 2 97 5 1 2 2 36 2 78 \012ELSE[ ]	/* Else */\012MPPEM[ ]	/* MeasurePixelPerEm */\012PUSHB[ ]	/* 1 value pushed */\01218 \012LT[ ]	/* LessThan */\012IF[ ]	/* If */\012NPUSHB[ ]	/* 27 values pushed */\0120 1 1 0 97 0 0 0 37 77 0 4 4 34 77 0 3 3 2 97 5 1 2 2 36 2 78 \012ELSE[ ]	/* Else */\012MPPEM[ ]	/* MeasurePixelPerEm */\012PUSHB[ ]	/* 1 value pushed */\01221 \012LT[ ]	/* LessThan */\012IF[ ]	/* If */\012NPUSHB[ ]	/* 27 values pushed */\0120 1 1 0 97 0 0 0 33 77 0 4 4 34 77 0 3 3 2 97 5 1 2 2 36 2 78 \012ELSE[ ]	/* Else */\012MPPEM[ ]	/* MeasurePixelPerEm */\012PUSHB[ ]	/* 1 value pushed */\01223 \012LT[ ]	/* LessThan */\012IF[ ]	/* If */\012NPUSHB[ ]	/* 27 values pushed */\0120 1 1 0 97 0 0 0 37 77 0 4 4 34 77 0 3 3 2 97 5 1 2 2 36 2 78 \012ELSE[ ]	/* Else */\012MPPEM[ ]	/* MeasurePixelPerEm */\012PUSHB[ ]	/* 1 value pushed */\01243 \012LT[ ]	/* LessThan */\012IF[ ]	/* If */\012NPUSHB[ ]	/* 27 values pushed */\0120 1 1 0 97 0 0 0 33 77 0 4 4 34 77 0 3 3 2 97 5 1 2 2 36 2 78 \012ELSE[ ]	/* Else */\012NPUSHB[ ]	/* 25 values pushed */\0120 0 0 1 4 0 1 105 0 4 4 34 77 0 3 3 2 97 5 1 2 2 36 2 78 \012EIF[ ]	/* EndIf */\012EIF[ ]	/* EndIf */\012EIF[ ]	/* EndIf */\012EIF[ ]	/* EndIf */\012EIF[ ]	/* EndIf */\012EIF[ ]	/* EndIf */\012NPUSHB[ ]	/* 15 values pushed */\01213 12 24 23 20 18 12 27 13 27 36 34 6 8 24 \012CALL[ ]	/* CallFunction */";
};
width = 528;
},
{
layerId = "742C6D49-27A7-4CE6-BB95-CE3E85DCFAA1";
paths = (
{
closed = 1;
nodes = (
"148 1295 OFFCURVE",
"221 1257 OFFCURVE",
"313 1257 CURVE SMOOTH",
"404 1257 OFFCURVE",
"479 1295 OFFCURVE",
"479 1407 CURVE SMOOTH",
"479 1522 OFFCURVE",
"404 1556 OFFCURVE",
"313 1556 CURVE SMOOTH",
"221 1556 OFFCURVE",
"148 1522 OFFCURVE",
"148 1407 CURVE SMOOTH"
);
},
{
closed = 1;
nodes = (
"261 -492 OFFCURVE",
"374 -419 OFFCURVE",
"426 -307 CURVE SMOOTH",
"452 -251 OFFCURVE",
"465 -189 OFFCURVE",
"465 -121 CURVE SMOOTH",
"465 1118 LINE",
"160 1118 LINE",
"160 -76 LINE SMOOTH",
"160 -209 OFFCURVE",
"95 -246 OFFCURVE",
"12 -246 CURVE SMOOTH",
"-43 -246 OFFCURVE",
"-82 -242 OFFCURVE",
"-131 -227 CURVE",
"-131 -467 LINE",
"-82 -480 OFFCURVE",
"-2 -492 OFFCURVE",
"70 -492 CURVE SMOOTH"
);
}
);
width = 624;
},
{
layerId = "1AE80326-82F5-491E-9ED8-F639C1D819D6";
paths = (
{
closed = 1;
nodes = (
"125 1282 OFFCURVE",
"217 1243 OFFCURVE",
"332 1243 CURVE SMOOTH",
"444 1243 OFFCURVE",
"541 1282 OFFCURVE",
"541 1415 CURVE SMOOTH",
"541 1555 OFFCURVE",
"444 1589 OFFCURVE",
"332 1589 CURVE SMOOTH",
"217 1589 OFFCURVE",
"125 1555 OFFCURVE",
"125 1415 CURVE SMOOTH"
);
},
{
closed = 1;
nodes = (
"315 -492 OFFCURVE",
"434 -407 OFFCURVE",
"487 -286 CURVE SMOOTH",
"514 -225 OFFCURVE",
"527 -161 OFFCURVE",
"527 -92 CURVE SMOOTH",
"527 1133 LINE",
"136 1133 LINE",
"136 -10 LINE SMOOTH",
"136 -147 OFFCURVE",
"80 -180 OFFCURVE",
"17 -180 CURVE SMOOTH",
"-27 -180 OFFCURVE",
"-60 -175 OFFCURVE",
"-104 -162 CURVE",
"-104 -467 LINE",
"-52 -480 OFFCURVE",
"44 -492 OFFCURVE",
"107 -492 CURVE SMOOTH"
);
}
);
width = 663;
}
);
note = j;
unicode = 006A;
},
{
glyphname = k;
lastChange = "2021-05-21 12:45:21 +0000";
layers = (
{
layerId = "89D8C5C7-992A-4B79-A2F2-D8D3CE0BA992";
paths = (
{
closed = 1;
nodes = (
"237 0 LINE",
"237 352 LINE",
"442 580 LINE",
"876 0 LINE",
"940 0 LINE",
"479 616 LINE",
"899 1081 LINE",
"829 1081 LINE",
"352 549 LINE SMOOTH",
"330 524 OFFCURVE",
"311 503 OFFCURVE",
"295 485 CURVE SMOOTH",
"235 418 LINE",
"236 482 OFFCURVE",
"237 543 OFFCURVE",
"237 602 CURVE SMOOTH",
"237 788 LINE",
"237 1556 LINE",
"184 1556 LINE",
"184 0 LINE"
);
}
);
width = 929;
},
{
layerId = "963BFE9B-9129-4C18-A3F3-46AD815B745B";
paths = (
{
closed = 1;
nodes = (
"295 0 LINE",
"295 377 LINE",
"459 545 LINE",
"868 0 LINE",
"1007 0 LINE",
"540 623 LINE",
"971 1090 LINE",
"831 1090 LINE",
"418 639 LINE SMOOTH",
"377 595 OFFCURVE",
"328 533 OFFCURVE",
"293 489 CURVE",
"291 489 LINE",
"291 536 OFFCURVE",
"292 583 OFFCURVE",
"293 630 CURVE SMOOTH",
"294 677 OFFCURVE",
"295 722 OFFCURVE",
"295 766 CURVE SMOOTH",
"295 1556 LINE",
"180 1556 LINE",
"180 0 LINE"
);
}
);
width = 1011;
},
{
layerId = "A10A3B8F-5047-4E3E-80F3-6554B53DC79D";
paths = (
{
closed = 1;
nodes = (
"352 403 LINE",
"477 512 LINE",
"858 0 LINE",
"1075 0 LINE",
"600 629 LINE",
"1044 1098 LINE",
"833 1098 LINE",
"483 727 LINE SMOOTH",
"456 697 OFFCURVE",
"370 591 OFFCURVE",
"352 565 CURVE",
"344 565 LINE",
"345 591 OFFCURVE",
"347 622 OFFCURVE",
"349 658 CURVE SMOOTH",
"351 693 OFFCURVE",
"352 722 OFFCURVE",
"352 743 CURVE SMOOTH",
"352 1556 LINE",
"174 1556 LINE",
"174 0 LINE",
"352 0 LINE"
);
}
);
userData = {
assembly = "NPUSHB[ ]	/* 9 values pushed */\01217 16 13 5 4 2 1 1 76 \012MPPEM[ ]	/* MeasurePixelPerEm */\012PUSHB[ ]	/* 1 value pushed */\01241 \012LT[ ]	/* LessThan */\012IF[ ]	/* If */\012NPUSHB[ ]	/* 17 values pushed */\0120 0 0 33 77 0 1 1 34 77 3 1 2 2 32 2 78 \012ELSE[ ]	/* Else */\012NPUSHB[ ]	/* 23 values pushed */\0120 0 0 2 95 3 1 2 2 32 77 0 1 1 34 77 3 1 2 2 32 2 78 \012EIF[ ]	/* EndIf */\012PUSHB[ ]	/* 7 values pushed */\01219 18 26 16 4 8 26 \012CALL[ ]	/* CallFunction */";
};
width = 1093;
},
{
layerId = "742C6D49-27A7-4CE6-BB95-CE3E85DCFAA1";
paths = (
{
closed = 1;
nodes = (
"464 0 LINE",
"464 348 LINE",
"595 453 LINE",
"917 0 LINE",
"1269 0 LINE",
"798 633 LINE",
"1242 1118 LINE",
"898 1118 LINE",
"585 778 LINE SMOOTH",
"536 723 OFFCURVE",
"493 665 OFFCURVE",
"452 608 CURVE",
"448 608 LINE",
"456 693 OFFCURVE",
"464 776 OFFCURVE",
"464 860 CURVE SMOOTH",
"464 1556 LINE",
"159 1556 LINE",
"159 0 LINE"
);
}
);
width = 1269;
},
{
layerId = "1AE80326-82F5-491E-9ED8-F639C1D819D6";
paths = (
{
closed = 1;
nodes = (
"528 0 LINE",
"528 309 LINE",
"655 406 LINE",
"903 0 LINE",
"1349 0 LINE",
"932 651 LINE",
"1325 1133 LINE",
"889 1133 LINE",
"635 813 LINE SMOOTH",
"602 769 OFFCURVE",
"560 708 OFFCURVE",
"534 668 CURVE SMOOTH",
"521 647 OFFCURVE",
"514 637 OFFCURVE",
"514 637 CURVE",
"506 637 LINE",
"519 730 OFFCURVE",
"528 851 OFFCURVE",
"528 944 CURVE SMOOTH",
"528 1556 LINE",
"135 1556 LINE",
"135 0 LINE"
);
}
);
width = 1349;
}
);
note = k;
unicode = 006B;
},
{
glyphname = l;
lastChange = "2021-05-21 12:45:21 +0000";
layers = (
{
layerId = "89D8C5C7-992A-4B79-A2F2-D8D3CE0BA992";
paths = (
{
closed = 1;
nodes = (
"186 0 LINE",
"239 0 LINE",
"239 1556 LINE",
"186 1556 LINE"
);
}
);
width = 423;
},
{
layerId = "963BFE9B-9129-4C18-A3F3-46AD815B745B";
paths = (
{
closed = 1;
nodes = (
"180 0 LINE",
"297 0 LINE",
"297 1556 LINE",
"180 1556 LINE"
);
}
);
width = 475;
},
{
layerId = "A10A3B8F-5047-4E3E-80F3-6554B53DC79D";
paths = (
{
closed = 1;
nodes = (
"354 1556 LINE",
"174 1556 LINE",
"174 0 LINE",
"354 0 LINE"
);
}
);
userData = {
assembly = "MPPEM[ ]	/* MeasurePixelPerEm */\012PUSHB[ ]	/* 1 value pushed */\01241 \012LT[ ]	/* LessThan */\012IF[ ]	/* If */\012NPUSHB[ ]	/* 11 values pushed */\0120 0 0 33 77 0 1 1 32 1 78 \012ELSE[ ]	/* Else */\012NPUSHB[ ]	/* 11 values pushed */\0120 0 0 1 95 0 1 1 32 1 78 \012EIF[ ]	/* EndIf */\012PUSHB[ ]	/* 5 values pushed */\01217 16 2 8 24 \012CALL[ ]	/* CallFunction */";
};
width = 528;
},
{
layerId = "742C6D49-27A7-4CE6-BB95-CE3E85DCFAA1";
paths = (
{
closed = 1;
nodes = (
"159 0 LINE",
"464 0 LINE",
"464 1556 LINE",
"159 1556 LINE"
);
}
);
width = 624;
},
{
layerId = "1AE80326-82F5-491E-9ED8-F639C1D819D6";
paths = (
{
closed = 1;
nodes = (
"135 0 LINE",
"526 0 LINE",
"526 1556 LINE",
"135 1556 LINE"
);
}
);
width = 661;
}
);
note = l;
unicode = 006C;
},
{
glyphname = m;
lastChange = "2021-05-21 12:45:21 +0000";
layers = (
{
layerId = "89D8C5C7-992A-4B79-A2F2-D8D3CE0BA992";
paths = (
{
closed = 1;
nodes = (
"1064 1102 OFFCURVE",
"942 1012 OFFCURVE",
"891 879 CURVE",
"886 879 LINE",
"851 1023 OFFCURVE",
"738 1102 OFFCURVE",
"587 1102 CURVE SMOOTH",
"448 1102 OFFCURVE",
"358 1051 OFFCURVE",
"303 984 CURVE SMOOTH",
"276 951 OFFCURVE",
"254 918 OFFCURVE",
"239 885 CURVE",
"235 885 LINE",
"227 1081 LINE",
"184 1081 LINE",
"184 0 LINE",
"237 0 LINE",
"237 666 LINE SMOOTH",
"237 849 OFFCURVE",
"308 960 OFFCURVE",
"413 1012 CURVE SMOOTH",
"465 1038 OFFCURVE",
"523 1051 OFFCURVE",
"587 1051 CURVE SMOOTH",
"738 1051 OFFCURVE",
"854 956 OFFCURVE",
"854 737 CURVE SMOOTH",
"854 0 LINE",
"907 0 LINE",
"907 666 LINE SMOOTH",
"907 941 OFFCURVE",
"1053 1051 OFFCURVE",
"1257 1051 CURVE SMOOTH",
"1408 1051 OFFCURVE",
"1523 956 OFFCURVE",
"1523 737 CURVE SMOOTH",
"1523 0 LINE",
"1577 0 LINE",
"1577 739 LINE SMOOTH",
"1577 988 OFFCURVE",
"1442 1102 OFFCURVE",
"1257 1102 CURVE SMOOTH"
);
}
);
width = 1744;
},
{
layerId = "963BFE9B-9129-4C18-A3F3-46AD815B745B";
paths = (
{
closed = 1;
nodes = (
"1150 1110 OFFCURVE",
"1018 1037 OFFCURVE",
"958 905 CURVE",
"950 905 LINE",
"906 1042 OFFCURVE",
"792 1110 OFFCURVE",
"635 1110 CURVE SMOOTH",
"463 1110 OFFCURVE",
"354 1023 OFFCURVE",
"299 918 CURVE",
"291 918 LINE",
"274 1090 LINE",
"180 1090 LINE",
"180 0 LINE",
"295 0 LINE",
"295 618 LINE SMOOTH",
"295 883 OFFCURVE",
"411 1008 OFFCURVE",
"618 1008 CURVE SMOOTH",
"771 1008 OFFCURVE",
"864 917 OFFCURVE",
"864 721 CURVE SMOOTH",
"864 0 LINE",
"979 0 LINE",
"979 635 LINE SMOOTH",
"979 888 OFFCURVE",
"1095 1008 OFFCURVE",
"1302 1008 CURVE SMOOTH",
"1455 1008 OFFCURVE",
"1548 917 OFFCURVE",
"1548 721 CURVE SMOOTH",
"1548 0 LINE",
"1663 0 LINE",
"1663 727 LINE SMOOTH",
"1663 992 OFFCURVE",
"1534 1110 OFFCURVE",
"1319 1110 CURVE SMOOTH"
);
}
);
width = 1830;
},
{
layerId = "A10A3B8F-5047-4E3E-80F3-6554B53DC79D";
paths = (
{
closed = 1;
nodes = (
"1234 1118 OFFCURVE",
"1099 1059 OFFCURVE",
"1026 934 CURVE",
"1016 934 LINE",
"964 1057 OFFCURVE",
"852 1118 OFFCURVE",
"680 1118 CURVE SMOOTH",
"549 1118 OFFCURVE",
"424 1063 OFFCURVE",
"356 948 CURVE",
"346 948 LINE",
"319 1098 LINE",
"174 1098 LINE",
"174 0 LINE",
"354 0 LINE",
"354 569 LINE SMOOTH",
"354 826 OFFCURVE",
"426 967 OFFCURVE",
"647 967 CURVE SMOOTH",
"797 967 OFFCURVE",
"872 880 OFFCURVE",
"872 707 CURVE SMOOTH",
"872 0 LINE",
"1051 0 LINE",
"1051 606 LINE SMOOTH",
"1051 841 OFFCURVE",
"1135 967 OFFCURVE",
"1348 967 CURVE SMOOTH",
"1497 967 OFFCURVE",
"1571 880 OFFCURVE",
"1571 707 CURVE SMOOTH",
"1571 0 LINE",
"1749 0 LINE",
"1749 715 LINE SMOOTH",
"1749 996 OFFCURVE",
"1627 1118 OFFCURVE",
"1378 1118 CURVE SMOOTH"
);
}
);
userData = {
assembly = "PUSHB[ ]	/* 7 values pushed */\01230 24 2 1 2 1 76 \012MPPEM[ ]	/* MeasurePixelPerEm */\012PUSHB[ ]	/* 1 value pushed */\01225 \012LT[ ]	/* LessThan */\012IF[ ]	/* If */\012NPUSHB[ ]	/* 22 values pushed */\0124 1 2 2 0 97 7 6 8 3 0 0 40 77 5 3 2 1 1 32 1 78 \012ELSE[ ]	/* Else */\012NPUSHB[ ]	/* 26 values pushed */\0120 6 6 34 77 4 1 2 2 0 97 7 8 2 0 0 40 77 5 3 2 1 1 32 1 78 \012EIF[ ]	/* EndIf */\012NPUSHB[ ]	/* 23 values pushed */\0121 0 29 27 23 22 21 20 17 15 13 12 9 7 5 4 0 33 1 33 9 8 22 \012CALL[ ]	/* CallFunction */";
};
width = 1914;
},
{
layerId = "742C6D49-27A7-4CE6-BB95-CE3E85DCFAA1";
paths = (
{
closed = 1;
nodes = (
"1344 1139 OFFCURVE",
"1210 1090 OFFCURVE",
"1142 975 CURVE",
"1115 975 LINE",
"1052 1087 OFFCURVE",
"939 1139 OFFCURVE",
"775 1139 CURVE SMOOTH",
"647 1139 OFFCURVE",
"518 1090 OFFCURVE",
"450 975 CURVE",
"433 975 LINE",
"392 1118 LINE",
"159 1118 LINE",
"159 0 LINE",
"464 0 LINE",
"464 526 LINE SMOOTH",
"464 765 OFFCURVE",
"518 895 OFFCURVE",
"687 895 CURVE SMOOTH",
"799 895 OFFCURVE",
"855 814 OFFCURVE",
"855 653 CURVE SMOOTH",
"855 0 LINE",
"1160 0 LINE",
"1160 561 LINE SMOOTH",
"1160 777 OFFCURVE",
"1223 895 OFFCURVE",
"1384 895 CURVE SMOOTH",
"1496 895 OFFCURVE",
"1552 814 OFFCURVE",
"1552 653 CURVE SMOOTH",
"1552 0 LINE",
"1857 0 LINE",
"1857 729 LINE SMOOTH",
"1857 1016 OFFCURVE",
"1725 1139 OFFCURVE",
"1472 1139 CURVE SMOOTH"
);
}
);
width = 2011;
},
{
layerId = "1AE80326-82F5-491E-9ED8-F639C1D819D6";
paths = (
{
closed = 1;
nodes = (
"1376 1153 OFFCURVE",
"1259 1096 OFFCURVE",
"1188 995 CURVE",
"1175 995 LINE",
"1107 1094 OFFCURVE",
"1004 1153 OFFCURVE",
"837 1153 CURVE SMOOTH",
"672 1153 OFFCURVE",
"558 1086 OFFCURVE",
"497 993 CURVE",
"487 993 LINE",
"430 1133 LINE",
"135 1133 LINE",
"135 0 LINE",
"526 0 LINE",
"526 496 LINE SMOOTH",
"526 720 OFFCURVE",
"565 846 OFFCURVE",
"698 846 CURVE SMOOTH",
"786 846 OFFCURVE",
"829 780 OFFCURVE",
"829 616 CURVE SMOOTH",
"829 0 LINE",
"1220 0 LINE",
"1220 528 LINE SMOOTH",
"1220 731 OFFCURVE",
"1263 846 OFFCURVE",
"1388 846 CURVE SMOOTH",
"1479 846 OFFCURVE",
"1526 788 OFFCURVE",
"1526 616 CURVE SMOOTH",
"1526 0 LINE",
"1917 0 LINE",
"1917 737 LINE SMOOTH",
"1917 1026 OFFCURVE",
"1777 1153 OFFCURVE",
"1517 1153 CURVE SMOOTH"
);
}
);
width = 2048;
}
);
note = m;
unicode = 006D;
},
{
glyphname = n;
lastChange = "2021-05-21 12:45:21 +0000";
layers = (
{
layerId = "89D8C5C7-992A-4B79-A2F2-D8D3CE0BA992";
paths = (
{
closed = 1;
nodes = (
"480 1102 OFFCURVE",
"376 1049 OFFCURVE",
"311 974 CURVE SMOOTH",
"278 937 OFFCURVE",
"254 897 OFFCURVE",
"239 854 CURVE",
"235 854 LINE",
"227 1081 LINE",
"184 1081 LINE",
"184 0 LINE",
"237 0 LINE",
"237 618 LINE SMOOTH",
"237 914 OFFCURVE",
"397 1051 OFFCURVE",
"633 1051 CURVE SMOOTH",
"832 1051 OFFCURVE",
"948 947 OFFCURVE",
"948 707 CURVE SMOOTH",
"948 0 LINE",
"1001 0 LINE",
"1001 709 LINE SMOOTH",
"1001 976 OFFCURVE",
"865 1102 OFFCURVE",
"633 1102 CURVE SMOOTH"
);
}
);
width = 1173;
},
{
layerId = "963BFE9B-9129-4C18-A3F3-46AD815B745B";
paths = (
{
closed = 1;
nodes = (
"482 1110 OFFCURVE",
"356 1021 OFFCURVE",
"299 901 CURVE",
"291 901 LINE",
"274 1090 LINE",
"180 1090 LINE",
"180 0 LINE",
"295 0 LINE",
"295 594 LINE SMOOTH",
"295 870 OFFCURVE",
"415 1008 OFFCURVE",
"655 1008 CURVE SMOOTH",
"838 1008 OFFCURVE",
"934 912 OFFCURVE",
"934 705 CURVE SMOOTH",
"934 0 LINE",
"1050 0 LINE",
"1050 713 LINE SMOOTH",
"1050 986 OFFCURVE",
"916 1110 OFFCURVE",
"667 1110 CURVE SMOOTH"
);
}
);
width = 1220;
},
{
layerId = "A10A3B8F-5047-4E3E-80F3-6554B53DC79D";
paths = (
{
closed = 1;
nodes = (
"563 1118 OFFCURVE",
"428 1063 OFFCURVE",
"356 948 CURVE",
"346 948 LINE",
"319 1098 LINE",
"174 1098 LINE",
"174 0 LINE",
"354 0 LINE",
"354 569 LINE SMOOTH",
"354 826 OFFCURVE",
"432 967 OFFCURVE",
"676 967 CURVE SMOOTH",
"840 967 OFFCURVE",
"922 879 OFFCURVE",
"922 702 CURVE SMOOTH",
"922 0 LINE",
"1100 0 LINE",
"1100 715 LINE SMOOTH",
"1100 996 OFFCURVE",
"965 1118 OFFCURVE",
"702 1118 CURVE SMOOTH"
);
}
);
userData = {
assembly = "PUSHB[ ]	/* 6 values pushed */\01216 1 1 2 1 76 \012MPPEM[ ]	/* MeasurePixelPerEm */\012PUSHB[ ]	/* 1 value pushed */\01225 \012LT[ ]	/* LessThan */\012IF[ ]	/* If */\012NPUSHB[ ]	/* 19 values pushed */\0120 2 2 0 97 4 5 2 0 0 40 77 3 1 1 1 32 1 78 \012ELSE[ ]	/* Else */\012NPUSHB[ ]	/* 23 values pushed */\0120 4 4 34 77 0 2 2 0 97 5 1 0 0 40 77 3 1 1 1 32 1 78 \012EIF[ ]	/* EndIf */\012NPUSHB[ ]	/* 17 values pushed */\0121 0 15 14 13 12 9 7 5 4 0 19 1 19 6 8 22 \012CALL[ ]	/* CallFunction */";
};
width = 1265;
},
{
layerId = "742C6D49-27A7-4CE6-BB95-CE3E85DCFAA1";
paths = (
{
closed = 1;
nodes = (
"654 1139 OFFCURVE",
"521 1090 OFFCURVE",
"450 975 CURVE",
"433 975 LINE",
"392 1118 LINE",
"159 1118 LINE",
"159 0 LINE",
"464 0 LINE",
"464 526 LINE SMOOTH",
"464 765 OFFCURVE",
"521 895 OFFCURVE",
"706 895 CURVE SMOOTH",
"831 895 OFFCURVE",
"886 814 OFFCURVE",
"886 653 CURVE SMOOTH",
"886 0 LINE",
"1191 0 LINE",
"1191 729 LINE SMOOTH",
"1191 1016 OFFCURVE",
"1034 1139 OFFCURVE",
"794 1139 CURVE SMOOTH"
);
}
);
width = 1345;
},
{
layerId = "1AE80326-82F5-491E-9ED8-F639C1D819D6";
paths = (
{
closed = 1;
nodes = (
"685 1153 OFFCURVE",
"569 1090 OFFCURVE",
"497 983 CURVE",
"483 983 LINE",
"430 1133 LINE",
"135 1133 LINE",
"135 0 LINE",
"526 0 LINE",
"526 496 LINE SMOOTH",
"526 720 OFFCURVE",
"565 846 OFFCURVE",
"713 846 CURVE SMOOTH",
"808 846 OFFCURVE",
"850 769 OFFCURVE",
"850 618 CURVE SMOOTH",
"850 0 LINE",
"1241 0 LINE",
"1241 737 LINE SMOOTH",
"1241 1026 OFFCURVE",
"1079 1153 OFFCURVE",
"844 1153 CURVE SMOOTH"
);
}
);
width = 1372;
}
);
note = n;
unicode = 006E;
},
{
glyphname = o;
lastChange = "2021-05-21 12:45:21 +0000";
layers = (
{
layerId = "89D8C5C7-992A-4B79-A2F2-D8D3CE0BA992";
paths = (
{
closed = 1;
nodes = (
"1054 748 OFFCURVE",
"996 927 OFFCURVE",
"862 1027 CURVE SMOOTH",
"795 1077 OFFCURVE",
"706 1102 OFFCURVE",
"597 1102 CURVE SMOOTH",
"297 1102 OFFCURVE",
"120 885 OFFCURVE",
"120 541 CURVE SMOOTH",
"120 328 OFFCURVE",
"188 152 OFFCURVE",
"326 54 CURVE SMOOTH",
"395 5 OFFCURVE",
"481 -20 OFFCURVE",
"585 -20 CURVE SMOOTH",
"798 -20 OFFCURVE",
"937 85 OFFCURVE",
"1004 254 CURVE SMOOTH",
"1037 339 OFFCURVE",
"1054 434 OFFCURVE",
"1054 541 CURVE SMOOTH"
);
},
{
closed = 1;
nodes = (
"175 860 OFFCURVE",
"326 1051 OFFCURVE",
"597 1051 CURVE SMOOTH",
"789 1051 OFFCURVE",
"906 952 OFFCURVE",
"959 798 CURVE SMOOTH",
"986 721 OFFCURVE",
"999 635 OFFCURVE",
"999 541 CURVE SMOOTH",
"999 344 OFFCURVE",
"942 184 OFFCURVE",
"820 97 CURVE SMOOTH",
"759 53 OFFCURVE",
"680 31 OFFCURVE",
"585 31 CURVE SMOOTH",
"400 31 OFFCURVE",
"280 122 OFFCURVE",
"220 275 CURVE SMOOTH",
"190 351 OFFCURVE",
"175 440 OFFCURVE",
"175 541 CURVE SMOOTH"
);
}
);
width = 1177;
},
{
layerId = "963BFE9B-9129-4C18-A3F3-46AD815B745B";
paths = (
{
closed = 1;
nodes = (
"1091 772 OFFCURVE",
"1016 946 OFFCURVE",
"873 1040 CURVE SMOOTH",
"801 1087 OFFCURVE",
"713 1110 OFFCURVE",
"610 1110 CURVE SMOOTH",
"303 1110 OFFCURVE",
"116 900 OFFCURVE",
"116 545 CURVE SMOOTH",
"116 316 OFFCURVE",
"197 142 OFFCURVE",
"342 50 CURVE SMOOTH",
"414 3 OFFCURVE",
"500 -20 OFFCURVE",
"601 -20 CURVE SMOOTH",
"812 -20 OFFCURVE",
"959 79 OFFCURVE",
"1035 248 CURVE SMOOTH",
"1072 333 OFFCURVE",
"1091 432 OFFCURVE",
"1091 545 CURVE SMOOTH"
);
},
{
closed = 1;
nodes = (
"237 834 OFFCURVE",
"359 1008 OFFCURVE",
"608 1008 CURVE SMOOTH",
"780 1008 OFFCURVE",
"884 924 OFFCURVE",
"933 785 CURVE SMOOTH",
"958 715 OFFCURVE",
"970 635 OFFCURVE",
"970 545 CURVE SMOOTH",
"970 266 OFFCURVE",
"856 80 OFFCURVE",
"601 80 CURVE SMOOTH",
"350 80 OFFCURVE",
"237 266 OFFCURVE",
"237 545 CURVE SMOOTH"
);
}
);
width = 1208;
},
{
layerId = "A10A3B8F-5047-4E3E-80F3-6554B53DC79D";
paths = (
{
closed = 1;
nodes = (
"1128 794 OFFCURVE",
"1037 963 OFFCURVE",
"884 1052 CURVE SMOOTH",
"807 1096 OFFCURVE",
"720 1118 OFFCURVE",
"622 1118 CURVE SMOOTH",
"305 1118 OFFCURVE",
"112 914 OFFCURVE",
"112 551 CURVE SMOOTH",
"112 308 OFFCURVE",
"205 135 OFFCURVE",
"357 47 CURVE SMOOTH",
"432 2 OFFCURVE",
"519 -20 OFFCURVE",
"616 -20 CURVE SMOOTH",
"929 -20 OFFCURVE",
"1128 188 OFFCURVE",
"1128 551 CURVE SMOOTH"
);
},
{
closed = 1;
nodes = (
"298 810 OFFCURVE",
"394 967 OFFCURVE",
"618 967 CURVE SMOOTH",
"842 967 OFFCURVE",
"941 810 OFFCURVE",
"941 551 CURVE SMOOTH",
"941 291 OFFCURVE",
"841 129 OFFCURVE",
"620 129 CURVE SMOOTH",
"396 129 OFFCURVE",
"298 291 OFFCURVE",
"298 551 CURVE SMOOTH"
);
}
);
userData = {
assembly = "NPUSHB[ ]	/* 28 values pushed */\0120 3 3 1 97 0 1 1 40 77 0 2 2 0 97 0 0 0 38 0 78 36 37 37 34 4 8 26 \012CALL[ ]	/* CallFunction */";
};
width = 1239;
},
{
layerId = "742C6D49-27A7-4CE6-BB95-CE3E85DCFAA1";
paths = (
{
closed = 1;
nodes = (
"1175 806 OFFCURVE",
"1076 982 OFFCURVE",
"915 1072 CURVE SMOOTH",
"834 1117 OFFCURVE",
"742 1139 OFFCURVE",
"637 1139 CURVE SMOOTH",
"298 1139 OFFCURVE",
"92 933 OFFCURVE",
"92 561 CURVE SMOOTH",
"92 313 OFFCURVE",
"190 138 OFFCURVE",
"353 48 CURVE SMOOTH",
"434 3 OFFCURVE",
"527 -20 OFFCURVE",
"631 -20 CURVE SMOOTH",
"967 -20 OFFCURVE",
"1175 190 OFFCURVE",
"1175 561 CURVE SMOOTH"
);
},
{
closed = 1;
nodes = (
"403 782 OFFCURVE",
"472 893 OFFCURVE",
"633 893 CURVE SMOOTH",
"797 893 OFFCURVE",
"864 782 OFFCURVE",
"864 561 CURVE SMOOTH",
"864 340 OFFCURVE",
"796 225 OFFCURVE",
"635 225 CURVE SMOOTH",
"471 225 OFFCURVE",
"403 340 OFFCURVE",
"403 561 CURVE SMOOTH"
);
}
);
width = 1267;
},
{
layerId = "1AE80326-82F5-491E-9ED8-F639C1D819D6";
paths = (
{
closed = 1;
nodes = (
"1216 821 OFFCURVE",
"1113 996 OFFCURVE",
"945 1086 CURVE SMOOTH",
"861 1131 OFFCURVE",
"764 1153 OFFCURVE",
"655 1153 CURVE SMOOTH",
"300 1153 OFFCURVE",
"86 944 OFFCURVE",
"86 569 CURVE SMOOTH",
"86 318 OFFCURVE",
"189 140 OFFCURVE",
"358 49 CURVE SMOOTH",
"443 3 OFFCURVE",
"540 -20 OFFCURVE",
"649 -20 CURVE SMOOTH",
"1001 -20 OFFCURVE",
"1216 190 OFFCURVE",
"1216 569 CURVE SMOOTH"
);
},
{
closed = 1;
nodes = (
"483 761 OFFCURVE",
"531 862 OFFCURVE",
"651 862 CURVE SMOOTH",
"774 862 OFFCURVE",
"819 761 OFFCURVE",
"819 569 CURVE SMOOTH",
"819 376 OFFCURVE",
"773 270 OFFCURVE",
"653 270 CURVE SMOOTH",
"530 270 OFFCURVE",
"483 376 OFFCURVE",
"483 569 CURVE SMOOTH"
);
}
);
width = 1304;
}
);
note = o;
unicode = 006F;
},
{
glyphname = p;
lastChange = "2021-05-21 12:45:21 +0000";
layers = (
{
layerId = "89D8C5C7-992A-4B79-A2F2-D8D3CE0BA992";
paths = (
{
closed = 1;
nodes = (
"490 1102 OFFCURVE",
"381 1043 OFFCURVE",
"313 959 CURVE SMOOTH",
"279 916 OFFCURVE",
"254 871 OFFCURVE",
"239 823 CURVE",
"235 823 LINE",
"231 1081 LINE",
"186 1081 LINE",
"186 -475 LINE",
"239 -475 LINE",
"239 -31 LINE SMOOTH",
"239 54 OFFCURVE",
"238 145 OFFCURVE",
"235 238 CURVE",
"239 238 LINE",
"286 95 OFFCURVE",
"404 -20 OFFCURVE",
"620 -20 CURVE SMOOTH",
"909 -20 OFFCURVE",
"1077 188 OFFCURVE",
"1077 551 CURVE SMOOTH",
"1077 911 OFFCURVE",
"928 1102 OFFCURVE",
"641 1102 CURVE SMOOTH"
);
},
{
closed = 1;
nodes = (
"889 1051 OFFCURVE",
"1022 890 OFFCURVE",
"1022 551 CURVE SMOOTH",
"1022 207 OFFCURVE",
"872 31 OFFCURVE",
"620 31 CURVE SMOOTH",
"388 31 OFFCURVE",
"239 186 OFFCURVE",
"239 537 CURVE SMOOTH",
"239 543 LINE SMOOTH",
"239 862 OFFCURVE",
"378 1051 OFFCURVE",
"641 1051 CURVE SMOOTH"
);
}
);
width = 1193;
},
{
layerId = "963BFE9B-9129-4C18-A3F3-46AD815B745B";
paths = (
{
closed = 1;
nodes = (
"466 1110 OFFCURVE",
"352 1005 OFFCURVE",
"297 885 CURVE",
"291 885 LINE",
"276 1090 LINE",
"180 1090 LINE",
"180 -483 LINE",
"297 -483 LINE",
"297 -37 LINE SMOOTH",
"297 -2 OFFCURVE",
"296 36 OFFCURVE",
"294 76 CURVE SMOOTH",
"292 115 OFFCURVE",
"290 153 OFFCURVE",
"289 188 CURVE",
"297 188 LINE",
"352 73 OFFCURVE",
"464 -20 OFFCURVE",
"657 -20 CURVE SMOOTH",
"938 -20 OFFCURVE",
"1112 179 OFFCURVE",
"1112 551 CURVE SMOOTH",
"1112 922 OFFCURVE",
"946 1110 OFFCURVE",
"667 1110 CURVE SMOOTH"
);
},
{
closed = 1;
nodes = (
"878 1008 OFFCURVE",
"991 845 OFFCURVE",
"991 553 CURVE SMOOTH",
"991 256 OFFCURVE",
"867 80 OFFCURVE",
"643 80 CURVE SMOOTH",
"408 80 OFFCURVE",
"297 233 OFFCURVE",
"297 545 CURVE SMOOTH",
"297 565 LINE SMOOTH",
"300 852 OFFCURVE",
"411 1008 OFFCURVE",
"651 1008 CURVE SMOOTH"
);
}
);
width = 1226;
},
{
layerId = "A10A3B8F-5047-4E3E-80F3-6554B53DC79D";
paths = (
{
closed = 1;
nodes = (
"519 1118 OFFCURVE",
"419 1044 OFFCURVE",
"354 948 CURVE",
"346 948 LINE",
"321 1098 LINE",
"174 1098 LINE",
"174 -492 LINE",
"354 -492 LINE",
"354 -41 LINE SMOOTH",
"354 -15 OFFCURVE",
"352 16 OFFCURVE",
"349 51 CURVE SMOOTH",
"346 86 OFFCURVE",
"343 116 OFFCURVE",
"342 139 CURVE",
"354 139 LINE",
"417 52 OFFCURVE",
"525 -20 OFFCURVE",
"694 -20 CURVE SMOOTH",
"967 -20 OFFCURVE",
"1147 176 OFFCURVE",
"1147 551 CURVE SMOOTH",
"1147 931 OFFCURVE",
"967 1118 OFFCURVE",
"696 1118 CURVE SMOOTH"
);
},
{
closed = 1;
nodes = (
"866 967 OFFCURVE",
"960 804 OFFCURVE",
"960 553 CURVE SMOOTH",
"960 389 OFFCURVE",
"919 256 OFFCURVE",
"832 184 CURVE SMOOTH",
"788 147 OFFCURVE",
"733 129 OFFCURVE",
"668 129 CURVE SMOOTH",
"427 129 OFFCURVE",
"354 280 OFFCURVE",
"354 551 CURVE SMOOTH",
"354 586 LINE SMOOTH",
"357 842 OFFCURVE",
"440 967 OFFCURVE",
"663 967 CURVE SMOOTH"
);
}
);
userData = {
assembly = "PUSHB[ ]	/* 7 values pushed */\01218 9 2 5 4 1 76 \012MPPEM[ ]	/* MeasurePixelPerEm */\012PUSHB[ ]	/* 1 value pushed */\01225 \012LT[ ]	/* LessThan */\012IF[ ]	/* If */\012NPUSHB[ ]	/* 29 values pushed */\0127 1 4 4 0 97 3 6 2 0 0 40 77 0 5 5 1 97 0 1 1 38 77 0 2 2 36 2 78 \012ELSE[ ]	/* Else */\012NPUSHB[ ]	/* 33 values pushed */\0120 3 3 34 77 7 1 4 4 0 97 6 1 0 0 40 77 0 5 5 1 97 0 1 1 38 77 0 2 2 36 2 78 \012EIF[ ]	/* EndIf */\012NPUSHB[ ]	/* 23 values pushed */\01223 22 1 0 30 28 22 35 23 35 17 16 15 14 7 5 0 21 1 21 8 8 22 \012CALL[ ]	/* CallFunction */";
};
width = 1259;
},
{
layerId = "742C6D49-27A7-4CE6-BB95-CE3E85DCFAA1";
paths = (
{
closed = 1;
nodes = (
"621 1139 OFFCURVE",
"524 1062 OFFCURVE",
"464 973 CURVE",
"450 973 LINE",
"407 1118 LINE",
"159 1118 LINE",
"159 -492 LINE",
"464 -492 LINE",
"464 -41 LINE SMOOTH",
"464 11 OFFCURVE",
"459 66 OFFCURVE",
"448 123 CURVE",
"464 123 LINE",
"524 50 OFFCURVE",
"613 -20 OFFCURVE",
"773 -20 CURVE SMOOTH",
"1025 -20 OFFCURVE",
"1203 178 OFFCURVE",
"1203 561 CURVE SMOOTH",
"1203 941 OFFCURVE",
"1033 1139 OFFCURVE",
"782 1139 CURVE SMOOTH"
);
},
{
closed = 1;
nodes = (
"822 895 OFFCURVE",
"892 785 OFFCURVE",
"892 565 CURVE SMOOTH",
"892 346 OFFCURVE",
"827 227 OFFCURVE",
"687 227 CURVE SMOOTH",
"518 227 OFFCURVE",
"464 347 OFFCURVE",
"464 563 CURVE SMOOTH",
"464 596 LINE SMOOTH",
"467 795 OFFCURVE",
"526 895 OFFCURVE",
"683 895 CURVE SMOOTH"
);
}
);
width = 1296;
},
{
layerId = "1AE80326-82F5-491E-9ED8-F639C1D819D6";
paths = (
{
closed = 1;
nodes = (
"668 1153 OFFCURVE",
"581 1077 OFFCURVE",
"526 989 CURVE",
"508 989 LINE",
"452 1133 LINE",
"135 1133 LINE",
"135 -492 LINE",
"526 -492 LINE",
"526 -78 LINE SMOOTH",
"526 2 OFFCURVE",
"519 59 OFFCURVE",
"514 111 CURVE",
"526 111 LINE",
"575 51 OFFCURVE",
"656 -20 OFFCURVE",
"815 -20 CURVE SMOOTH",
"974 -20 OFFCURVE",
"1102 69 OFFCURVE",
"1175 245 CURVE SMOOTH",
"1211 333 OFFCURVE",
"1229 441 OFFCURVE",
"1229 569 CURVE SMOOTH",
"1229 946 OFFCURVE",
"1079 1153 OFFCURVE",
"827 1153 CURVE SMOOTH"
);
},
{
closed = 1;
nodes = (
"777 846 OFFCURVE",
"831 773 OFFCURVE",
"831 573 CURVE SMOOTH",
"831 372 OFFCURVE",
"781 295 OFFCURVE",
"682 295 CURVE SMOOTH",
"562 295 OFFCURVE",
"526 391 OFFCURVE",
"526 571 CURVE SMOOTH",
"526 602 LINE SMOOTH",
"529 763 OFFCURVE",
"565 846 OFFCURVE",
"680 846 CURVE SMOOTH"
);
}
);
width = 1316;
}
);
note = p;
unicode = 0070;
},
{
glyphname = q;
lastChange = "2021-05-21 12:45:21 +0000";
layers = (
{
layerId = "89D8C5C7-992A-4B79-A2F2-D8D3CE0BA992";
paths = (
{
closed = 1;
nodes = (
"960 1081 LINE",
"952 868 LINE",
"948 868 LINE",
"901 997 OFFCURVE",
"776 1102 OFFCURVE",
"583 1102 CURVE SMOOTH",
"362 1102 OFFCURVE",
"226 991 OFFCURVE",
"162 820 CURVE SMOOTH",
"130 735 OFFCURVE",
"114 640 OFFCURVE",
"114 537 CURVE SMOOTH",
"114 170 OFFCURVE",
"263 -23 OFFCURVE",
"550 -23 CURVE SMOOTH",
"758 -23 OFFCURVE",
"905 91 OFFCURVE",
"952 250 CURVE",
"956 250 LINE",
"953 182 OFFCURVE",
"952 71 OFFCURVE",
"952 6 CURVE SMOOTH",
"952 -475 LINE",
"1005 -475 LINE",
"1005 1081 LINE"
);
},
{
closed = 1;
nodes = (
"296 29 OFFCURVE",
"169 198 OFFCURVE",
"169 537 CURVE SMOOTH",
"169 864 OFFCURVE",
"312 1051 OFFCURVE",
"583 1051 CURVE SMOOTH",
"831 1051 OFFCURVE",
"952 880 OFFCURVE",
"952 563 CURVE SMOOTH",
"952 543 LINE SMOOTH",
"952 223 OFFCURVE",
"826 29 OFFCURVE",
"550 29 CURVE SMOOTH"
);
}
);
width = 1193;
},
{
layerId = "963BFE9B-9129-4C18-A3F3-46AD815B745B";
paths = (
{
closed = 1;
nodes = (
"950 1090 LINE",
"933 909 LINE",
"927 909 LINE",
"872 1018 OFFCURVE",
"758 1110 OFFCURVE",
"573 1110 CURVE SMOOTH",
"272 1110 OFFCURVE",
"114 885 OFFCURVE",
"114 541 CURVE SMOOTH",
"114 172 OFFCURVE",
"278 -20 OFFCURVE",
"554 -20 CURVE SMOOTH",
"746 -20 OFFCURVE",
"872 72 OFFCURVE",
"927 199 CURVE",
"935 199 LINE",
"930 142 OFFCURVE",
"929 49 OFFCURVE",
"929 -8 CURVE SMOOTH",
"929 -483 LINE",
"1044 -483 LINE",
"1044 1090 LINE"
);
},
{
closed = 1;
nodes = (
"344 78 OFFCURVE",
"233 240 OFFCURVE",
"233 541 CURVE SMOOTH",
"233 833 OFFCURVE",
"350 1010 OFFCURVE",
"585 1010 CURVE SMOOTH",
"828 1010 OFFCURVE",
"929 853 OFFCURVE",
"929 553 CURVE SMOOTH",
"929 524 LINE SMOOTH",
"926 237 OFFCURVE",
"824 78 OFFCURVE",
"573 78 CURVE SMOOTH"
);
}
);
width = 1226;
},
{
layerId = "A10A3B8F-5047-4E3E-80F3-6554B53DC79D";
paths = (
{
closed = 1;
nodes = (
"915 948 LINE",
"907 948 LINE",
"840 1044 OFFCURVE",
"737 1118 OFFCURVE",
"565 1118 CURVE SMOOTH",
"297 1118 OFFCURVE",
"112 923 OFFCURVE",
"112 547 CURVE SMOOTH",
"112 170 OFFCURVE",
"294 -20 OFFCURVE",
"558 -20 CURVE SMOOTH",
"734 -20 OFFCURVE",
"839 55 OFFCURVE",
"903 147 CURVE",
"915 147 LINE",
"907 102 OFFCURVE",
"905 26 OFFCURVE",
"905 -23 CURVE SMOOTH",
"905 -492 LINE",
"1085 -492 LINE",
"1085 1098 LINE",
"941 1098 LINE"
);
},
{
closed = 1;
nodes = (
"392 129 OFFCURVE",
"298 283 OFFCURVE",
"298 543 CURVE SMOOTH",
"298 802 OFFCURVE",
"393 969 OFFCURVE",
"589 969 CURVE SMOOTH",
"826 969 OFFCURVE",
"907 824 OFFCURVE",
"907 545 CURVE SMOOTH",
"907 508 LINE SMOOTH",
"904 251 OFFCURVE",
"817 129 OFFCURVE",
"593 129 CURVE SMOOTH"
);
}
);
userData = {
assembly = "PUSHB[ ]	/* 7 values pushed */\01218 5 2 4 5 1 76 \012MPPEM[ ]	/* MeasurePixelPerEm */\012PUSHB[ ]	/* 1 value pushed */\01225 \012LT[ ]	/* LessThan */\012IF[ ]	/* If */\012NPUSHB[ ]	/* 28 values pushed */\0120 5 5 2 97 3 1 2 2 40 77 6 1 4 4 1 97 0 1 1 38 77 0 0 0 36 0 78 \012ELSE[ ]	/* Else */\012NPUSHB[ ]	/* 32 values pushed */\0120 3 3 34 77 0 5 5 2 97 0 2 2 40 77 6 1 4 4 1 97 0 1 1 38 77 0 0 0 36 0 78 \012EIF[ ]	/* EndIf */\012NPUSHB[ ]	/* 15 values pushed */\01223 22 30 28 22 34 23 34 20 36 39 16 7 8 26 \012CALL[ ]	/* CallFunction */";
};
width = 1259;
},
{
layerId = "742C6D49-27A7-4CE6-BB95-CE3E85DCFAA1";
paths = (
{
closed = 1;
nodes = (
"878 1118 LINE",
"852 975 LINE",
"844 975 LINE",
"781 1067 OFFCURVE",
"684 1139 OFFCURVE",
"520 1139 CURVE SMOOTH",
"267 1139 OFFCURVE",
"92 940 OFFCURVE",
"92 557 CURVE SMOOTH",
"92 177 OFFCURVE",
"262 -20 OFFCURVE",
"514 -20 CURVE SMOOTH",
"678 -20 OFFCURVE",
"774 53 OFFCURVE",
"831 145 CURVE",
"844 145 LINE",
"835 89 OFFCURVE",
"831 33 OFFCURVE",
"831 -23 CURVE SMOOTH",
"831 -492 LINE",
"1136 -492 LINE",
"1136 1118 LINE"
);
},
{
closed = 1;
nodes = (
"476 219 OFFCURVE",
"403 330 OFFCURVE",
"403 553 CURVE SMOOTH",
"403 772 OFFCURVE",
"474 891 OFFCURVE",
"618 891 CURVE SMOOTH",
"795 891 OFFCURVE",
"852 771 OFFCURVE",
"852 555 CURVE SMOOTH",
"852 518 LINE SMOOTH",
"847 319 OFFCURVE",
"791 219 OFFCURVE",
"622 219 CURVE SMOOTH"
);
}
);
width = 1296;
},
{
layerId = "1AE80326-82F5-491E-9ED8-F639C1D819D6";
paths = (
{
closed = 1;
nodes = (
"844 1133 LINE",
"815 993 LINE",
"807 993 LINE",
"747 1084 OFFCURVE",
"655 1153 OFFCURVE",
"498 1153 CURVE SMOOTH",
"254 1153 OFFCURVE",
"86 948 OFFCURVE",
"86 565 CURVE SMOOTH",
"86 184 OFFCURVE",
"251 -20 OFFCURVE",
"492 -20 CURVE SMOOTH",
"647 -20 OFFCURVE",
"736 54 OFFCURVE",
"791 143 CURVE",
"803 143 LINE",
"795 88 OFFCURVE",
"791 33 OFFCURVE",
"791 -23 CURVE SMOOTH",
"791 -492 LINE",
"1182 -492 LINE",
"1182 1133 LINE"
);
},
{
closed = 1;
nodes = (
"536 283 OFFCURVE",
"483 363 OFFCURVE",
"483 559 CURVE SMOOTH",
"483 753 OFFCURVE",
"537 850 OFFCURVE",
"645 850 CURVE SMOOTH",
"785 850 OFFCURVE",
"821 750 OFFCURVE",
"821 571 CURVE SMOOTH",
"821 524 LINE SMOOTH",
"821 363 OFFCURVE",
"776 283 OFFCURVE",
"651 283 CURVE SMOOTH"
);
}
);
width = 1316;
}
);
note = q;
unicode = 0071;
},
{
glyphname = r;
lastChange = "2021-05-21 12:45:21 +0000";
layers = (
{
layerId = "89D8C5C7-992A-4B79-A2F2-D8D3CE0BA992";
paths = (
{
closed = 1;
nodes = (
"394 1098 OFFCURVE",
"282 1001 OFFCURVE",
"243 874 CURVE",
"239 874 LINE",
"235 1081 LINE",
"186 1081 LINE",
"186 0 LINE",
"239 0 LINE",
"239 608 LINE SMOOTH",
"239 876 OFFCURVE",
"342 1047 OFFCURVE",
"569 1047 CURVE SMOOTH",
"629 1047 OFFCURVE",
"671 1039 OFFCURVE",
"723 1026 CURVE",
"735 1075 LINE",
"686 1088 OFFCURVE",
"634 1098 OFFCURVE",
"569 1098 CURVE SMOOTH"
);
}
);
width = 768;
},
{
layerId = "963BFE9B-9129-4C18-A3F3-46AD815B745B";
paths = (
{
closed = 1;
nodes = (
"463 1108 OFFCURVE",
"352 1008 OFFCURVE",
"297 885 CURVE",
"291 885 LINE",
"278 1090 LINE",
"180 1090 LINE",
"180 0 LINE",
"297 0 LINE",
"297 598 LINE SMOOTH",
"297 841 OFFCURVE",
"421 999 OFFCURVE",
"622 999 CURVE SMOOTH",
"671 999 OFFCURVE",
"714 994 OFFCURVE",
"758 983 CURVE",
"774 1090 LINE",
"733 1102 OFFCURVE",
"683 1108 OFFCURVE",
"626 1108 CURVE SMOOTH"
);
}
);
width = 806;
},
{
layerId = "A10A3B8F-5047-4E3E-80F3-6554B53DC79D";
paths = (
{
closed = 1;
nodes = (
"533 1118 OFFCURVE",
"418 1017 OFFCURVE",
"350 897 CURVE",
"342 897 LINE",
"321 1098 LINE",
"174 1098 LINE",
"174 0 LINE",
"354 0 LINE",
"354 586 LINE SMOOTH",
"354 733 OFFCURVE",
"417 847 OFFCURVE",
"516 908 CURVE SMOOTH",
"565 939 OFFCURVE",
"618 954 OFFCURVE",
"674 954 CURVE SMOOTH",
"709 954 OFFCURVE",
"757 948 OFFCURVE",
"792 940 CURVE",
"815 1106 LINE",
"776 1114 OFFCURVE",
"727 1118 OFFCURVE",
"686 1118 CURVE SMOOTH"
);
}
);
userData = {
assembly = "MPPEM[ ]	/* MeasurePixelPerEm */\012PUSHB[ ]	/* 1 value pushed */\01225 \012LT[ ]	/* LessThan */\012IF[ ]	/* If */\012NPUSHB[ ]	/* 11 values pushed */\0123 1 1 0 16 4 2 2 1 2 76 \012ELSE[ ]	/* Else */\012NPUSHB[ ]	/* 11 values pushed */\0123 1 3 0 16 4 2 2 1 2 76 \012EIF[ ]	/* EndIf */\012MPPEM[ ]	/* MeasurePixelPerEm */\012PUSHB[ ]	/* 1 value pushed */\01225 \012LT[ ]	/* LessThan */\012IF[ ]	/* If */\012NPUSHB[ ]	/* 18 values pushed */\0120 1 1 0 97 3 4 2 0 0 40 77 0 2 2 32 2 78 \012ELSE[ ]	/* Else */\012NPUSHB[ ]	/* 22 values pushed */\0120 3 3 34 77 0 1 1 0 97 4 1 0 0 40 77 0 2 2 32 2 78 \012EIF[ ]	/* EndIf */\012NPUSHB[ ]	/* 15 values pushed */\0121 0 15 14 13 12 8 6 0 19 1 19 5 8 22 \012CALL[ ]	/* CallFunction */";
};
width = 845;
},
{
layerId = "742C6D49-27A7-4CE6-BB95-CE3E85DCFAA1";
paths = (
{
closed = 1;
nodes = (
"633 1139 OFFCURVE",
"515 1045 OFFCURVE",
"450 930 CURVE",
"435 930 LINE",
"390 1118 LINE",
"159 1118 LINE",
"159 0 LINE",
"464 0 LINE",
"464 569 LINE SMOOTH",
"464 712 OFFCURVE",
"528 790 OFFCURVE",
"624 827 CURVE SMOOTH",
"672 845 OFFCURVE",
"722 854 OFFCURVE",
"773 854 CURVE SMOOTH",
"801 854 OFFCURVE",
"841 849 OFFCURVE",
"864 844 CURVE",
"886 1130 LINE",
"862 1137 OFFCURVE",
"813 1139 OFFCURVE",
"784 1139 CURVE SMOOTH"
);
}
);
width = 929;
},
{
layerId = "1AE80326-82F5-491E-9ED8-F639C1D819D6";
paths = (
{
closed = 1;
nodes = (
"691 1153 OFFCURVE",
"569 1064 OFFCURVE",
"506 952 CURVE",
"487 952 LINE",
"426 1133 LINE",
"135 1133 LINE",
"135 0 LINE",
"526 0 LINE",
"526 557 LINE SMOOTH",
"526 693 OFFCURVE",
"587 751 OFFCURVE",
"664 770 CURVE SMOOTH",
"702 779 OFFCURVE",
"737 784 OFFCURVE",
"770 784 CURVE SMOOTH",
"841 784 OFFCURVE",
"876 777 OFFCURVE",
"903 772 CURVE",
"938 1141 LINE",
"927 1142 OFFCURVE",
"910 1145 OFFCURVE",
"887 1148 CURVE SMOOTH",
"864 1151 OFFCURVE",
"841 1153 OFFCURVE",
"819 1153 CURVE SMOOTH"
);
}
);
width = 960;
}
);
note = r;
unicode = 0072;
},
{
glyphname = s;
lastChange = "2021-05-21 12:45:21 +0000";
layers = (
{
layerId = "89D8C5C7-992A-4B79-A2F2-D8D3CE0BA992";
paths = (
{
closed = 1;
nodes = (
"841 411 OFFCURVE",
"762 481 OFFCURVE",
"650 525 CURVE SMOOTH",
"594 546 OFFCURVE",
"536 567 OFFCURVE",
"476 586 CURVE SMOOTH",
"364 621 OFFCURVE",
"267 647 OFFCURVE",
"211 706 CURVE SMOOTH",
"183 735 OFFCURVE",
"169 778 OFFCURVE",
"169 834 CURVE SMOOTH",
"169 978 OFFCURVE",
"290 1051 OFFCURVE",
"487 1051 CURVE SMOOTH",
"595 1051 OFFCURVE",
"715 1025 OFFCURVE",
"792 989 CURVE",
"814 1040 LINE",
"727 1076 OFFCURVE",
"615 1102 OFFCURVE",
"487 1102 CURVE SMOOTH",
"258 1102 OFFCURVE",
"114 999 OFFCURVE",
"114 834 CURVE SMOOTH",
"114 699 OFFCURVE",
"180 635 OFFCURVE",
"285 595 CURVE SMOOTH",
"338 575 OFFCURVE",
"395 556 OFFCURVE",
"458 537 CURVE SMOOTH",
"578 501 OFFCURVE",
"682 467 OFFCURVE",
"742 403 CURVE SMOOTH",
"771 370 OFFCURVE",
"786 327 OFFCURVE",
"786 274 CURVE SMOOTH",
"786 122 OFFCURVE",
"684 31 OFFCURVE",
"435 31 CURVE SMOOTH",
"306 31 OFFCURVE",
"187 58 OFFCURVE",
"79 111 CURVE",
"79 49 LINE",
"158 14 OFFCURVE",
"286 -20 OFFCURVE",
"435 -20 CURVE SMOOTH",
"706 -20 OFFCURVE",
"841 91 OFFCURVE",
"841 274 CURVE SMOOTH"
);
}
);
width = 937;
},
{
layerId = "963BFE9B-9129-4C18-A3F3-46AD815B745B";
paths = (
{
closed = 1;
nodes = (
"864 417 OFFCURVE",
"798 488 OFFCURVE",
"693 537 CURVE SMOOTH",
"640 561 OFFCURVE",
"582 584 OFFCURVE",
"518 606 CURVE SMOOTH",
"393 650 OFFCURVE",
"305 681 OFFCURVE",
"258 732 CURVE SMOOTH",
"235 757 OFFCURVE",
"223 792 OFFCURVE",
"223 836 CURVE SMOOTH",
"223 951 OFFCURVE",
"323 1012 OFFCURVE",
"495 1012 CURVE SMOOTH",
"602 1012 OFFCURVE",
"714 985 OFFCURVE",
"799 946 CURVE",
"839 1042 LINE",
"747 1081 OFFCURVE",
"633 1110 OFFCURVE",
"502 1110 CURVE SMOOTH",
"263 1110 OFFCURVE",
"110 1007 OFFCURVE",
"110 831 CURVE SMOOTH",
"110 703 OFFCURVE",
"170 635 OFFCURVE",
"273 588 CURVE SMOOTH",
"324 565 OFFCURVE",
"383 541 OFFCURVE",
"450 518 CURVE SMOOTH",
"650 450 OFFCURVE",
"749 401 OFFCURVE",
"749 281 CURVE SMOOTH",
"749 154 OFFCURVE",
"659 78 OFFCURVE",
"446 78 CURVE SMOOTH",
"318 78 OFFCURVE",
"190 113 OFFCURVE",
"94 162 CURVE",
"94 49 LINE",
"173 10 OFFCURVE",
"289 -20 OFFCURVE",
"442 -20 CURVE SMOOTH",
"713 -20 OFFCURVE",
"864 89 OFFCURVE",
"864 289 CURVE SMOOTH"
);
}
);
width = 958;
},
{
layerId = "A10A3B8F-5047-4E3E-80F3-6554B53DC79D";
paths = (
{
closed = 1;
nodes = (
"888 420 OFFCURVE",
"836 494 OFFCURVE",
"737 549 CURVE SMOOTH",
"688 576 OFFCURVE",
"628 603 OFFCURVE",
"559 629 CURVE SMOOTH",
"419 681 OFFCURVE",
"338 719 OFFCURVE",
"303 760 CURVE SMOOTH",
"285 781 OFFCURVE",
"276 807 OFFCURVE",
"276 838 CURVE SMOOTH",
"276 919 OFFCURVE",
"356 971 OFFCURVE",
"503 971 CURVE SMOOTH",
"610 971 OFFCURVE",
"712 940 OFFCURVE",
"804 901 CURVE",
"866 1044 LINE",
"765 1088 OFFCURVE",
"649 1118 OFFCURVE",
"516 1118 CURVE SMOOTH",
"269 1118 OFFCURVE",
"104 1014 OFFCURVE",
"104 827 CURVE SMOOTH",
"104 707 OFFCURVE",
"161 637 OFFCURVE",
"262 582 CURVE SMOOTH",
"312 555 OFFCURVE",
"373 527 OFFCURVE",
"444 500 CURVE SMOOTH",
"563 455 OFFCURVE",
"658 409 OFFCURVE",
"692 361 CURVE SMOOTH",
"707 339 OFFCURVE",
"714 314 OFFCURVE",
"714 287 CURVE SMOOTH",
"714 188 OFFCURVE",
"637 125 OFFCURVE",
"454 125 CURVE SMOOTH",
"326 125 OFFCURVE",
"194 169 OFFCURVE",
"106 213 CURVE",
"106 49 LINE",
"191 5 OFFCURVE",
"297 -20 OFFCURVE",
"450 -20 CURVE SMOOTH",
"718 -20 OFFCURVE",
"888 90 OFFCURVE",
"888 303 CURVE SMOOTH"
);
}
);
userData = {
assembly = "NPUSHB[ ]	/* 43 values pushed */\01227 1 3 2 28 7 2 1 3 6 1 0 1 3 76 0 3 3 2 97 0 2 2 40 77 0 1 1 0 97 0 0 0 38 0 78 37 44 37 34 4 8 26 \012CALL[ ]	/* CallFunction */";
};
width = 980;
},
{
layerId = "742C6D49-27A7-4CE6-BB95-CE3E85DCFAA1";
paths = (
{
closed = 1;
nodes = (
"940 463 OFFCURVE",
"887 543 OFFCURVE",
"795 599 CURVE SMOOTH",
"748 627 OFFCURVE",
"693 654 OFFCURVE",
"629 680 CURVE SMOOTH",
"527 722 OFFCURVE",
"437 761 OFFCURVE",
"413 792 CURVE SMOOTH",
"401 806 OFFCURVE",
"395 822 OFFCURVE",
"395 840 CURVE SMOOTH",
"395 889 OFFCURVE",
"440 913 OFFCURVE",
"530 913 CURVE SMOOTH",
"631 913 OFFCURVE",
"727 878 OFFCURVE",
"835 831 CURVE",
"928 1051 LINE",
"793 1114 OFFCURVE",
"674 1139 OFFCURVE",
"534 1139 CURVE SMOOTH",
"267 1139 OFFCURVE",
"92 1035 OFFCURVE",
"92 827 CURVE SMOOTH",
"92 702 OFFCURVE",
"136 623 OFFCURVE",
"225 564 CURVE SMOOTH",
"269 535 OFFCURVE",
"326 505 OFFCURVE",
"397 475 CURVE SMOOTH",
"509 429 OFFCURVE",
"600 385 OFFCURVE",
"624 351 CURVE SMOOTH",
"634 336 OFFCURVE",
"639 318 OFFCURVE",
"639 299 CURVE SMOOTH",
"639 242 OFFCURVE",
"590 203 OFFCURVE",
"473 203 CURVE SMOOTH",
"366 203 OFFCURVE",
"214 242 OFFCURVE",
"94 297 CURVE",
"94 45 LINE",
"206 -2 OFFCURVE",
"307 -20 OFFCURVE",
"463 -20 CURVE SMOOTH",
"779 -20 OFFCURVE",
"940 105 OFFCURVE",
"940 332 CURVE SMOOTH"
);
}
);
width = 1017;
},
{
layerId = "1AE80326-82F5-491E-9ED8-F639C1D819D6";
paths = (
{
closed = 1;
nodes = (
"977 479 OFFCURVE",
"935 563 OFFCURVE",
"849 623 CURVE SMOOTH",
"806 653 OFFCURVE",
"751 682 OFFCURVE",
"686 709 CURVE SMOOTH",
"592 745 OFFCURVE",
"500 783 OFFCURVE",
"477 804 CURVE SMOOTH",
"465 814 OFFCURVE",
"459 827 OFFCURVE",
"459 842 CURVE SMOOTH",
"459 873 OFFCURVE",
"491 889 OFFCURVE",
"555 889 CURVE SMOOTH",
"623 889 OFFCURVE",
"750 857 OFFCURVE",
"862 805 CURVE",
"969 1057 LINE",
"826 1120 OFFCURVE",
"704 1153 OFFCURVE",
"553 1153 CURVE SMOOTH",
"272 1153 OFFCURVE",
"86 1040 OFFCURVE",
"86 819 CURVE SMOOTH",
"86 634 OFFCURVE",
"178 543 OFFCURVE",
"367 467 CURVE SMOOTH",
"463 428 OFFCURVE",
"561 389 OFFCURVE",
"588 365 CURVE SMOOTH",
"601 352 OFFCURVE",
"608 338 OFFCURVE",
"608 322 CURVE SMOOTH",
"608 283 OFFCURVE",
"566 264 OFFCURVE",
"481 264 CURVE SMOOTH",
"397 264 OFFCURVE",
"233 291 OFFCURVE",
"88 356 CURVE",
"88 43 LINE",
"219 -6 OFFCURVE",
"337 -20 OFFCURVE",
"498 -20 CURVE SMOOTH",
"727 -20 OFFCURVE",
"865 46 OFFCURVE",
"929 158 CURVE SMOOTH",
"961 214 OFFCURVE",
"977 277 OFFCURVE",
"977 348 CURVE SMOOTH"
);
}
);
width = 1058;
}
);
note = s;
unicode = 0073;
},
{
glyphname = t;
lastChange = "2021-05-21 12:45:21 +0000";
layers = (
{
layerId = "89D8C5C7-992A-4B79-A2F2-D8D3CE0BA992";
paths = (
{
closed = 1;
nodes = (
"281 31 OFFCURVE",
"239 126 OFFCURVE",
"239 293 CURVE SMOOTH",
"239 1030 LINE",
"591 1030 LINE",
"591 1081 LINE",
"239 1081 LINE",
"239 1350 LINE",
"196 1350 LINE",
"184 1081 LINE",
"20 1075 LINE",
"20 1030 LINE",
"186 1030 LINE",
"186 287 LINE SMOOTH",
"186 95 OFFCURVE",
"242 -20 OFFCURVE",
"434 -20 CURVE SMOOTH",
"505 -20 OFFCURVE",
"550 -7 OFFCURVE",
"595 6 CURVE",
"595 57 LINE",
"550 41 OFFCURVE",
"502 31 OFFCURVE",
"434 31 CURVE SMOOTH"
);
}
);
width = 653;
},
{
layerId = "963BFE9B-9129-4C18-A3F3-46AD815B745B";
paths = (
{
closed = 1;
nodes = (
"364 78 OFFCURVE",
"302 154 OFFCURVE",
"302 307 CURVE SMOOTH",
"302 995 LINE",
"638 995 LINE",
"638 1090 LINE",
"302 1090 LINE",
"302 1350 LINE",
"229 1350 LINE",
"188 1098 LINE",
"26 1061 LINE",
"26 995 LINE",
"188 995 LINE",
"188 303 LINE SMOOTH",
"188 76 OFFCURVE",
"290 -20 OFFCURVE",
"470 -20 CURVE SMOOTH",
"542 -20 OFFCURVE",
"601 -8 OFFCURVE",
"644 8 CURVE",
"644 102 LINE",
"607 89 OFFCURVE",
"547 78 OFFCURVE",
"487 78 CURVE SMOOTH"
);
}
);
width = 696;
},
{
layerId = "A10A3B8F-5047-4E3E-80F3-6554B53DC79D";
paths = (
{
closed = 1;
nodes = (
"439 127 OFFCURVE",
"368 189 OFFCURVE",
"368 324 CURVE SMOOTH",
"368 958 LINE",
"685 958 LINE",
"685 1098 LINE",
"368 1098 LINE",
"368 1350 LINE",
"261 1350 LINE",
"190 1116 LINE",
"32 1044 LINE",
"32 958 LINE",
"188 958 LINE",
"188 319 LINE SMOOTH",
"188 142 OFFCURVE",
"254 49 OFFCURVE",
"351 10 CURVE SMOOTH",
"399 -10 OFFCURVE",
"452 -20 OFFCURVE",
"509 -20 CURVE SMOOTH",
"574 -20 OFFCURVE",
"655 -7 OFFCURVE",
"694 12 CURVE",
"694 150 LINE",
"658 135 OFFCURVE",
"595 127 OFFCURVE",
"540 127 CURVE SMOOTH"
);
}
);
userData = {
assembly = "NPUSHB[ ]	/* 61 values pushed */\01214 1 2 4 3 1 0 2 4 1 1 0 3 76 0 3 4 3 133 5 1 2 2 4 95 0 4 4 34 77 6 1 0 0 1 97 0 1 1 38 1 78 1 0 21 20 19 18 17 16 13 12 8 6 0 24 1 24 7 8 22 \012CALL[ ]	/* CallFunction */";
};
width = 739;
},
{
layerId = "742C6D49-27A7-4CE6-BB95-CE3E85DCFAA1";
paths = (
{
closed = 1;
nodes = (
"551 223 OFFCURVE",
"498 266 OFFCURVE",
"498 350 CURVE SMOOTH",
"498 889 LINE",
"811 889 LINE",
"811 1118 LINE",
"498 1118 LINE",
"498 1356 LINE",
"303 1356 LINE",
"215 1120 LINE",
"47 1018 LINE",
"47 889 LINE",
"192 889 LINE",
"192 350 LINE SMOOTH",
"192 157 OFFCURVE",
"259 56 OFFCURVE",
"364 13 CURVE SMOOTH",
"416 -9 OFFCURVE",
"476 -20 OFFCURVE",
"543 -20 CURVE SMOOTH",
"658 -20 OFFCURVE",
"758 0 OFFCURVE",
"823 31 CURVE",
"823 258 LINE",
"760 237 OFFCURVE",
"699 223 OFFCURVE",
"631 223 CURVE SMOOTH"
);
}
);
width = 888;
},
{
layerId = "1AE80326-82F5-491E-9ED8-F639C1D819D6";
paths = (
{
closed = 1;
nodes = (
"619 289 OFFCURVE",
"583 326 OFFCURVE",
"583 399 CURVE SMOOTH",
"583 840 LINE",
"862 840 LINE",
"862 1133 LINE",
"583 1133 LINE",
"583 1360 LINE",
"327 1360 LINE",
"227 1122 LINE",
"53 999 LINE",
"53 840 LINE",
"190 840 LINE",
"190 373 LINE SMOOTH",
"190 168 OFFCURVE",
"254 61 OFFCURVE",
"366 15 CURVE SMOOTH",
"422 -9 OFFCURVE",
"487 -20 OFFCURVE",
"561 -20 CURVE SMOOTH",
"708 -20 OFFCURVE",
"794 7 OFFCURVE",
"878 43 CURVE",
"878 328 LINE",
"815 305 OFFCURVE",
"758 289 OFFCURVE",
"690 289 CURVE SMOOTH"
);
}
);
width = 942;
}
);
note = t;
unicode = 0074;
},
{
glyphname = u;
lastChange = "2021-05-21 12:45:21 +0000";
layers = (
{
layerId = "89D8C5C7-992A-4B79-A2F2-D8D3CE0BA992";
paths = (
{
closed = 1;
nodes = (
"931 168 OFFCURVE",
"771 31 OFFCURVE",
"536 31 CURVE SMOOTH",
"333 31 OFFCURVE",
"220 141 OFFCURVE",
"220 381 CURVE SMOOTH",
"220 1081 LINE",
"167 1081 LINE",
"167 373 LINE SMOOTH",
"167 116 OFFCURVE",
"295 -20 OFFCURVE",
"536 -20 CURVE SMOOTH",
"688 -20 OFFCURVE",
"792 32 OFFCURVE",
"856 108 CURVE SMOOTH",
"888 145 OFFCURVE",
"912 185 OFFCURVE",
"929 227 CURVE",
"933 227 LINE",
"941 0 LINE",
"984 0 LINE",
"984 1081 LINE",
"931 1081 LINE",
"931 463 LINE SMOOTH"
);
}
);
width = 1173;
},
{
layerId = "963BFE9B-9129-4C18-A3F3-46AD815B745B";
paths = (
{
closed = 1;
nodes = (
"921 219 OFFCURVE",
"801 80 OFFCURVE",
"560 80 CURVE SMOOTH",
"375 80 OFFCURVE",
"282 177 OFFCURVE",
"282 385 CURVE SMOOTH",
"282 1090 LINE",
"163 1090 LINE",
"163 377 LINE SMOOTH",
"163 112 OFFCURVE",
"291 -20 OFFCURVE",
"548 -20 CURVE SMOOTH",
"733 -20 OFFCURVE",
"859 69 OFFCURVE",
"919 186 CURVE",
"925 186 LINE",
"941 0 LINE",
"1037 0 LINE",
"1037 1090 LINE",
"921 1090 LINE",
"921 496 LINE SMOOTH"
);
}
);
width = 1220;
},
{
layerId = "A10A3B8F-5047-4E3E-80F3-6554B53DC79D";
paths = (
{
closed = 1;
nodes = (
"911 270 OFFCURVE",
"830 129 OFFCURVE",
"587 129 CURVE SMOOTH",
"424 129 OFFCURVE",
"343 216 OFFCURVE",
"343 391 CURVE SMOOTH",
"343 1098 LINE",
"161 1098 LINE",
"161 379 LINE SMOOTH",
"161 100 OFFCURVE",
"296 -20 OFFCURVE",
"560 -20 CURVE SMOOTH",
"703 -20 OFFCURVE",
"837 30 OFFCURVE",
"909 145 CURVE",
"917 145 LINE",
"943 0 LINE",
"1091 0 LINE",
"1091 1098 LINE",
"911 1098 LINE",
"911 526 LINE SMOOTH"
);
}
);
userData = {
assembly = "PUSHB[ ]	/* 6 values pushed */\0124 1 4 0 1 76 \012MPPEM[ ]	/* MeasurePixelPerEm */\012PUSHB[ ]	/* 1 value pushed */\01225 \012LT[ ]	/* LessThan */\012IF[ ]	/* If */\012NPUSHB[ ]	/* 18 values pushed */\0123 1 0 0 34 77 0 4 4 1 97 2 1 1 1 32 1 78 \012ELSE[ ]	/* Else */\012NPUSHB[ ]	/* 22 values pushed */\0123 1 0 0 34 77 0 1 1 32 77 0 4 4 2 97 0 2 2 38 2 78 \012EIF[ ]	/* EndIf */\012PUSHB[ ]	/* 8 values pushed */\01234 19 36 17 16 5 8 27 \012CALL[ ]	/* CallFunction */";
};
width = 1265;
},
{
layerId = "742C6D49-27A7-4CE6-BB95-CE3E85DCFAA1";
paths = (
{
closed = 1;
nodes = (
"880 355 OFFCURVE",
"825 223 OFFCURVE",
"638 223 CURVE SMOOTH",
"513 223 OFFCURVE",
"458 304 OFFCURVE",
"458 465 CURVE SMOOTH",
"458 1118 LINE",
"153 1118 LINE",
"153 389 LINE SMOOTH",
"153 102 OFFCURVE",
"310 -20 OFFCURVE",
"550 -20 CURVE SMOOTH",
"690 -20 OFFCURVE",
"823 28 OFFCURVE",
"894 143 CURVE",
"911 143 LINE",
"952 0 LINE",
"1185 0 LINE",
"1185 1118 LINE",
"880 1118 LINE",
"880 592 LINE SMOOTH"
);
}
);
width = 1345;
},
{
layerId = "1AE80326-82F5-491E-9ED8-F639C1D819D6";
paths = (
{
closed = 1;
nodes = (
"846 410 OFFCURVE",
"807 289 OFFCURVE",
"659 289 CURVE SMOOTH",
"564 289 OFFCURVE",
"524 366 OFFCURVE",
"524 514 CURVE SMOOTH",
"524 1133 LINE",
"133 1133 LINE",
"133 395 LINE SMOOTH",
"133 202 OFFCURVE",
"207 80 OFFCURVE",
"328 23 CURVE SMOOTH",
"388 -6 OFFCURVE",
"455 -20 OFFCURVE",
"528 -20 CURVE SMOOTH",
"668 -20 OFFCURVE",
"799 26 OFFCURVE",
"870 141 CURVE",
"893 141 LINE",
"942 0 LINE",
"1237 0 LINE",
"1237 1133 LINE",
"846 1133 LINE",
"846 637 LINE SMOOTH"
);
}
);
width = 1372;
}
);
note = u;
unicode = 0075;
},
{
glyphname = v;
lastChange = "2021-05-21 12:45:21 +0000";
layers = (
{
layerId = "89D8C5C7-992A-4B79-A2F2-D8D3CE0BA992";
paths = (
{
closed = 1;
nodes = (
"825 1081 LINE",
"518 283 LINE SMOOTH",
"501 239 OFFCURVE",
"487 202 OFFCURVE",
"477 171 CURVE SMOOTH",
"466 140 OFFCURVE",
"455 108 OFFCURVE",
"442 74 CURVE",
"438 74 LINE",
"417 142 OFFCURVE",
"398 195 OFFCURVE",
"362 283 CURVE SMOOTH",
"55 1081 LINE",
"0 1081 LINE",
"418 0 LINE",
"463 0 LINE",
"881 1081 LINE"
);
}
);
width = 880;
},
{
layerId = "963BFE9B-9129-4C18-A3F3-46AD815B745B";
paths = (
{
closed = 1;
nodes = (
"836 1090 LINE",
"565 367 LINE SMOOTH",
"533 279 OFFCURVE",
"503 185 OFFCURVE",
"483 117 CURVE",
"475 117 LINE",
"459 185 OFFCURVE",
"429 276 OFFCURVE",
"393 367 CURVE SMOOTH",
"123 1090 LINE",
"0 1090 LINE",
"418 0 LINE",
"543 0 LINE",
"961 1090 LINE"
);
}
);
width = 960;
},
{
layerId = "A10A3B8F-5047-4E3E-80F3-6554B53DC79D";
paths = (
{
closed = 1;
nodes = (
"614 451 LINE SMOOTH",
"593 391 OFFCURVE",
"567 314 OFFCURVE",
"545 245 CURVE SMOOTH",
"534 210 OFFCURVE",
"526 182 OFFCURVE",
"522 160 CURVE",
"514 160 LINE",
"506 204 OFFCURVE",
"485 277 OFFCURVE",
"461 351 CURVE SMOOTH",
"448 388 OFFCURVE",
"437 421 OFFCURVE",
"426 451 CURVE SMOOTH",
"193 1098 LINE",
"0 1098 LINE",
"416 0 LINE",
"623 0 LINE",
"1040 1098 LINE",
"848 1098 LINE"
);
}
);
userData = {
assembly = "NPUSHB[ ]	/* 24 values pushed */\0128 1 0 1 1 76 2 1 1 1 34 77 0 0 0 32 0 78 27 17 16 3 8 25 \012CALL[ ]	/* CallFunction */";
};
width = 1040;
},
{
layerId = "742C6D49-27A7-4CE6-BB95-CE3E85DCFAA1";
paths = (
{
closed = 1;
nodes = (
"846 1118 LINE",
"631 481 LINE SMOOTH",
"605 402 OFFCURVE",
"590 325 OFFCURVE",
"586 252 CURVE",
"578 252 LINE",
"571 317 OFFCURVE",
"559 405 OFFCURVE",
"535 481 CURVE SMOOTH",
"319 1118 LINE",
"0 1118 LINE",
"426 0 LINE",
"739 0 LINE",
"1165 1118 LINE"
);
}
);
width = 1165;
},
{
layerId = "1AE80326-82F5-491E-9ED8-F639C1D819D6";
paths = (
{
closed = 1;
nodes = (
"844 1133 LINE",
"643 461 LINE",
"638 438 OFFCURVE",
"625 392 OFFCURVE",
"625 348 CURVE",
"618 348 LINE",
"618 392 OFFCURVE",
"603 452 OFFCURVE",
"600 463 CURVE SMOOTH",
"408 1133 LINE",
"0 1133 LINE",
"432 0 LINE",
"819 0 LINE",
"1251 1133 LINE"
);
}
);
width = 1251;
}
);
note = v;
unicode = 0076;
},
{
glyphname = w;
lastChange = "2021-05-21 12:45:21 +0000";
layers = (
{
layerId = "89D8C5C7-992A-4B79-A2F2-D8D3CE0BA992";
paths = (
{
closed = 1;
nodes = (
"1316 1079 LINE",
"1113 319 LINE SMOOTH",
"1098 260 OFFCURVE",
"1087 214 OFFCURVE",
"1078 181 CURVE SMOOTH",
"1069 148 OFFCURVE",
"1062 115 OFFCURVE",
"1058 84 CURVE",
"1054 84 LINE",
"1039 143 OFFCURVE",
"1015 222 OFFCURVE",
"984 322 CURVE SMOOTH",
"741 1079 LINE",
"698 1079 LINE",
"442 319 LINE SMOOTH",
"401 194 OFFCURVE",
"388 147 OFFCURVE",
"372 84 CURVE",
"368 84 LINE",
"355 147 OFFCURVE",
"342 194 OFFCURVE",
"306 319 CURVE SMOOTH",
"91 1079 LINE",
"32 1079 LINE",
"345 -2 LINE",
"390 -2 LINE",
"655 795 LINE SMOOTH",
"675 855 OFFCURVE",
"695 919 OFFCURVE",
"714 987 CURVE",
"718 987 LINE",
"727 950 OFFCURVE",
"737 918 OFFCURVE",
"747 890 CURVE SMOOTH",
"777 795 LINE",
"1036 -2 LINE",
"1081 -2 LINE",
"1369 1079 LINE"
);
}
);
width = 1402;
},
{
layerId = "963BFE9B-9129-4C18-A3F3-46AD815B745B";
paths = (
{
closed = 1;
nodes = (
"1359 1090 LINE",
"1181 416 LINE SMOOTH",
"1150 296 OFFCURVE",
"1126 200 OFFCURVE",
"1118 135 CURVE",
"1109 135 LINE",
"1104 170 OFFCURVE",
"1094 211 OFFCURVE",
"1081 258 CURVE SMOOTH",
"1067 305 OFFCURVE",
"1053 352 OFFCURVE",
"1040 401 CURVE",
"823 1090 LINE",
"704 1090 LINE",
"479 401 LINE SMOOTH",
"460 346 OFFCURVE",
"445 297 OFFCURVE",
"434 252 CURVE SMOOTH",
"405 135 LINE",
"401 135 LINE",
"390 206 OFFCURVE",
"366 296 OFFCURVE",
"333 416 CURVE SMOOTH",
"149 1090 LINE",
"28 1090 LINE",
"335 0 LINE",
"458 0 LINE",
"690 707 LINE SMOOTH",
"719 796 OFFCURVE",
"741 879 OFFCURVE",
"757 950 CURVE",
"761 950 LINE",
"777 879 OFFCURVE",
"803 798 OFFCURVE",
"831 709 CURVE SMOOTH",
"1052 0 LINE",
"1181 0 LINE",
"1478 1090 LINE"
);
}
);
width = 1507;
},
{
layerId = "A10A3B8F-5047-4E3E-80F3-6554B53DC79D";
paths = (
{
closed = 1;
nodes = (
"1249 514 LINE SMOOTH",
"1216 389 OFFCURVE",
"1183 257 OFFCURVE",
"1175 188 CURVE",
"1167 188 LINE",
"1156 265 OFFCURVE",
"1121 386 OFFCURVE",
"1093 481 CURVE SMOOTH",
"905 1100 LINE",
"708 1100 LINE",
"514 481 LINE SMOOTH",
"494 421 OFFCURVE",
"475 341 OFFCURVE",
"459 273 CURVE SMOOTH",
"450 238 OFFCURVE",
"444 209 OFFCURVE",
"440 186 CURVE",
"432 186 LINE",
"420 266 OFFCURVE",
"389 397 OFFCURVE",
"360 514 CURVE SMOOTH",
"208 1100 LINE",
"22 1100 LINE",
"323 2 LINE",
"528 2 LINE",
"724 618 LINE SMOOTH",
"763 734 OFFCURVE",
"787 848 OFFCURVE",
"798 911 CURVE",
"806 911 LINE",
"818 848 OFFCURVE",
"847 733 OFFCURVE",
"882 621 CURVE SMOOTH",
"1071 2 LINE",
"1282 2 LINE",
"1587 1100 LINE",
"1402 1100 LINE"
);
}
);
userData = {
assembly = "NPUSHB[ ]	/* 30 values pushed */\01228 17 5 3 0 2 1 76 4 3 2 2 2 34 77 1 1 0 0 32 0 78 25 26 17 25 16 5 8 27 \012CALL[ ]	/* CallFunction */";
};
width = 1609;
},
{
layerId = "742C6D49-27A7-4CE6-BB95-CE3E85DCFAA1";
paths = (
{
closed = 1;
nodes = (
"1433 1118 LINE",
"1300 623 LINE SMOOTH",
"1281 551 OFFCURVE",
"1262 446 OFFCURVE",
"1249 358 CURVE SMOOTH",
"1242 313 OFFCURVE",
"1237 279 OFFCURVE",
"1234 256 CURVE",
"1226 256 LINE",
"1223 308 OFFCURVE",
"1212 405 OFFCURVE",
"1196 490 CURVE SMOOTH",
"1187 532 OFFCURVE",
"1181 563 OFFCURVE",
"1177 582 CURVE SMOOTH",
"1046 1118 LINE",
"710 1118 LINE",
"573 582 LINE SMOOTH",
"557 512 OFFCURVE",
"526 321 OFFCURVE",
"522 256 CURVE",
"514 256 LINE",
"505 307 OFFCURVE",
"491 418 OFFCURVE",
"478 499 CURVE SMOOTH",
"470 546 OFFCURVE",
"461 587 OFFCURVE",
"452 623 CURVE SMOOTH",
"323 1118 LINE",
"20 1118 LINE",
"337 0 LINE",
"665 0 LINE",
"755 387 LINE SMOOTH",
"766 437 OFFCURVE",
"794 553 OFFCURVE",
"815 642 CURVE SMOOTH",
"839 747 OFFCURVE",
"862 844 OFFCURVE",
"870 885 CURVE",
"878 885 LINE",
"887 840 OFFCURVE",
"915 731 OFFCURVE",
"936 642 CURVE SMOOTH",
"993 391 LINE",
"1079 0 LINE",
"1411 0 LINE",
"1732 1118 LINE"
);
}
);
width = 1753;
},
{
layerId = "1AE80326-82F5-491E-9ED8-F639C1D819D6";
paths = (
{
closed = 1;
nodes = (
"1462 1133 LINE",
"1361 698 LINE SMOOTH",
"1348 641 OFFCURVE",
"1334 546 OFFCURVE",
"1323 452 CURVE SMOOTH",
"1317 405 OFFCURVE",
"1313 363 OFFCURVE",
"1310 326 CURVE",
"1304 326 LINE",
"1296 397 OFFCURVE",
"1281 490 OFFCURVE",
"1266 571 CURVE SMOOTH",
"1259 611 OFFCURVE",
"1252 644 OFFCURVE",
"1247 670 CURVE SMOOTH",
"1150 1133 LINE",
"718 1133 LINE",
"614 676 LINE",
"603 638 OFFCURVE",
"563 408 OFFCURVE",
"559 326 CURVE",
"552 326 LINE",
"547 399 OFFCURVE",
"536 494 OFFCURVE",
"522 584 CURVE SMOOTH",
"515 629 OFFCURVE",
"508 667 OFFCURVE",
"501 698 CURVE SMOOTH",
"409 1133 LINE",
"24 1133 LINE",
"333 0 LINE",
"745 0 LINE",
"860 481 LINE",
"874 551 OFFCURVE",
"899 669 OFFCURVE",
"911 742 CURVE SMOOTH",
"918 783 OFFCURVE",
"922 813 OFFCURVE",
"925 834 CURVE",
"931 834 LINE",
"936 793 OFFCURVE",
"950 705 OFFCURVE",
"966 615 CURVE SMOOTH",
"974 570 OFFCURVE",
"982 530 OFFCURVE",
"991 496 CURVE SMOOTH",
"1109 0 LINE",
"1527 0 LINE",
"1839 1133 LINE"
);
}
);
width = 1863;
}
);
note = w;
unicode = 0077;
},
{
glyphname = x;
lastChange = "2021-05-21 12:45:21 +0000";
layers = (
{
layerId = "89D8C5C7-992A-4B79-A2F2-D8D3CE0BA992";
paths = (
{
closed = 1;
nodes = (
"483 518 LINE",
"854 0 LINE",
"919 0 LINE",
"520 557 LINE",
"895 1081 LINE",
"829 1081 LINE",
"483 594 LINE",
"137 1081 LINE",
"69 1081 LINE",
"448 557 LINE",
"53 0 LINE",
"116 0 LINE"
);
}
);
width = 980;
},
{
layerId = "963BFE9B-9129-4C18-A3F3-46AD815B745B";
paths = (
{
closed = 1;
nodes = (
"512 479 LINE",
"848 0 LINE",
"983 0 LINE",
"584 559 LINE",
"960 1090 LINE",
"827 1090 LINE",
"512 639 LINE",
"199 1090 LINE",
"61 1090 LINE",
"442 559 LINE",
"45 0 LINE",
"178 0 LINE"
);
}
);
width = 1032;
},
{
layerId = "A10A3B8F-5047-4E3E-80F3-6554B53DC79D";
paths = (
{
closed = 1;
nodes = (
"1046 0 LINE",
"646 561 LINE",
"1025 1098 LINE",
"822 1098 LINE",
"542 684 LINE",
"259 1098 LINE",
"54 1098 LINE",
"433 561 LINE",
"36 0 LINE",
"239 0 LINE",
"542 438 LINE",
"841 0 LINE"
);
}
);
userData = {
assembly = "NPUSHB[ ]	/* 29 values pushed */\01211 8 5 2 4 0 1 1 76 2 1 1 1 34 77 3 1 0 0 32 0 78 18 18 18 16 4 8 26 \012CALL[ ]	/* CallFunction */";
};
width = 1083;
},
{
layerId = "742C6D49-27A7-4CE6-BB95-CE3E85DCFAA1";
paths = (
{
closed = 1;
nodes = (
"592 383 LINE",
"827 0 LINE",
"1173 0 LINE",
"792 571 LINE",
"1157 1118 LINE",
"811 1118 LINE",
"592 762 LINE",
"375 1118 LINE",
"28 1118 LINE",
"389 571 LINE",
"10 0 LINE",
"356 0 LINE"
);
}
);
width = 1183;
},
{
layerId = "1AE80326-82F5-491E-9ED8-F639C1D819D6";
paths = (
{
closed = 1;
nodes = (
"645 344 LINE",
"835 0 LINE",
"1280 0 LINE",
"911 578 LINE",
"1265 1133 LINE",
"821 1133 LINE",
"645 815 LINE",
"473 1133 LINE",
"28 1133 LINE",
"375 578 LINE",
"10 0 LINE",
"454 0 LINE"
);
}
);
width = 1290;
}
);
note = x;
unicode = 0078;
},
{
glyphname = y;
lastChange = "2021-05-21 12:45:21 +0000";
layers = (
{
layerId = "89D8C5C7-992A-4B79-A2F2-D8D3CE0BA992";
paths = (
{
closed = 1;
nodes = (
"260 -384 OFFCURVE",
"202 -446 OFFCURVE",
"99 -446 CURVE SMOOTH",
"55 -446 OFFCURVE",
"27 -437 OFFCURVE",
"-12 -424 CURVE",
"-12 -477 LINE",
"25 -491 OFFCURVE",
"62 -498 OFFCURVE",
"99 -498 CURVE SMOOTH",
"232 -498 OFFCURVE",
"303 -413 OFFCURVE",
"371 -236 CURVE SMOOTH",
"881 1081 LINE",
"826 1081 LINE",
"541 344 LINE SMOOTH",
"494 221 OFFCURVE",
"464 136 OFFCURVE",
"443 76 CURVE",
"439 76 LINE",
"428 105 OFFCURVE",
"414 142 OFFCURVE",
"398 187 CURVE SMOOTH",
"381 232 OFFCURVE",
"361 287 OFFCURVE",
"336 352 CURVE SMOOTH",
"56 1081 LINE",
"0 1081 LINE",
"412 12 LINE",
"328 -209 LINE SMOOTH"
);
}
);
width = 876;
},
{
layerId = "963BFE9B-9129-4C18-A3F3-46AD815B745B";
paths = (
{
closed = 1;
nodes = (
"301 -325 OFFCURVE",
"236 -395 OFFCURVE",
"121 -395 CURVE SMOOTH",
"78 -395 OFFCURVE",
"39 -389 OFFCURVE",
"4 -377 CURVE",
"4 -475 LINE",
"43 -486 OFFCURVE",
"80 -496 OFFCURVE",
"135 -496 CURVE SMOOTH",
"307 -496 OFFCURVE",
"398 -386 OFFCURVE",
"471 -195 CURVE SMOOTH",
"963 1090 LINE",
"838 1090 LINE",
"584 410 LINE SMOOTH",
"540 289 OFFCURVE",
"507 188 OFFCURVE",
"487 125 CURVE",
"481 125 LINE",
"462 198 OFFCURVE",
"429 292 OFFCURVE",
"385 412 CURVE SMOOTH",
"125 1090 LINE",
"0 1090 LINE",
"428 4 LINE",
"356 -180 LINE SMOOTH"
);
}
);
width = 960;
},
{
layerId = "A10A3B8F-5047-4E3E-80F3-6554B53DC79D";
paths = (
{
closed = 1;
nodes = (
"340 -267 OFFCURVE",
"270 -344 OFFCURVE",
"143 -344 CURVE SMOOTH",
"96 -344 OFFCURVE",
"53 -337 OFFCURVE",
"22 -332 CURVE",
"22 -475 LINE",
"58 -483 OFFCURVE",
"107 -492 OFFCURVE",
"172 -492 CURVE SMOOTH",
"385 -492 OFFCURVE",
"492 -359 OFFCURVE",
"571 -152 CURVE SMOOTH",
"1044 1098 LINE",
"850 1098 LINE",
"627 475 LINE SMOOTH",
"588 363 OFFCURVE",
"549 242 OFFCURVE",
"532 174 CURVE",
"524 174 LINE",
"508 265 OFFCURVE",
"473 361 OFFCURVE",
"432 473 CURVE SMOOTH",
"195 1098 LINE",
"2 1098 LINE",
"444 -4 LINE",
"387 -150 LINE SMOOTH"
);
}
);
userData = {
assembly = "NPUSHB[ ]	/* 35 values pushed */\01220 6 2 3 0 19 1 2 3 2 76 1 1 0 0 34 77 0 3 3 2 97 0 2 2 36 2 78 37 35 25 17 4 8 26 \012CALL[ ]	/* CallFunction */";
};
width = 1044;
},
{
layerId = "742C6D49-27A7-4CE6-BB95-CE3E85DCFAA1";
paths = (
{
closed = 1;
nodes = (
"387 -156 OFFCURVE",
"319 -246 OFFCURVE",
"190 -246 CURVE SMOOTH",
"145 -246 OFFCURVE",
"97 -240 OFFCURVE",
"70 -233 CURVE",
"70 -475 LINE",
"107 -483 OFFCURVE",
"154 -492 OFFCURVE",
"225 -492 CURVE SMOOTH",
"438 -492 OFFCURVE",
"605 -375 OFFCURVE",
"692 -143 CURVE SMOOTH",
"1165 1118 LINE",
"838 1118 LINE",
"631 489 LINE SMOOTH",
"608 426 OFFCURVE",
"596 366 OFFCURVE",
"588 295 CURVE",
"582 295 LINE",
"577 366 OFFCURVE",
"566 426 OFFCURVE",
"545 489 CURVE SMOOTH",
"334 1118 LINE",
"0 1118 LINE",
"444 8 LINE",
"426 -47 LINE SMOOTH"
);
}
);
width = 1165;
},
{
layerId = "1AE80326-82F5-491E-9ED8-F639C1D819D6";
paths = (
{
closed = 1;
nodes = (
"403 -93 OFFCURVE",
"352 -180 OFFCURVE",
"223 -180 CURVE SMOOTH",
"176 -180 OFFCURVE",
"130 -173 OFFCURVE",
"102 -168 CURVE",
"102 -475 LINE",
"141 -483 OFFCURVE",
"191 -492 OFFCURVE",
"262 -492 CURVE SMOOTH",
"459 -492 OFFCURVE",
"589 -428 OFFCURVE",
"681 -303 CURVE SMOOTH",
"727 -240 OFFCURVE",
"767 -163 OFFCURVE",
"801 -72 CURVE SMOOTH",
"1249 1133 LINE",
"850 1133 LINE",
"653 481 LINE SMOOTH",
"645 454 OFFCURVE",
"634 415 OFFCURVE",
"629 360 CURVE",
"621 360 LINE",
"618 404 OFFCURVE",
"610 456 OFFCURVE",
"602 483 CURVE SMOOTH",
"410 1133 LINE",
"-2 1133 LINE",
"444 16 LINE",
"440 6 LINE SMOOTH"
);
}
);
width = 1249;
}
);
note = y;
unicode = 0079;
},
{
glyphname = z;
lastChange = "2021-05-21 12:45:21 +0000";
layers = (
{
layerId = "89D8C5C7-992A-4B79-A2F2-D8D3CE0BA992";
paths = (
{
closed = 1;
nodes = (
"849 1051 LINE",
"849 1081 LINE",
"138 1081 LINE",
"138 1030 LINE",
"771 1030 LINE",
"83 35 LINE",
"83 0 LINE",
"843 0 LINE",
"843 51 LINE",
"157 51 LINE"
);
}
);
width = 933;
},
{
layerId = "963BFE9B-9129-4C18-A3F3-46AD815B745B";
paths = (
{
closed = 1;
nodes = (
"859 1008 LINE",
"859 1090 LINE",
"126 1090 LINE",
"126 995 LINE",
"720 995 LINE",
"81 76 LINE",
"81 0 LINE",
"863 0 LINE",
"863 94 LINE",
"220 94 LINE"
);
}
);
width = 948;
},
{
layerId = "A10A3B8F-5047-4E3E-80F3-6554B53DC79D";
paths = (
{
closed = 1;
nodes = (
"114 1098 LINE",
"114 958 LINE",
"669 958 LINE",
"79 119 LINE",
"79 0 LINE",
"882 0 LINE",
"882 139 LINE",
"286 139 LINE",
"867 963 LINE",
"867 1098 LINE"
);
}
);
userData = {
assembly = "NPUSHB[ ]	/* 38 values pushed */\0129 1 2 3 4 1 1 0 2 76 0 2 2 3 95 0 3 3 34 77 0 0 0 1 95 0 1 1 32 1 78 17 18 17 16 4 8 26 \012CALL[ ]	/* CallFunction */";
};
width = 962;
},
{
layerId = "742C6D49-27A7-4CE6-BB95-CE3E85DCFAA1";
paths = (
{
closed = 1;
nodes = (
"919 920 LINE",
"919 1118 LINE",
"86 1118 LINE",
"86 885 LINE",
"573 885 LINE",
"55 180 LINE",
"55 0 LINE",
"938 0 LINE",
"938 233 LINE",
"415 233 LINE"
);
}
);
width = 999;
},
{
layerId = "1AE80326-82F5-491E-9ED8-F639C1D819D6";
paths = (
{
closed = 1;
nodes = (
"964 891 LINE",
"964 1133 LINE",
"76 1133 LINE",
"76 834 LINE",
"518 834 LINE",
"49 223 LINE",
"49 0 LINE",
"987 0 LINE",
"987 299 LINE",
"516 299 LINE"
);
}
);
width = 1038;
}
);
note = z;
unicode = 007A;
},
{
glyphname = uni1780;
lastChange = "2021-05-21 12:45:21 +0000";
layers = (
{
layerId = "89D8C5C7-992A-4B79-A2F2-D8D3CE0BA992";
paths = (
{
closed = 1;
nodes = (
"250 1200 LINE",
"250 1150 LINE",
"1050 1150 LINE",
"1050 1200 LINE"
);
},
{
closed = 1;
nodes = (
"308 782 OFFCURVE",
"422 873 OFFCURVE",
"650 873 CURVE SMOOTH",
"878 873 OFFCURVE",
"992 782 OFFCURVE",
"992 600 CURVE SMOOTH",
"992 0 LINE",
"1050 0 LINE",
"1050 600 LINE SMOOTH",
"1050 815 OFFCURVE",
"917 923 OFFCURVE",
"650 923 CURVE SMOOTH",
"383 923 OFFCURVE",
"250 815 OFFCURVE",
"250 600 CURVE SMOOTH",
"250 0 LINE",
"308 0 LINE",
"308 600 LINE SMOOTH"
);
}
);
width = 1300;
},
{
layerId = "963BFE9B-9129-4C18-A3F3-46AD815B745B";
paths = (
{
closed = 1;
nodes = (
"230 1200 LINE",
"230 1112 LINE",
"1070 1112 LINE",
"1070 1200 LINE"
);
},
{
closed = 1;
nodes = (
"338 757 OFFCURVE",
"442 835 OFFCURVE",
"650 835 CURVE SMOOTH",
"858 835 OFFCURVE",
"962 757 OFFCURVE",
"962 600 CURVE SMOOTH",
"962 0 LINE",
"1070 0 LINE",
"1070 600 LINE SMOOTH",
"1070 815 OFFCURVE",
"930 923 OFFCURVE",
"650 923 CURVE SMOOTH",
"370 923 OFFCURVE",
"230 815 OFFCURVE",
"230 600 CURVE SMOOTH",
"230 0 LINE",
"338 0 LINE",
"338 600 LINE SMOOTH"
);
}
);
width = 1300;
},
{
layerId = "A10A3B8F-5047-4E3E-80F3-6554B53DC79D";
paths = (
{
closed = 1;
nodes = (
"200 1200 LINE",
"200 1062 LINE",
"1100 1062 LINE",
"1100 1200 LINE"
);
},
{
closed = 1;
nodes = (
"388 723 OFFCURVE",
"475 785 OFFCURVE",
"650 785 CURVE SMOOTH",
"825 785 OFFCURVE",
"912 723 OFFCURVE",
"912 600 CURVE SMOOTH",
"912 0 LINE",
"1100 0 LINE",
"1100 600 LINE SMOOTH",
"1100 815 OFFCURVE",
"950 923 OFFCURVE",
"650 923 CURVE SMOOTH",
"350 923 OFFCURVE",
"200 815 OFFCURVE",
"200 600 CURVE SMOOTH",
"200 0 LINE",
"388 0 LINE",
"388 600 LINE SMOOTH"
);
}
);
userData = {
assembly = "NPUSHB[ ]	/* 40 values pushed */\0120 1 0 3 0 1 3 105 6 1 5 5 4 95 0 4 4 17 77 2 1 0 0 19 0 78 14 14 14 17 14 17 18 34 18 34 17 7 7 27 \012CALL[ ]	/* CallFunction */";
};
width = 1300;
},
{
layerId = "742C6D49-27A7-4CE6-BB95-CE3E85DCFAA1";
paths = (
{
closed = 1;
nodes = (
"1150 1012 LINE",
"1150 1200 LINE",
"150 1200 LINE",
"150 1012 LINE"
);
},
{
closed = 1;
nodes = (
"438 660 OFFCURVE",
"509 705 OFFCURVE",
"650 705 CURVE SMOOTH",
"791 705 OFFCURVE",
"862 660 OFFCURVE",
"862 570 CURVE SMOOTH",
"862 0 LINE",
"1150 0 LINE",
"1150 570 LINE SMOOTH",
"1150 785 OFFCURVE",
"983 893 OFFCURVE",
"650 893 CURVE SMOOTH",
"317 893 OFFCURVE",
"150 785 OFFCURVE",
"150 570 CURVE SMOOTH",
"150 0 LINE",
"438 0 LINE",
"438 570 LINE SMOOTH"
);
}
);
width = 1300;
},
{
layerId = "1AE80326-82F5-491E-9ED8-F639C1D819D6";
paths = (
{
closed = 1;
nodes = (
"1200 1012 LINE",
"1200 1250 LINE",
"100 1250 LINE",
"100 1012 LINE"
);
},
{
closed = 1;
nodes = (
"488 627 OFFCURVE",
"542 655 OFFCURVE",
"650 655 CURVE SMOOTH",
"758 655 OFFCURVE",
"812 627 OFFCURVE",
"812 570 CURVE SMOOTH",
"812 0 LINE",
"1200 0 LINE",
"1200 570 LINE SMOOTH",
"1200 785 OFFCURVE",
"1017 893 OFFCURVE",
"650 893 CURVE SMOOTH",
"283 893 OFFCURVE",
"100 785 OFFCURVE",
"100 570 CURVE SMOOTH",
"100 0 LINE",
"488 0 LINE",
"488 570 LINE SMOOTH"
);
}
);
width = 1300;
}
);
note = uni1780;
unicode = 1780;
},
{
glyphname = uni1781;
lastChange = "2021-05-21 12:45:21 +0000";
layers = (
{
layerId = "89D8C5C7-992A-4B79-A2F2-D8D3CE0BA992";
paths = (
{
closed = 1;
nodes = (
"889 605 OFFCURVE",
"1050 714 OFFCURVE",
"1050 877 CURVE SMOOTH",
"1050 1092 OFFCURVE",
"917 1200 OFFCURVE",
"650 1200 CURVE SMOOTH",
"383 1200 OFFCURVE",
"250 1092 OFFCURVE",
"250 877 CURVE SMOOTH",
"250 772 OFFCURVE",
"313 719 OFFCURVE",
"438 719 CURVE",
"438 773 LINE",
"351 773 OFFCURVE",
"308 808 OFFCURVE",
"308 877 CURVE SMOOTH",
"308 1059 OFFCURVE",
"422 1150 OFFCURVE",
"650 1150 CURVE SMOOTH",
"878 1150 OFFCURVE",
"992 1059 OFFCURVE",
"992 877 CURVE SMOOTH",
"992 741 OFFCURVE",
"847 649 OFFCURVE",
"556 601 CURVE SMOOTH",
"250 551 LINE",
"250 323 LINE SMOOTH",
"250 108 OFFCURVE",
"383 0 OFFCURVE",
"650 0 CURVE SMOOTH",
"917 0 OFFCURVE",
"1050 108 OFFCURVE",
"1050 323 CURVE SMOOTH",
"1050 480 LINE",
"992 480 LINE",
"992 323 LINE SMOOTH",
"992 141 OFFCURVE",
"878 50 OFFCURVE",
"650 50 CURVE SMOOTH",
"422 50 OFFCURVE",
"308 141 OFFCURVE",
"308 323 CURVE SMOOTH",
"308 509 LINE",
"566 552 LINE SMOOTH"
);
}
);
width = 1300;
},
{
layerId = "963BFE9B-9129-4C18-A3F3-46AD815B745B";
paths = (
{
closed = 1;
nodes = (
"902 581 OFFCURVE",
"1070 698 OFFCURVE",
"1070 877 CURVE SMOOTH",
"1070 1092 OFFCURVE",
"930 1200 OFFCURVE",
"650 1200 CURVE SMOOTH",
"370 1200 OFFCURVE",
"230 1092 OFFCURVE",
"230 877 CURVE SMOOTH",
"230 772 OFFCURVE",
"299 719 OFFCURVE",
"438 719 CURVE",
"438 813 LINE",
"371 813 OFFCURVE",
"338 834 OFFCURVE",
"338 877 CURVE SMOOTH",
"338 1034 OFFCURVE",
"442 1112 OFFCURVE",
"650 1112 CURVE SMOOTH",
"858 1112 OFFCURVE",
"962 1034 OFFCURVE",
"962 877 CURVE SMOOTH",
"962 746 OFFCURVE",
"827 658 OFFCURVE",
"556 615 CURVE SMOOTH",
"230 562 LINE",
"230 323 LINE SMOOTH",
"230 108 OFFCURVE",
"370 0 OFFCURVE",
"650 0 CURVE SMOOTH",
"930 0 OFFCURVE",
"1070 108 OFFCURVE",
"1070 323 CURVE SMOOTH",
"1070 480 LINE",
"962 480 LINE",
"962 323 LINE SMOOTH",
"962 166 OFFCURVE",
"858 88 OFFCURVE",
"650 88 CURVE SMOOTH",
"442 88 OFFCURVE",
"338 166 OFFCURVE",
"338 323 CURVE SMOOTH",
"338 490 LINE",
"566 527 LINE SMOOTH"
);
}
);
width = 1300;
},
{
layerId = "A10A3B8F-5047-4E3E-80F3-6554B53DC79D";
paths = (
{
closed = 1;
nodes = (
"922 550 OFFCURVE",
"1100 676 OFFCURVE",
"1100 877 CURVE SMOOTH",
"1100 969 OFFCURVE",
"1067 1046 OFFCURVE",
"1000 1108 CURVE SMOOTH",
"933 1169 OFFCURVE",
"817 1200 OFFCURVE",
"650 1200 CURVE SMOOTH",
"483 1200 OFFCURVE",
"367 1169 OFFCURVE",
"300 1108 CURVE SMOOTH",
"233 1046 OFFCURVE",
"200 976 OFFCURVE",
"200 897 CURVE SMOOTH",
"200 863 LINE SMOOTH",
"200 767 OFFCURVE",
"246 719 OFFCURVE",
"338 719 CURVE SMOOTH",
"488 719 LINE",
"488 863 LINE",
"421 863 OFFCURVE",
"388 874 OFFCURVE",
"388 897 CURVE SMOOTH",
"388 945 OFFCURVE",
"408 985 OFFCURVE",
"447 1016 CURVE SMOOTH",
"486 1047 OFFCURVE",
"553 1062 OFFCURVE",
"650 1062 CURVE SMOOTH",
"747 1062 OFFCURVE",
"815 1047 OFFCURVE",
"854 1016 CURVE SMOOTH",
"893 985 OFFCURVE",
"912 938 OFFCURVE",
"912 877 CURVE SMOOTH",
"912 750 OFFCURVE",
"793 670 OFFCURVE",
"556 636 CURVE SMOOTH",
"200 586 LINE",
"200 323 LINE SMOOTH",
"200 231 OFFCURVE",
"233 154 OFFCURVE",
"300 93 CURVE SMOOTH",
"367 31 OFFCURVE",
"483 0 OFFCURVE",
"650 0 CURVE SMOOTH",
"817 0 OFFCURVE",
"933 31 OFFCURVE",
"1000 93 CURVE SMOOTH",
"1067 154 OFFCURVE",
"1100 231 OFFCURVE",
"1100 323 CURVE SMOOTH",
"1100 480 LINE",
"912 480 LINE",
"912 323 LINE SMOOTH",
"912 262 OFFCURVE",
"893 216 OFFCURVE",
"854 185 CURVE SMOOTH",
"815 154 OFFCURVE",
"747 138 OFFCURVE",
"650 138 CURVE SMOOTH",
"553 138 OFFCURVE",
"486 154 OFFCURVE",
"447 185 CURVE SMOOTH",
"408 216 OFFCURVE",
"388 262 OFFCURVE",
"388 323 CURVE SMOOTH",
"388 473 LINE",
"566 499 LINE SMOOTH"
);
}
);
userData = {
assembly = "NPUSHB[ ]	/* 57 values pushed */\01222 1 1 5 1 1 0 1 2 76 0 1 5 0 5 1 0 128 0 4 0 5 1 4 5 103 0 3 3 6 97 0 6 6 17 77 0 0 0 2 97 0 2 2 19 2 78 37 33 20 42 36 20 37 7 7 29 \012CALL[ ]	/* CallFunction */";
};
width = 1300;
},
{
layerId = "742C6D49-27A7-4CE6-BB95-CE3E85DCFAA1";
paths = (
{
closed = 1;
nodes = (
"955 543 OFFCURVE",
"1150 676 OFFCURVE",
"1150 877 CURVE SMOOTH",
"1150 1092 OFFCURVE",
"983 1200 OFFCURVE",
"650 1200 CURVE SMOOTH",
"317 1200 OFFCURVE",
"150 1099 OFFCURVE",
"150 897 CURVE SMOOTH",
"150 863 LINE SMOOTH",
"150 767 OFFCURVE",
"213 719 OFFCURVE",
"338 719 CURVE SMOOTH",
"538 719 LINE",
"538 863 LINE",
"471 863 OFFCURVE",
"438 874 OFFCURVE",
"438 897 CURVE SMOOTH",
"438 974 OFFCURVE",
"509 1012 OFFCURVE",
"650 1012 CURVE SMOOTH",
"791 1012 OFFCURVE",
"862 967 OFFCURVE",
"862 877 CURVE SMOOTH",
"862 770 OFFCURVE",
"760 697 OFFCURVE",
"556 656 CURVE",
"150 586 LINE",
"150 323 LINE SMOOTH",
"150 108 OFFCURVE",
"317 0 OFFCURVE",
"650 0 CURVE SMOOTH",
"983 0 OFFCURVE",
"1150 108 OFFCURVE",
"1150 323 CURVE SMOOTH",
"1150 480 LINE",
"862 480 LINE",
"862 323 LINE SMOOTH",
"862 233 OFFCURVE",
"791 188 OFFCURVE",
"650 188 CURVE SMOOTH",
"509 188 OFFCURVE",
"438 233 OFFCURVE",
"438 323 CURVE SMOOTH",
"438 453 LINE",
"566 479 LINE"
);
}
);
width = 1300;
},
{
layerId = "1AE80326-82F5-491E-9ED8-F639C1D819D6";
paths = (
{
closed = 1;
nodes = (
"963 562 OFFCURVE",
"1200 698 OFFCURVE",
"1200 891 CURVE SMOOTH",
"1200 1130 OFFCURVE",
"1017 1250 OFFCURVE",
"650 1250 CURVE SMOOTH",
"283 1250 OFFCURVE",
"100 1137 OFFCURVE",
"100 911 CURVE SMOOTH",
"100 878 LINE SMOOTH",
"100 785 OFFCURVE",
"179 739 OFFCURVE",
"338 739 CURVE SMOOTH",
"538 739 LINE",
"538 878 LINE",
"505 878 OFFCURVE",
"488 889 OFFCURVE",
"488 911 CURVE SMOOTH",
"488 978 OFFCURVE",
"542 1012 OFFCURVE",
"650 1012 CURVE SMOOTH",
"758 1012 OFFCURVE",
"812 972 OFFCURVE",
"812 891 CURVE SMOOTH",
"812 789 OFFCURVE",
"693 717 OFFCURVE",
"456 675 CURVE SMOOTH",
"100 612 LINE",
"100 359 LINE SMOOTH",
"100 120 OFFCURVE",
"283 0 OFFCURVE",
"650 0 CURVE SMOOTH",
"1017 0 OFFCURVE",
"1200 120 OFFCURVE",
"1200 359 CURVE SMOOTH",
"1200 510 LINE",
"812 510 LINE",
"812 359 LINE SMOOTH",
"812 278 OFFCURVE",
"758 238 OFFCURVE",
"650 238 CURVE SMOOTH",
"542 238 OFFCURVE",
"488 278 OFFCURVE",
"488 359 CURVE SMOOTH",
"488 484 LINE"
);
}
);
width = 1300;
}
);
note = uni1781;
unicode = 1781;
},
